  0
SECTION
  2
HEADER
  9
$ACADVER
  1
AC1014
  9
$HANDSEED
  5
FFFF
  9
$INSUNITS
 70
     4
  9
$MEASUREMENT
 70
     1
  0
ENDSEC
  0
SECTION
  2
TABLES
  0
TABLE
  2
VPORT
  5
8
330
0
100
AcDbSymbolTable
 70
     4
  0
VPORT
  5
2E
330
8
100
AcDbSymbolTableRecord
100
AcDbViewportTableRecord
  2
*ACTIVE
 70
     0
 10
0.0
 20
0.0
 11
1.0
 21
1.0
 12
210.0
 22
148.5
 13
0.0
 23
0.0
 14
10.0
 24
10.0
 15
10.0
 25
10.0
 16
0.0
 26
0.0
 36
1.0
 17
0.0
 27
0.0
 37
0.0
 40
341.0
 41
1.24
 42
50.0
 43
0.0
 44
0.0
 50
0.0
 51
0.0
 71
     0
 72
   100
 73
     1
 74
     3
 75
     0
 76
     0
 77
     0
 78
     0
  0
ENDTAB
  0
TABLE
  2
LTYPE
  5
5
330
0
100
AcDbSymbolTable
 70
     1
  0
LTYPE
  5
14
330
5
100
AcDbSymbolTableRecord
100
AcDbLinetypeTableRecord
  2
BYBLOCK
 70
     0
  3

 72
    65
 73
     0
 40
0.0
  0
LTYPE
  5
15
330
5
100
AcDbSymbolTableRecord
100
AcDbLinetypeTableRecord
  2
BYLAYER
 70
     0
  3

 72
    65
 73
     0
 40
0.0
  0
LTYPE
  5
16
330
5
100
AcDbSymbolTableRecord
100
AcDbLinetypeTableRecord
  2
CONTINUOUS
 70
     0
  3
Solid line
 72
    65
 73
     0
 40
0.0
  0
ENDTAB
  0
TABLE
  2
LAYER
  5
2
100
AcDbSymbolTable
 70
1
  0
LAYER
  5
50
100
AcDbSymbolTableRecord
100
AcDbLayerTableRecord
  2
0
 70
0
  6
CONTINUOUS
  0
ENDTAB
  0
TABLE
  2
STYLE
  5
3
330
0
100
AcDbSymbolTable
 70
     1
  0
STYLE
  5
11
330
3
100
AcDbSymbolTableRecord
100
AcDbTextStyleTableRecord
  2
STANDARD
 70
     0
 40
0.0
 41
1.0
 50
0.0
 71
     0
 42
2.5
  3
txt
  4

  0
ENDTAB
  0
TABLE
  2
VIEW
  5
6
330
0
100
AcDbSymbolTable
 70
     0
  0
ENDTAB
  0
TABLE
  2
UCS
  5
7
330
0
100
AcDbSymbolTable
 70
     0
  0
ENDTAB
  0
TABLE
  2
APPID
  5
9
330
0
100
AcDbSymbolTable
 70
     2
  0
APPID
  5
12
330
9
100
AcDbSymbolTableRecord
100
AcDbRegAppTableRecord
  2
ACAD
 70
     0
  0
ENDTAB
  0
TABLE
  2
DIMSTYLE
  5
A
330
0
100
AcDbSymbolTable
 70
     1
  0
DIMSTYLE
105
27
330
A
100
AcDbSymbolTableRecord
100
AcDbDimStyleTableRecord
  2
ISO-25
 70
     0
  3

  4

  5

  6

  7

 40
1.0
 41
2.5
 42
0.625
 43
3.75
 44
1.25
 45
0.0
 46
0.0
 47
0.0
 48
0.0
140
2.5
141
2.5
142
0.0
143
0.03937007874016
144
1.0
145
0.0
146
1.0
147
0.625
 71
     0
 72
     0
 73
     0
 74
     0
 75
     0
 76
     0
 77
     1
 78
     8
170
     0
171
     3
172
     1
173
     0
174
     0
175
     0
176
     0
177
     0
178
     0
270
     2
271
     2
272
     2
273
     2
274
     3
340
11
275
     0
280
     0
281
     0
282
     0
283
     0
284
     8
285
     0
286
     0
287
     3
288
     0
  0
ENDTAB
  0
TABLE
  2
BLOCK_RECORD
  5
1
330
0
100
AcDbSymbolTable
 70
     1
  0
BLOCK_RECORD
  5
1F
330
1
100
AcDbSymbolTableRecord
100
AcDbBlockTableRecord
  2
*MODEL_SPACE
  0
BLOCK_RECORD
  5
1B
330
1
100
AcDbSymbolTableRecord
100
AcDbBlockTableRecord
  2
*PAPER_SPACE
  0
ENDTAB
  0
ENDSEC
  0
SECTION
  2
BLOCKS
  0
BLOCK
  5
20
330
1F
100
AcDbEntity
  8
0
100
AcDbBlockBegin
  2
*MODEL_SPACE
 70
     0
 10
0.0
 20
0.0
 30
0.0
  3
*MODEL_SPACE
  1

  0
ENDBLK
  5
21
330
1F
100
AcDbEntity
  8
0
100
AcDbBlockEnd
  0
BLOCK
  5
1C
330
1B
100
AcDbEntity
 67
     1
  8
0
100
AcDbBlockBegin
  2
*PAPER_SPACE
  1

  0
ENDBLK
  5
1D
330
1B
100
AcDbEntity
 67
     1
  8
0
100
AcDbBlockEnd
  0
ENDSEC
  0
SECTION
  2
ENTITIES
  0
LWPOLYLINE
  5
100
100
AcDbEntity
  8
0
 62
1
100
AcDbPolyline
 90
4
 70
1
 10
19.406878
 20
189.349304
 30
0.0
 10
33.046010
 20
189.349304
 30
0.0
 10
33.046010
 20
175.710172
 30
0.0
 10
19.406878
 20
175.710172
 30
0.0
  0
LWPOLYLINE
  5
101
100
AcDbEntity
  8
0
 62
1
100
AcDbPolyline
 90
4
 70
1
 10
34.281746
 20
189.300699
 30
0.0
 10
47.920878
 20
189.300699
 30
0.0
 10
47.920878
 20
175.661567
 30
0.0
 10
34.281746
 20
175.661567
 30
0.0
  0
LWPOLYLINE
  5
102
100
AcDbEntity
  8
0
 62
1
100
AcDbPolyline
 90
4
 70
1
 10
49.796150
 20
189.358999
 30
0.0
 10
63.435282
 20
189.358999
 30
0.0
 10
63.435282
 20
175.719867
 30
0.0
 10
49.796150
 20
175.719867
 30
0.0
  0
LWPOLYLINE
  5
103
100
AcDbEntity
  8
0
 62
1
100
AcDbPolyline
 90
4
 70
1
 10
66.947906
 20
189.349304
 30
0.0
 10
80.587038
 20
189.349304
 30
0.0
 10
80.587038
 20
175.710172
 30
0.0
 10
66.947906
 20
175.710172
 30
0.0
  0
LWPOLYLINE
  5
104
100
AcDbEntity
  8
0
 62
1
100
AcDbPolyline
 90
4
 70
1
 10
83.721031
 20
189.349304
 30
0.0
 10
97.360163
 20
189.349304
 30
0.0
 10
97.360163
 20
175.710172
 30
0.0
 10
83.721031
 20
175.710172
 30
0.0
  0
LWPOLYLINE
  5
105
100
AcDbEntity
  8
0
 62
1
100
AcDbPolyline
 90
4
 70
1
 10
99.279648
 20
189.349304
 30
0.0
 10
112.918780
 20
189.349304
 30
0.0
 10
112.918780
 20
175.710172
 30
0.0
 10
99.279648
 20
175.710172
 30
0.0
  0
LWPOLYLINE
  5
106
100
AcDbEntity
  8
0
 62
1
100
AcDbPolyline
 90
4
 70
1
 10
115.242940
 20
189.349304
 30
0.0
 10
128.882072
 20
189.349304
 30
0.0
 10
128.882072
 20
175.710172
 30
0.0
 10
115.242940
 20
175.710172
 30
0.0
  0
LWPOLYLINE
  5
107
100
AcDbEntity
  8
0
 62
1
100
AcDbPolyline
 90
4
 70
1
 10
131.026660
 20
189.349304
 30
0.0
 10
144.665792
 20
189.349304
 30
0.0
 10
144.665792
 20
175.710172
 30
0.0
 10
131.026660
 20
175.710172
 30
0.0
  0
LWPOLYLINE
  5
108
100
AcDbEntity
  8
0
 62
1
100
AcDbPolyline
 90
4
 70
1
 10
147.572370
 20
189.349304
 30
0.0
 10
161.211502
 20
189.349304
 30
0.0
 10
161.211502
 20
175.710172
 30
0.0
 10
147.572370
 20
175.710172
 30
0.0
  0
LWPOLYLINE
  5
109
100
AcDbEntity
  8
0
 62
1
100
AcDbPolyline
 90
4
 70
1
 10
162.978130
 20
189.349304
 30
0.0
 10
176.617262
 20
189.349304
 30
0.0
 10
176.617262
 20
175.710172
 30
0.0
 10
162.978130
 20
175.710172
 30
0.0
  0
LWPOLYLINE
  5
10a
100
AcDbEntity
  8
0
 62
1
100
AcDbPolyline
 90
4
 70
1
 10
178.979450
 20
189.349304
 30
0.0
 10
192.618582
 20
189.349304
 30
0.0
 10
192.618582
 20
175.710172
 30
0.0
 10
178.979450
 20
175.710172
 30
0.0
  0
LWPOLYLINE
  5
10b
100
AcDbEntity
  8
0
 62
1
100
AcDbPolyline
 90
4
 70
1
 10
50.245094
 20
171.654106
 30
0.0
 10
63.884226
 20
171.654106
 30
0.0
 10
63.884226
 20
158.014974
 30
0.0
 10
50.245094
 20
158.014974
 30
0.0
  0
LWPOLYLINE
  5
10c
100
AcDbEntity
  8
0
 62
1
100
AcDbPolyline
 90
4
 70
1
 10
19.406878
 20
171.741619
 30
0.0
 10
33.046010
 20
171.741619
 30
0.0
 10
33.046010
 20
158.102487
 30
0.0
 10
19.406878
 20
158.102487
 30
0.0
  0
LWPOLYLINE
  5
10d
100
AcDbEntity
  8
0
 62
1
100
AcDbPolyline
 90
4
 70
1
 10
66.922356
 20
171.669117
 30
0.0
 10
80.561488
 20
171.669117
 30
0.0
 10
80.561488
 20
158.029985
 30
0.0
 10
66.922356
 20
158.029985
 30
0.0
  0
LWPOLYLINE
  5
10e
100
AcDbEntity
  8
0
 62
1
100
AcDbPolyline
 90
4
 70
1
 10
83.721031
 20
171.741619
 30
0.0
 10
97.360163
 20
171.741619
 30
0.0
 10
97.360163
 20
158.102487
 30
0.0
 10
83.721031
 20
158.102487
 30
0.0
  0
LWPOLYLINE
  5
10f
100
AcDbEntity
  8
0
 62
1
100
AcDbPolyline
 90
4
 70
1
 10
99.279648
 20
171.741619
 30
0.0
 10
112.918780
 20
171.741619
 30
0.0
 10
112.918780
 20
158.102487
 30
0.0
 10
99.279648
 20
158.102487
 30
0.0
  0
LWPOLYLINE
  5
110
100
AcDbEntity
  8
0
 62
1
100
AcDbPolyline
 90
4
 70
1
 10
115.242940
 20
171.741619
 30
0.0
 10
128.882072
 20
171.741619
 30
0.0
 10
128.882072
 20
158.102487
 30
0.0
 10
115.242940
 20
158.102487
 30
0.0
  0
LWPOLYLINE
  5
111
100
AcDbEntity
  8
0
 62
1
100
AcDbPolyline
 90
4
 70
1
 10
131.026640
 20
171.741619
 30
0.0
 10
144.665772
 20
171.741619
 30
0.0
 10
144.665772
 20
158.102487
 30
0.0
 10
131.026640
 20
158.102487
 30
0.0
  0
LWPOLYLINE
  5
112
100
AcDbEntity
  8
0
 62
1
100
AcDbPolyline
 90
4
 70
1
 10
148.101520
 20
171.741619
 30
0.0
 10
161.740652
 20
171.741619
 30
0.0
 10
161.740652
 20
158.102487
 30
0.0
 10
148.101520
 20
158.102487
 30
0.0
  0
LWPOLYLINE
  5
113
100
AcDbEntity
  8
0
 62
1
100
AcDbPolyline
 90
4
 70
1
 10
162.989380
 20
171.764545
 30
0.0
 10
176.628512
 20
171.764545
 30
0.0
 10
176.628512
 20
158.125413
 30
0.0
 10
162.989380
 20
158.125413
 30
0.0
  0
LWPOLYLINE
  5
114
100
AcDbEntity
  8
0
 62
1
100
AcDbPolyline
 90
4
 70
1
 10
178.979430
 20
171.741619
 30
0.0
 10
192.618562
 20
171.741619
 30
0.0
 10
192.618562
 20
158.102487
 30
0.0
 10
178.979430
 20
158.102487
 30
0.0
  0
LWPOLYLINE
  5
115
100
AcDbEntity
  8
0
 62
1
100
AcDbPolyline
 90
4
 70
1
 10
34.628735
 20
171.654106
 30
0.0
 10
48.267867
 20
171.654106
 30
0.0
 10
48.267867
 20
158.014974
 30
0.0
 10
34.628735
 20
158.014974
 30
0.0
  0
LWPOLYLINE
  5
116
100
AcDbEntity
  8
0
 62
1
100
AcDbPolyline
 90
4
 70
1
 10
19.406878
 20
154.141190
 30
0.0
 10
33.046010
 20
154.141190
 30
0.0
 10
33.046010
 20
140.502058
 30
0.0
 10
19.406878
 20
140.502058
 30
0.0
  0
LWPOLYLINE
  5
117
100
AcDbEntity
  8
0
 62
1
100
AcDbPolyline
 90
4
 70
1
 10
66.947906
 20
154.141190
 30
0.0
 10
80.587038
 20
154.141190
 30
0.0
 10
80.587038
 20
140.502058
 30
0.0
 10
66.947906
 20
140.502058
 30
0.0
  0
LWPOLYLINE
  5
118
100
AcDbEntity
  8
0
 62
1
100
AcDbPolyline
 90
4
 70
1
 10
83.721031
 20
154.141190
 30
0.0
 10
97.360163
 20
154.141190
 30
0.0
 10
97.360163
 20
140.502058
 30
0.0
 10
83.721031
 20
140.502058
 30
0.0
  0
LWPOLYLINE
  5
119
100
AcDbEntity
  8
0
 62
1
100
AcDbPolyline
 90
4
 70
1
 10
99.279648
 20
154.141190
 30
0.0
 10
112.918780
 20
154.141190
 30
0.0
 10
112.918780
 20
140.502058
 30
0.0
 10
99.279648
 20
140.502058
 30
0.0
  0
LWPOLYLINE
  5
11a
100
AcDbEntity
  8
0
 62
1
100
AcDbPolyline
 90
4
 70
1
 10
115.242940
 20
154.141190
 30
0.0
 10
128.882072
 20
154.141190
 30
0.0
 10
128.882072
 20
140.502058
 30
0.0
 10
115.242940
 20
140.502058
 30
0.0
  0
LWPOLYLINE
  5
11b
100
AcDbEntity
  8
0
 62
1
100
AcDbPolyline
 90
4
 70
1
 10
131.026640
 20
154.141190
 30
0.0
 10
144.665772
 20
154.141190
 30
0.0
 10
144.665772
 20
140.502058
 30
0.0
 10
131.026640
 20
140.502058
 30
0.0
  0
LWPOLYLINE
  5
11c
100
AcDbEntity
  8
0
 62
1
100
AcDbPolyline
 90
4
 70
1
 10
147.572360
 20
154.141190
 30
0.0
 10
161.211492
 20
154.141190
 30
0.0
 10
161.211492
 20
140.502058
 30
0.0
 10
147.572360
 20
140.502058
 30
0.0
  0
LWPOLYLINE
  5
11d
100
AcDbEntity
  8
0
 62
1
100
AcDbPolyline
 90
4
 70
1
 10
162.978130
 20
154.141190
 30
0.0
 10
176.617262
 20
154.141190
 30
0.0
 10
176.617262
 20
140.502058
 30
0.0
 10
162.978130
 20
140.502058
 30
0.0
  0
LWPOLYLINE
  5
11e
100
AcDbEntity
  8
0
 62
1
100
AcDbPolyline
 90
4
 70
1
 10
178.979430
 20
154.141190
 30
0.0
 10
192.618562
 20
154.141190
 30
0.0
 10
192.618562
 20
140.502058
 30
0.0
 10
178.979430
 20
140.502058
 30
0.0
  0
LWPOLYLINE
  5
11f
100
AcDbEntity
  8
0
 62
1
100
AcDbPolyline
 90
4
 70
1
 10
50.463974
 20
154.141190
 30
0.0
 10
64.103106
 20
154.141190
 30
0.0
 10
64.103106
 20
140.502058
 30
0.0
 10
50.463974
 20
140.502058
 30
0.0
  0
LWPOLYLINE
  5
120
100
AcDbEntity
  8
0
 62
1
100
AcDbPolyline
 90
4
 70
1
 10
34.847614
 20
154.141190
 30
0.0
 10
48.486746
 20
154.141190
 30
0.0
 10
48.486746
 20
140.502058
 30
0.0
 10
34.847614
 20
140.502058
 30
0.0
  0
LWPOLYLINE
  5
121
100
AcDbEntity
  8
0
 62
1
100
AcDbPolyline
 90
4
 70
1
 10
19.406878
 20
136.828644
 30
0.0
 10
33.046010
 20
136.828644
 30
0.0
 10
33.046010
 20
123.189512
 30
0.0
 10
19.406878
 20
123.189512
 30
0.0
  0
LWPOLYLINE
  5
122
100
AcDbEntity
  8
0
 62
1
100
AcDbPolyline
 90
4
 70
1
 10
66.947906
 20
136.828644
 30
0.0
 10
80.587038
 20
136.828644
 30
0.0
 10
80.587038
 20
123.189512
 30
0.0
 10
66.947906
 20
123.189512
 30
0.0
  0
LWPOLYLINE
  5
123
100
AcDbEntity
  8
0
 62
1
100
AcDbPolyline
 90
4
 70
1
 10
83.721031
 20
136.828644
 30
0.0
 10
97.360163
 20
136.828644
 30
0.0
 10
97.360163
 20
123.189512
 30
0.0
 10
83.721031
 20
123.189512
 30
0.0
  0
LWPOLYLINE
  5
124
100
AcDbEntity
  8
0
 62
1
100
AcDbPolyline
 90
4
 70
1
 10
99.279648
 20
136.828644
 30
0.0
 10
112.918780
 20
136.828644
 30
0.0
 10
112.918780
 20
123.189512
 30
0.0
 10
99.279648
 20
123.189512
 30
0.0
  0
LWPOLYLINE
  5
125
100
AcDbEntity
  8
0
 62
1
100
AcDbPolyline
 90
4
 70
1
 10
115.242940
 20
136.828644
 30
0.0
 10
128.882072
 20
136.828644
 30
0.0
 10
128.882072
 20
123.189512
 30
0.0
 10
115.242940
 20
123.189512
 30
0.0
  0
LWPOLYLINE
  5
126
100
AcDbEntity
  8
0
 62
1
100
AcDbPolyline
 90
4
 70
1
 10
131.026640
 20
136.828644
 30
0.0
 10
144.665772
 20
136.828644
 30
0.0
 10
144.665772
 20
123.189512
 30
0.0
 10
131.026640
 20
123.189512
 30
0.0
  0
LWPOLYLINE
  5
127
100
AcDbEntity
  8
0
 62
1
100
AcDbPolyline
 90
4
 70
1
 10
147.572360
 20
136.828644
 30
0.0
 10
161.211492
 20
136.828644
 30
0.0
 10
161.211492
 20
123.189512
 30
0.0
 10
147.572360
 20
123.189512
 30
0.0
  0
LWPOLYLINE
  5
128
100
AcDbEntity
  8
0
 62
1
100
AcDbPolyline
 90
4
 70
1
 10
162.978130
 20
136.828644
 30
0.0
 10
176.617262
 20
136.828644
 30
0.0
 10
176.617262
 20
123.189512
 30
0.0
 10
162.978130
 20
123.189512
 30
0.0
  0
LWPOLYLINE
  5
129
100
AcDbEntity
  8
0
 62
1
100
AcDbPolyline
 90
4
 70
1
 10
178.979430
 20
136.828644
 30
0.0
 10
192.618562
 20
136.828644
 30
0.0
 10
192.618562
 20
123.189512
 30
0.0
 10
178.979430
 20
123.189512
 30
0.0
  0
LWPOLYLINE
  5
12a
100
AcDbEntity
  8
0
 62
1
100
AcDbPolyline
 90
4
 70
1
 10
34.847614
 20
136.828644
 30
0.0
 10
48.486746
 20
136.828644
 30
0.0
 10
48.486746
 20
123.189512
 30
0.0
 10
34.847614
 20
123.189512
 30
0.0
  0
LWPOLYLINE
  5
12b
100
AcDbEntity
  8
0
 62
1
100
AcDbPolyline
 90
4
 70
1
 10
50.463974
 20
136.828644
 30
0.0
 10
64.103106
 20
136.828644
 30
0.0
 10
64.103106
 20
123.189512
 30
0.0
 10
50.463974
 20
123.189512
 30
0.0
  0
LWPOLYLINE
  5
12c
100
AcDbEntity
  8
0
 62
1
100
AcDbPolyline
 90
4
 70
1
 10
19.406878
 20
119.414604
 30
0.0
 10
33.046010
 20
119.414604
 30
0.0
 10
33.046010
 20
105.775472
 30
0.0
 10
19.406878
 20
105.775472
 30
0.0
  0
LWPOLYLINE
  5
12d
100
AcDbEntity
  8
0
 62
1
100
AcDbPolyline
 90
4
 70
1
 10
66.947906
 20
119.414604
 30
0.0
 10
80.587038
 20
119.414604
 30
0.0
 10
80.587038
 20
105.775472
 30
0.0
 10
66.947906
 20
105.775472
 30
0.0
  0
LWPOLYLINE
  5
12e
100
AcDbEntity
  8
0
 62
1
100
AcDbPolyline
 90
4
 70
1
 10
83.721031
 20
119.414604
 30
0.0
 10
97.360163
 20
119.414604
 30
0.0
 10
97.360163
 20
105.775472
 30
0.0
 10
83.721031
 20
105.775472
 30
0.0
  0
LWPOLYLINE
  5
12f
100
AcDbEntity
  8
0
 62
1
100
AcDbPolyline
 90
4
 70
1
 10
99.279648
 20
119.414604
 30
0.0
 10
112.918780
 20
119.414604
 30
0.0
 10
112.918780
 20
105.775472
 30
0.0
 10
99.279648
 20
105.775472
 30
0.0
  0
LWPOLYLINE
  5
130
100
AcDbEntity
  8
0
 62
1
100
AcDbPolyline
 90
4
 70
1
 10
115.242940
 20
119.414604
 30
0.0
 10
128.882072
 20
119.414604
 30
0.0
 10
128.882072
 20
105.775472
 30
0.0
 10
115.242940
 20
105.775472
 30
0.0
  0
LWPOLYLINE
  5
131
100
AcDbEntity
  8
0
 62
1
100
AcDbPolyline
 90
4
 70
1
 10
131.026640
 20
119.414604
 30
0.0
 10
144.665772
 20
119.414604
 30
0.0
 10
144.665772
 20
105.775472
 30
0.0
 10
131.026640
 20
105.775472
 30
0.0
  0
LWPOLYLINE
  5
132
100
AcDbEntity
  8
0
 62
1
100
AcDbPolyline
 90
4
 70
1
 10
147.572360
 20
119.414604
 30
0.0
 10
161.211492
 20
119.414604
 30
0.0
 10
161.211492
 20
105.775472
 30
0.0
 10
147.572360
 20
105.775472
 30
0.0
  0
LWPOLYLINE
  5
133
100
AcDbEntity
  8
0
 62
1
100
AcDbPolyline
 90
4
 70
1
 10
162.978130
 20
119.414604
 30
0.0
 10
176.617262
 20
119.414604
 30
0.0
 10
176.617262
 20
105.775472
 30
0.0
 10
162.978130
 20
105.775472
 30
0.0
  0
LWPOLYLINE
  5
134
100
AcDbEntity
  8
0
 62
1
100
AcDbPolyline
 90
4
 70
1
 10
178.979430
 20
119.414604
 30
0.0
 10
192.618562
 20
119.414604
 30
0.0
 10
192.618562
 20
105.775472
 30
0.0
 10
178.979430
 20
105.775472
 30
0.0
  0
LWPOLYLINE
  5
135
100
AcDbEntity
  8
0
 62
1
100
AcDbPolyline
 90
4
 70
1
 10
34.847614
 20
119.414604
 30
0.0
 10
48.486746
 20
119.414604
 30
0.0
 10
48.486746
 20
105.775472
 30
0.0
 10
34.847614
 20
105.775472
 30
0.0
  0
LWPOLYLINE
  5
136
100
AcDbEntity
  8
0
 62
1
100
AcDbPolyline
 90
4
 70
1
 10
50.463974
 20
119.414604
 30
0.0
 10
64.103106
 20
119.414604
 30
0.0
 10
64.103106
 20
105.775472
 30
0.0
 10
50.463974
 20
105.775472
 30
0.0
  0
LWPOLYLINE
  5
137
100
AcDbEntity
  8
0
 62
1
100
AcDbPolyline
 90
4
 70
1
 10
19.406878
 20
101.763820
 30
0.0
 10
33.046010
 20
101.763820
 30
0.0
 10
33.046010
 20
88.124688
 30
0.0
 10
19.406878
 20
88.124688
 30
0.0
  0
LWPOLYLINE
  5
138
100
AcDbEntity
  8
0
 62
1
100
AcDbPolyline
 90
4
 70
1
 10
66.947906
 20
101.763820
 30
0.0
 10
80.587038
 20
101.763820
 30
0.0
 10
80.587038
 20
88.124688
 30
0.0
 10
66.947906
 20
88.124688
 30
0.0
  0
LWPOLYLINE
  5
139
100
AcDbEntity
  8
0
 62
1
100
AcDbPolyline
 90
4
 70
1
 10
83.721031
 20
101.763820
 30
0.0
 10
97.360163
 20
101.763820
 30
0.0
 10
97.360163
 20
88.124688
 30
0.0
 10
83.721031
 20
88.124688
 30
0.0
  0
LWPOLYLINE
  5
13a
100
AcDbEntity
  8
0
 62
1
100
AcDbPolyline
 90
4
 70
1
 10
99.279648
 20
101.763820
 30
0.0
 10
112.918780
 20
101.763820
 30
0.0
 10
112.918780
 20
88.124688
 30
0.0
 10
99.279648
 20
88.124688
 30
0.0
  0
LWPOLYLINE
  5
13b
100
AcDbEntity
  8
0
 62
1
100
AcDbPolyline
 90
4
 70
1
 10
131.026640
 20
101.763820
 30
0.0
 10
144.665772
 20
101.763820
 30
0.0
 10
144.665772
 20
88.124688
 30
0.0
 10
131.026640
 20
88.124688
 30
0.0
  0
LWPOLYLINE
  5
13c
100
AcDbEntity
  8
0
 62
1
100
AcDbPolyline
 90
4
 70
1
 10
147.572360
 20
101.763810
 30
0.0
 10
161.211492
 20
101.763810
 30
0.0
 10
161.211492
 20
88.124678
 30
0.0
 10
147.572360
 20
88.124678
 30
0.0
  0
LWPOLYLINE
  5
13d
100
AcDbEntity
  8
0
 62
1
100
AcDbPolyline
 90
4
 70
1
 10
162.978130
 20
101.763820
 30
0.0
 10
176.617262
 20
101.763820
 30
0.0
 10
176.617262
 20
88.124688
 30
0.0
 10
162.978130
 20
88.124688
 30
0.0
  0
LWPOLYLINE
  5
13e
100
AcDbEntity
  8
0
 62
1
100
AcDbPolyline
 90
4
 70
1
 10
178.979430
 20
101.763820
 30
0.0
 10
192.618562
 20
101.763820
 30
0.0
 10
192.618562
 20
88.124688
 30
0.0
 10
178.979430
 20
88.124688
 30
0.0
  0
LWPOLYLINE
  5
13f
100
AcDbEntity
  8
0
 62
1
100
AcDbPolyline
 90
4
 70
1
 10
34.847614
 20
101.763820
 30
0.0
 10
48.486746
 20
101.763820
 30
0.0
 10
48.486746
 20
88.124688
 30
0.0
 10
34.847614
 20
88.124688
 30
0.0
  0
LWPOLYLINE
  5
140
100
AcDbEntity
  8
0
 62
1
100
AcDbPolyline
 90
4
 70
1
 10
50.463974
 20
101.763820
 30
0.0
 10
64.103106
 20
101.763820
 30
0.0
 10
64.103106
 20
88.124688
 30
0.0
 10
50.463974
 20
88.124688
 30
0.0
  0
LWPOLYLINE
  5
141
100
AcDbEntity
  8
0
 62
1
100
AcDbPolyline
 90
4
 70
1
 10
115.242940
 20
101.763820
 30
0.0
 10
128.882072
 20
101.763820
 30
0.0
 10
128.882072
 20
88.124688
 30
0.0
 10
115.242940
 20
88.124688
 30
0.0
  0
LWPOLYLINE
  5
142
100
AcDbEntity
  8
0
 62
1
100
AcDbPolyline
 90
4
 70
1
 10
19.406878
 20
84.325970
 30
0.0
 10
33.046010
 20
84.325970
 30
0.0
 10
33.046010
 20
70.686838
 30
0.0
 10
19.406878
 20
70.686838
 30
0.0
  0
LWPOLYLINE
  5
143
100
AcDbEntity
  8
0
 62
1
100
AcDbPolyline
 90
4
 70
1
 10
66.947906
 20
84.325970
 30
0.0
 10
80.587038
 20
84.325970
 30
0.0
 10
80.587038
 20
70.686838
 30
0.0
 10
66.947906
 20
70.686838
 30
0.0
  0
LWPOLYLINE
  5
144
100
AcDbEntity
  8
0
 62
1
100
AcDbPolyline
 90
4
 70
1
 10
83.721031
 20
84.325970
 30
0.0
 10
97.360163
 20
84.325970
 30
0.0
 10
97.360163
 20
70.686838
 30
0.0
 10
83.721031
 20
70.686838
 30
0.0
  0
LWPOLYLINE
  5
145
100
AcDbEntity
  8
0
 62
1
100
AcDbPolyline
 90
4
 70
1
 10
99.279648
 20
84.325970
 30
0.0
 10
112.918780
 20
84.325970
 30
0.0
 10
112.918780
 20
70.686838
 30
0.0
 10
99.279648
 20
70.686838
 30
0.0
  0
LWPOLYLINE
  5
146
100
AcDbEntity
  8
0
 62
1
100
AcDbPolyline
 90
4
 70
1
 10
115.242940
 20
84.325970
 30
0.0
 10
128.882072
 20
84.325970
 30
0.0
 10
128.882072
 20
70.686838
 30
0.0
 10
115.242940
 20
70.686838
 30
0.0
  0
LWPOLYLINE
  5
147
100
AcDbEntity
  8
0
 62
1
100
AcDbPolyline
 90
4
 70
1
 10
131.026640
 20
84.325970
 30
0.0
 10
144.665772
 20
84.325970
 30
0.0
 10
144.665772
 20
70.686838
 30
0.0
 10
131.026640
 20
70.686838
 30
0.0
  0
LWPOLYLINE
  5
148
100
AcDbEntity
  8
0
 62
1
100
AcDbPolyline
 90
4
 70
1
 10
147.572360
 20
84.325970
 30
0.0
 10
161.211492
 20
84.325970
 30
0.0
 10
161.211492
 20
70.686838
 30
0.0
 10
147.572360
 20
70.686838
 30
0.0
  0
LWPOLYLINE
  5
149
100
AcDbEntity
  8
0
 62
1
100
AcDbPolyline
 90
4
 70
1
 10
162.978130
 20
84.325970
 30
0.0
 10
176.617262
 20
84.325970
 30
0.0
 10
176.617262
 20
70.686838
 30
0.0
 10
162.978130
 20
70.686838
 30
0.0
  0
LWPOLYLINE
  5
14a
100
AcDbEntity
  8
0
 62
1
100
AcDbPolyline
 90
4
 70
1
 10
178.979430
 20
84.325970
 30
0.0
 10
192.618562
 20
84.325970
 30
0.0
 10
192.618562
 20
70.686838
 30
0.0
 10
178.979430
 20
70.686838
 30
0.0
  0
LWPOLYLINE
  5
14b
100
AcDbEntity
  8
0
 62
1
100
AcDbPolyline
 90
4
 70
1
 10
50.463974
 20
84.325970
 30
0.0
 10
64.103106
 20
84.325970
 30
0.0
 10
64.103106
 20
70.686838
 30
0.0
 10
50.463974
 20
70.686838
 30
0.0
  0
LWPOLYLINE
  5
14c
100
AcDbEntity
  8
0
 62
1
100
AcDbPolyline
 90
4
 70
1
 10
34.847614
 20
84.325970
 30
0.0
 10
48.486746
 20
84.325970
 30
0.0
 10
48.486746
 20
70.686838
 30
0.0
 10
34.847614
 20
70.686838
 30
0.0
  0
LWPOLYLINE
  5
14d
100
AcDbEntity
  8
0
 62
1
100
AcDbPolyline
 90
4
 70
1
 10
19.406878
 20
66.791000
 30
0.0
 10
33.046010
 20
66.791000
 30
0.0
 10
33.046010
 20
53.151868
 30
0.0
 10
19.406878
 20
53.151868
 30
0.0
  0
LWPOLYLINE
  5
14e
100
AcDbEntity
  8
0
 62
1
100
AcDbPolyline
 90
4
 70
1
 10
66.947906
 20
66.791000
 30
0.0
 10
80.587038
 20
66.791000
 30
0.0
 10
80.587038
 20
53.151868
 30
0.0
 10
66.947906
 20
53.151868
 30
0.0
  0
LWPOLYLINE
  5
14f
100
AcDbEntity
  8
0
 62
1
100
AcDbPolyline
 90
4
 70
1
 10
83.721031
 20
66.791000
 30
0.0
 10
97.360163
 20
66.791000
 30
0.0
 10
97.360163
 20
53.151868
 30
0.0
 10
83.721031
 20
53.151868
 30
0.0
  0
LWPOLYLINE
  5
150
100
AcDbEntity
  8
0
 62
1
100
AcDbPolyline
 90
4
 70
1
 10
99.279648
 20
66.791000
 30
0.0
 10
112.918780
 20
66.791000
 30
0.0
 10
112.918780
 20
53.151868
 30
0.0
 10
99.279648
 20
53.151868
 30
0.0
  0
LWPOLYLINE
  5
151
100
AcDbEntity
  8
0
 62
1
100
AcDbPolyline
 90
4
 70
1
 10
115.242940
 20
66.791000
 30
0.0
 10
128.882072
 20
66.791000
 30
0.0
 10
128.882072
 20
53.151868
 30
0.0
 10
115.242940
 20
53.151868
 30
0.0
  0
LWPOLYLINE
  5
152
100
AcDbEntity
  8
0
 62
1
100
AcDbPolyline
 90
4
 70
1
 10
131.026640
 20
66.791000
 30
0.0
 10
144.665772
 20
66.791000
 30
0.0
 10
144.665772
 20
53.151868
 30
0.0
 10
131.026640
 20
53.151868
 30
0.0
  0
LWPOLYLINE
  5
153
100
AcDbEntity
  8
0
 62
1
100
AcDbPolyline
 90
4
 70
1
 10
148.101520
 20
66.791000
 30
0.0
 10
161.740652
 20
66.791000
 30
0.0
 10
161.740652
 20
53.151868
 30
0.0
 10
148.101520
 20
53.151868
 30
0.0
  0
LWPOLYLINE
  5
154
100
AcDbEntity
  8
0
 62
1
100
AcDbPolyline
 90
4
 70
1
 10
162.978130
 20
66.791000
 30
0.0
 10
176.617262
 20
66.791000
 30
0.0
 10
176.617262
 20
53.151868
 30
0.0
 10
162.978130
 20
53.151868
 30
0.0
  0
LWPOLYLINE
  5
155
100
AcDbEntity
  8
0
 62
1
100
AcDbPolyline
 90
4
 70
1
 10
178.979430
 20
66.791000
 30
0.0
 10
192.618562
 20
66.791000
 30
0.0
 10
192.618562
 20
53.151868
 30
0.0
 10
178.979430
 20
53.151868
 30
0.0
  0
LWPOLYLINE
  5
156
100
AcDbEntity
  8
0
 62
1
100
AcDbPolyline
 90
4
 70
1
 10
34.847614
 20
66.791000
 30
0.0
 10
48.486746
 20
66.791000
 30
0.0
 10
48.486746
 20
53.151868
 30
0.0
 10
34.847614
 20
53.151868
 30
0.0
  0
LWPOLYLINE
  5
157
100
AcDbEntity
  8
0
 62
1
100
AcDbPolyline
 90
4
 70
1
 10
50.463974
 20
66.791000
 30
0.0
 10
64.103106
 20
66.791000
 30
0.0
 10
64.103106
 20
53.151868
 30
0.0
 10
50.463974
 20
53.151868
 30
0.0
  0
LWPOLYLINE
  5
158
100
AcDbEntity
  8
0
 62
1
100
AcDbPolyline
 90
4
 70
1
 10
66.947906
 20
49.153780
 30
0.0
 10
80.587038
 20
49.153780
 30
0.0
 10
80.587038
 20
35.514648
 30
0.0
 10
66.947906
 20
35.514648
 30
0.0
  0
LWPOLYLINE
  5
159
100
AcDbEntity
  8
0
 62
1
100
AcDbPolyline
 90
4
 70
1
 10
99.279648
 20
49.153780
 30
0.0
 10
112.918780
 20
49.153780
 30
0.0
 10
112.918780
 20
35.514648
 30
0.0
 10
99.279648
 20
35.514648
 30
0.0
  0
LWPOLYLINE
  5
15a
100
AcDbEntity
  8
0
 62
1
100
AcDbPolyline
 90
4
 70
1
 10
115.242940
 20
49.153780
 30
0.0
 10
128.882072
 20
49.153780
 30
0.0
 10
128.882072
 20
35.514648
 30
0.0
 10
115.242940
 20
35.514648
 30
0.0
  0
LWPOLYLINE
  5
15b
100
AcDbEntity
  8
0
 62
1
100
AcDbPolyline
 90
4
 70
1
 10
131.026640
 20
49.153780
 30
0.0
 10
144.665772
 20
49.153780
 30
0.0
 10
144.665772
 20
35.514648
 30
0.0
 10
131.026640
 20
35.514648
 30
0.0
  0
LWPOLYLINE
  5
15c
100
AcDbEntity
  8
0
 62
1
100
AcDbPolyline
 90
4
 70
1
 10
147.572360
 20
49.153780
 30
0.0
 10
161.211492
 20
49.153780
 30
0.0
 10
161.211492
 20
35.514648
 30
0.0
 10
147.572360
 20
35.514648
 30
0.0
  0
LWPOLYLINE
  5
15d
100
AcDbEntity
  8
0
 62
1
100
AcDbPolyline
 90
4
 70
1
 10
162.978130
 20
49.153780
 30
0.0
 10
176.617262
 20
49.153780
 30
0.0
 10
176.617262
 20
35.514648
 30
0.0
 10
162.978130
 20
35.514648
 30
0.0
  0
LWPOLYLINE
  5
15e
100
AcDbEntity
  8
0
 62
1
100
AcDbPolyline
 90
4
 70
1
 10
34.847614
 20
49.153780
 30
0.0
 10
48.486746
 20
49.153780
 30
0.0
 10
48.486746
 20
35.514648
 30
0.0
 10
34.847614
 20
35.514648
 30
0.0
  0
LWPOLYLINE
  5
15f
100
AcDbEntity
  8
0
 62
1
100
AcDbPolyline
 90
4
 70
1
 10
50.463974
 20
49.153780
 30
0.0
 10
64.103106
 20
49.153780
 30
0.0
 10
64.103106
 20
35.514648
 30
0.0
 10
50.463974
 20
35.514648
 30
0.0
  0
LWPOLYLINE
  5
160
100
AcDbEntity
  8
0
 62
1
100
AcDbPolyline
 90
4
 70
1
 10
19.406878
 20
49.153780
 30
0.0
 10
33.046010
 20
49.153780
 30
0.0
 10
33.046010
 20
35.514648
 30
0.0
 10
19.406878
 20
35.514648
 30
0.0
  0
LWPOLYLINE
  5
161
100
AcDbEntity
  8
0
 62
1
100
AcDbPolyline
 90
4
 70
1
 10
83.721031
 20
49.153780
 30
0.0
 10
97.360163
 20
49.153780
 30
0.0
 10
97.360163
 20
35.514648
 30
0.0
 10
83.721031
 20
35.514648
 30
0.0
  0
LWPOLYLINE
  5
162
100
AcDbEntity
  8
0
 62
1
100
AcDbPolyline
 90
4
 70
1
 10
178.979430
 20
49.153780
 30
0.0
 10
192.618562
 20
49.153780
 30
0.0
 10
192.618562
 20
35.514648
 30
0.0
 10
178.979430
 20
35.514648
 30
0.0
  0
LWPOLYLINE
  5
163
100
AcDbEntity
  8
0
 62
1
100
AcDbPolyline
 90
4
 70
1
 10
19.406878
 20
31.465440
 30
0.0
 10
33.046010
 20
31.465440
 30
0.0
 10
33.046010
 20
17.826308
 30
0.0
 10
19.406878
 20
17.826308
 30
0.0
  0
LWPOLYLINE
  5
164
100
AcDbEntity
  8
0
 62
1
100
AcDbPolyline
 90
4
 70
1
 10
66.947906
 20
31.465440
 30
0.0
 10
80.587038
 20
31.465440
 30
0.0
 10
80.587038
 20
17.826308
 30
0.0
 10
66.947906
 20
17.826308
 30
0.0
  0
LWPOLYLINE
  5
165
100
AcDbEntity
  8
0
 62
1
100
AcDbPolyline
 90
4
 70
1
 10
83.721031
 20
31.465440
 30
0.0
 10
97.360163
 20
31.465440
 30
0.0
 10
97.360163
 20
17.826308
 30
0.0
 10
83.721031
 20
17.826308
 30
0.0
  0
LWPOLYLINE
  5
166
100
AcDbEntity
  8
0
 62
1
100
AcDbPolyline
 90
4
 70
1
 10
99.279648
 20
31.465440
 30
0.0
 10
112.918780
 20
31.465440
 30
0.0
 10
112.918780
 20
17.826308
 30
0.0
 10
99.279648
 20
17.826308
 30
0.0
  0
LWPOLYLINE
  5
167
100
AcDbEntity
  8
0
 62
1
100
AcDbPolyline
 90
4
 70
1
 10
115.242940
 20
31.465440
 30
0.0
 10
128.882072
 20
31.465440
 30
0.0
 10
128.882072
 20
17.826308
 30
0.0
 10
115.242940
 20
17.826308
 30
0.0
  0
LWPOLYLINE
  5
168
100
AcDbEntity
  8
0
 62
1
100
AcDbPolyline
 90
4
 70
1
 10
131.026640
 20
31.465440
 30
0.0
 10
144.665772
 20
31.465440
 30
0.0
 10
144.665772
 20
17.826308
 30
0.0
 10
131.026640
 20
17.826308
 30
0.0
  0
LWPOLYLINE
  5
169
100
AcDbEntity
  8
0
 62
1
100
AcDbPolyline
 90
4
 70
1
 10
147.572360
 20
31.465440
 30
0.0
 10
161.211492
 20
31.465440
 30
0.0
 10
161.211492
 20
17.826308
 30
0.0
 10
147.572360
 20
17.826308
 30
0.0
  0
LWPOLYLINE
  5
16a
100
AcDbEntity
  8
0
 62
1
100
AcDbPolyline
 90
4
 70
1
 10
162.978130
 20
31.465440
 30
0.0
 10
176.617262
 20
31.465440
 30
0.0
 10
176.617262
 20
17.826308
 30
0.0
 10
162.978130
 20
17.826308
 30
0.0
  0
LWPOLYLINE
  5
16b
100
AcDbEntity
  8
0
 62
1
100
AcDbPolyline
 90
4
 70
1
 10
178.979430
 20
31.465440
 30
0.0
 10
192.618562
 20
31.465440
 30
0.0
 10
192.618562
 20
17.826308
 30
0.0
 10
178.979430
 20
17.826308
 30
0.0
  0
LWPOLYLINE
  5
16c
100
AcDbEntity
  8
0
 62
1
100
AcDbPolyline
 90
4
 70
1
 10
34.847614
 20
31.465440
 30
0.0
 10
48.486746
 20
31.465440
 30
0.0
 10
48.486746
 20
17.826308
 30
0.0
 10
34.847614
 20
17.826308
 30
0.0
  0
SPLINE
  5
16d
100
AcDbEntity
  8
0
 62
1
100
AcDbSpline
 70
8
 71
3
 72
8
 73
4
 74
0
 40
0
 40
0
 40
0
 40
0
 40
1
 40
1
 40
1
 40
1
 10
12.254489
 20
203.890723
 30
0.0
 10
10.258582
 20
203.890723
 30
0.0
 10
8.459205
 20
202.688418
 30
0.0
 10
7.695404
 20
200.844440
 30
0.0
  0
SPLINE
  5
16e
100
AcDbEntity
  8
0
 62
1
100
AcDbSpline
 70
8
 71
3
 72
8
 73
4
 74
0
 40
0
 40
0
 40
0
 40
0
 40
1
 40
1
 40
1
 40
1
 10
7.695404
 20
200.844440
 30
0.0
 10
6.931603
 20
199.000462
 30
0.0
 10
7.353797
 20
196.877952
 30
0.0
 10
8.765116
 20
195.466632
 30
0.0
  0
SPLINE
  5
16f
100
AcDbEntity
  8
0
 62
1
100
AcDbSpline
 70
8
 71
3
 72
8
 73
4
 74
0
 40
0
 40
0
 40
0
 40
0
 40
1
 40
1
 40
1
 40
1
 10
8.765116
 20
195.466632
 30
0.0
 10
10.176436
 20
194.055313
 30
0.0
 10
12.298946
 20
193.633119
 30
0.0
 10
14.142924
 20
194.396920
 30
0.0
  0
SPLINE
  5
170
100
AcDbEntity
  8
0
 62
1
100
AcDbSpline
 70
8
 71
3
 72
8
 73
4
 74
0
 40
0
 40
0
 40
0
 40
0
 40
1
 40
1
 40
1
 40
1
 10
14.142924
 20
194.396920
 30
0.0
 10
15.986902
 20
195.160721
 30
0.0
 10
17.189207
 20
196.960098
 30
0.0
 10
17.189207
 20
198.956005
 30
0.0
  0
SPLINE
  5
171
100
AcDbEntity
  8
0
 62
1
100
AcDbSpline
 70
8
 71
3
 72
8
 73
4
 74
0
 40
0
 40
0
 40
0
 40
0
 40
1
 40
1
 40
1
 40
1
 10
17.189207
 20
198.956005
 30
0.0
 10
17.189207
 20
200.264774
 30
0.0
 10
16.669301
 20
201.519938
 30
0.0
 10
15.743862
 20
202.445378
 30
0.0
  0
SPLINE
  5
172
100
AcDbEntity
  8
0
 62
1
100
AcDbSpline
 70
8
 71
3
 72
8
 73
4
 74
0
 40
0
 40
0
 40
0
 40
0
 40
1
 40
1
 40
1
 40
1
 10
15.743862
 20
202.445378
 30
0.0
 10
14.818422
 20
203.370817
 30
0.0
 10
13.563258
 20
203.890723
 30
0.0
 10
12.254489
 20
203.890723
 30
0.0
  0
LWPOLYLINE
  5
173
100
AcDbEntity
  8
0
 62
1
100
AcDbPolyline
 90
4
 70
1
 10
50.463974
 20
31.465440
 30
0.0
 10
64.103106
 20
31.465440
 30
0.0
 10
64.103106
 20
17.826308
 30
0.0
 10
50.463974
 20
17.826308
 30
0.0
  0
SPLINE
  5
174
100
AcDbEntity
  8
0
 62
1
100
AcDbSpline
 70
8
 71
3
 72
8
 73
4
 74
0
 40
0
 40
0
 40
0
 40
0
 40
1
 40
1
 40
1
 40
1
 10
199.820430
 20
204.741842
 30
0.0
 10
197.824523
 20
204.741842
 30
0.0
 10
196.025146
 20
203.539537
 30
0.0
 10
195.261345
 20
201.695559
 30
0.0
  0
SPLINE
  5
175
100
AcDbEntity
  8
0
 62
1
100
AcDbSpline
 70
8
 71
3
 72
8
 73
4
 74
0
 40
0
 40
0
 40
0
 40
0
 40
1
 40
1
 40
1
 40
1
 10
195.261345
 20
201.695559
 30
0.0
 10
194.497544
 20
199.851581
 30
0.0
 10
194.919738
 20
197.729071
 30
0.0
 10
196.331057
 20
196.317751
 30
0.0
  0
SPLINE
  5
176
100
AcDbEntity
  8
0
 62
1
100
AcDbSpline
 70
8
 71
3
 72
8
 73
4
 74
0
 40
0
 40
0
 40
0
 40
0
 40
1
 40
1
 40
1
 40
1
 10
196.331057
 20
196.317751
 30
0.0
 10
197.742377
 20
194.906432
 30
0.0
 10
199.864887
 20
194.484238
 30
0.0
 10
201.708865
 20
195.248039
 30
0.0
  0
SPLINE
  5
177
100
AcDbEntity
  8
0
 62
1
100
AcDbSpline
 70
8
 71
3
 72
8
 73
4
 74
0
 40
0
 40
0
 40
0
 40
0
 40
1
 40
1
 40
1
 40
1
 10
201.708865
 20
195.248039
 30
0.0
 10
203.552843
 20
196.011840
 30
0.0
 10
204.755148
 20
197.811217
 30
0.0
 10
204.755148
 20
199.807124
 30
0.0
  0
SPLINE
  5
178
100
AcDbEntity
  8
0
 62
1
100
AcDbSpline
 70
8
 71
3
 72
8
 73
4
 74
0
 40
0
 40
0
 40
0
 40
0
 40
1
 40
1
 40
1
 40
1
 10
204.755148
 20
199.807124
 30
0.0
 10
204.755148
 20
201.115893
 30
0.0
 10
204.235242
 20
202.371057
 30
0.0
 10
203.309803
 20
203.296497
 30
0.0
  0
SPLINE
  5
179
100
AcDbEntity
  8
0
 62
1
100
AcDbSpline
 70
8
 71
3
 72
8
 73
4
 74
0
 40
0
 40
0
 40
0
 40
0
 40
1
 40
1
 40
1
 40
1
 10
203.309803
 20
203.296497
 30
0.0
 10
202.384363
 20
204.221936
 30
0.0
 10
201.129199
 20
204.741842
 30
0.0
 10
199.820430
 20
204.741842
 30
0.0
  0
LWPOLYLINE
  5
17a
100
AcDbEntity
  8
0
 62
1
100
AcDbPolyline
 90
1
 70
1
 10
12.254489
 20
203.890723
 30
0.0
  0
SPLINE
  5
17b
100
AcDbEntity
  8
0
 62
1
100
AcDbSpline
 70
8
 71
3
 72
8
 73
4
 74
0
 40
0
 40
0
 40
0
 40
0
 40
1
 40
1
 40
1
 40
1
 10
199.436630
 20
16.275688
 30
0.0
 10
197.440723
 20
16.275688
 30
0.0
 10
195.641346
 20
15.073383
 30
0.0
 10
194.877545
 20
13.229405
 30
0.0
  0
SPLINE
  5
17c
100
AcDbEntity
  8
0
 62
1
100
AcDbSpline
 70
8
 71
3
 72
8
 73
4
 74
0
 40
0
 40
0
 40
0
 40
0
 40
1
 40
1
 40
1
 40
1
 10
194.877545
 20
13.229405
 30
0.0
 10
194.113744
 20
11.385427
 30
0.0
 10
194.535938
 20
9.262917
 30
0.0
 10
195.947257
 20
7.851597
 30
0.0
  0
SPLINE
  5
17d
100
AcDbEntity
  8
0
 62
1
100
AcDbSpline
 70
8
 71
3
 72
8
 73
4
 74
0
 40
0
 40
0
 40
0
 40
0
 40
1
 40
1
 40
1
 40
1
 10
195.947257
 20
7.851597
 30
0.0
 10
197.358577
 20
6.440278
 30
0.0
 10
199.481087
 20
6.018084
 30
0.0
 10
201.325065
 20
6.781885
 30
0.0
  0
SPLINE
  5
17e
100
AcDbEntity
  8
0
 62
1
100
AcDbSpline
 70
8
 71
3
 72
8
 73
4
 74
0
 40
0
 40
0
 40
0
 40
0
 40
1
 40
1
 40
1
 40
1
 10
201.325065
 20
6.781885
 30
0.0
 10
203.169043
 20
7.545686
 30
0.0
 10
204.371348
 20
9.345063
 30
0.0
 10
204.371348
 20
11.340970
 30
0.0
  0
SPLINE
  5
17f
100
AcDbEntity
  8
0
 62
1
100
AcDbSpline
 70
8
 71
3
 72
8
 73
4
 74
0
 40
0
 40
0
 40
0
 40
0
 40
1
 40
1
 40
1
 40
1
 10
204.371348
 20
11.340970
 30
0.0
 10
204.371348
 20
14.066340
 30
0.0
 10
202.162000
 20
16.275688
 30
0.0
 10
199.436630
 20
16.275688
 30
0.0
  0
LWPOLYLINE
  5
180
100
AcDbEntity
  8
0
 62
1
100
AcDbPolyline
 90
1
 70
1
 10
199.820430
 20
204.741842
 30
0.0
  0
SPLINE
  5
181
100
AcDbEntity
  8
0
 62
1
100
AcDbSpline
 70
8
 71
3
 72
8
 73
4
 74
0
 40
0
 40
0
 40
0
 40
0
 40
1
 40
1
 40
1
 40
1
 10
11.795872
 20
16.632058
 30
0.0
 10
9.799965
 20
16.632058
 30
0.0
 10
8.000588
 20
15.429753
 30
0.0
 10
7.236787
 20
13.585775
 30
0.0
  0
SPLINE
  5
182
100
AcDbEntity
  8
0
 62
1
100
AcDbSpline
 70
8
 71
3
 72
8
 73
4
 74
0
 40
0
 40
0
 40
0
 40
0
 40
1
 40
1
 40
1
 40
1
 10
7.236787
 20
13.585775
 30
0.0
 10
6.472986
 20
11.741797
 30
0.0
 10
6.895180
 20
9.619287
 30
0.0
 10
8.306499
 20
8.207967
 30
0.0
  0
SPLINE
  5
183
100
AcDbEntity
  8
0
 62
1
100
AcDbSpline
 70
8
 71
3
 72
8
 73
4
 74
0
 40
0
 40
0
 40
0
 40
0
 40
1
 40
1
 40
1
 40
1
 10
8.306499
 20
8.207967
 30
0.0
 10
9.717819
 20
6.796648
 30
0.0
 10
11.840329
 20
6.374454
 30
0.0
 10
13.684307
 20
7.138255
 30
0.0
  0
SPLINE
  5
184
100
AcDbEntity
  8
0
 62
1
100
AcDbSpline
 70
8
 71
3
 72
8
 73
4
 74
0
 40
0
 40
0
 40
0
 40
0
 40
1
 40
1
 40
1
 40
1
 10
13.684307
 20
7.138255
 30
0.0
 10
15.528285
 20
7.902056
 30
0.0
 10
16.730590
 20
9.701433
 30
0.0
 10
16.730590
 20
11.697340
 30
0.0
  0
SPLINE
  5
185
100
AcDbEntity
  8
0
 62
1
100
AcDbSpline
 70
8
 71
3
 72
8
 73
4
 74
0
 40
0
 40
0
 40
0
 40
0
 40
1
 40
1
 40
1
 40
1
 10
16.730590
 20
11.697340
 30
0.0
 10
16.730590
 20
13.006109
 30
0.0
 10
16.210684
 20
14.261273
 30
0.0
 10
15.285245
 20
15.186713
 30
0.0
  0
SPLINE
  5
186
100
AcDbEntity
  8
0
 62
1
100
AcDbSpline
 70
8
 71
3
 72
8
 73
4
 74
0
 40
0
 40
0
 40
0
 40
0
 40
1
 40
1
 40
1
 40
1
 10
15.285245
 20
15.186713
 30
0.0
 10
14.359805
 20
16.112152
 30
0.0
 10
13.104641
 20
16.632058
 30
0.0
 10
11.795872
 20
16.632058
 30
0.0
  0
LWPOLYLINE
  5
187
100
AcDbEntity
  8
0
 62
1
100
AcDbPolyline
 90
1
 70
1
 10
199.436630
 20
16.275688
 30
0.0
  0
SPLINE
  5
188
100
AcDbEntity
  8
0
 62
1
100
AcDbSpline
 70
8
 71
3
 72
8
 73
4
 74
0
 40
0
 40
0
 40
0
 40
0
 40
1
 40
1
 40
1
 40
1
 10
9.816353
 20
139.296031
 30
0.0
 10
9.816196
 20
138.605437
 30
0.0
 10
10.185982
 20
137.967234
 30
0.0
 10
10.786380
 20
137.621892
 30
0.0
  0
SPLINE
  5
189
100
AcDbEntity
  8
0
 62
1
100
AcDbSpline
 70
8
 71
3
 72
8
 73
4
 74
0
 40
0
 40
0
 40
0
 40
0
 40
1
 40
1
 40
1
 40
1
 10
10.786380
 20
137.621892
 30
0.0
 10
11.386778
 20
137.276549
 30
0.0
 10
12.126544
 20
137.276549
 30
0.0
 10
12.726942
 20
137.621892
 30
0.0
  0
SPLINE
  5
18a
100
AcDbEntity
  8
0
 62
1
100
AcDbSpline
 70
8
 71
3
 72
8
 73
4
 74
0
 40
0
 40
0
 40
0
 40
0
 40
1
 40
1
 40
1
 40
1
 10
12.726942
 20
137.621892
 30
0.0
 10
13.327340
 20
137.967234
 30
0.0
 10
13.697126
 20
138.605437
 30
0.0
 10
13.696969
 20
139.296031
 30
0.0
  0
SPLINE
  5
18b
100
AcDbEntity
  8
0
 62
1
100
AcDbSpline
 70
8
 71
3
 72
8
 73
4
 74
0
 40
0
 40
0
 40
0
 40
0
 40
1
 40
1
 40
1
 40
1
 10
13.696969
 20
139.296031
 30
0.0
 10
13.697126
 20
139.986625
 30
0.0
 10
13.327340
 20
140.624828
 30
0.0
 10
12.726942
 20
140.970170
 30
0.0
  0
SPLINE
  5
18c
100
AcDbEntity
  8
0
 62
1
100
AcDbSpline
 70
8
 71
3
 72
8
 73
4
 74
0
 40
0
 40
0
 40
0
 40
0
 40
1
 40
1
 40
1
 40
1
 10
12.726942
 20
140.970170
 30
0.0
 10
12.126544
 20
141.315513
 30
0.0
 10
11.386778
 20
141.315513
 30
0.0
 10
10.786380
 20
140.970170
 30
0.0
  0
SPLINE
  5
18d
100
AcDbEntity
  8
0
 62
1
100
AcDbSpline
 70
8
 71
3
 72
8
 73
4
 74
0
 40
0
 40
0
 40
0
 40
0
 40
1
 40
1
 40
1
 40
1
 10
10.786380
 20
140.970170
 30
0.0
 10
10.185982
 20
140.624828
 30
0.0
 10
9.816196
 20
139.986625
 30
0.0
 10
9.816353
 20
139.296031
 30
0.0
  0
LWPOLYLINE
  5
18e
100
AcDbEntity
  8
0
 62
1
100
AcDbPolyline
 90
1
 70
1
 10
11.795872
 20
16.632058
 30
0.0
  0
SPLINE
  5
18f
100
AcDbEntity
  8
0
 62
1
100
AcDbSpline
 70
8
 71
3
 72
8
 73
4
 74
0
 40
0
 40
0
 40
0
 40
0
 40
1
 40
1
 40
1
 40
1
 10
9.933283
 20
155.292112
 30
0.0
 10
9.933126
 20
154.601518
 30
0.0
 10
10.302912
 20
153.963315
 30
0.0
 10
10.903310
 20
153.617973
 30
0.0
  0
SPLINE
  5
190
100
AcDbEntity
  8
0
 62
1
100
AcDbSpline
 70
8
 71
3
 72
8
 73
4
 74
0
 40
0
 40
0
 40
0
 40
0
 40
1
 40
1
 40
1
 40
1
 10
10.903310
 20
153.617973
 30
0.0
 10
11.503708
 20
153.272630
 30
0.0
 10
12.243474
 20
153.272630
 30
0.0
 10
12.843872
 20
153.617973
 30
0.0
  0
SPLINE
  5
191
100
AcDbEntity
  8
0
 62
1
100
AcDbSpline
 70
8
 71
3
 72
8
 73
4
 74
0
 40
0
 40
0
 40
0
 40
0
 40
1
 40
1
 40
1
 40
1
 10
12.843872
 20
153.617973
 30
0.0
 10
13.444270
 20
153.963315
 30
0.0
 10
13.814056
 20
154.601518
 30
0.0
 10
13.813899
 20
155.292112
 30
0.0
  0
SPLINE
  5
192
100
AcDbEntity
  8
0
 62
1
100
AcDbSpline
 70
8
 71
3
 72
8
 73
4
 74
0
 40
0
 40
0
 40
0
 40
0
 40
1
 40
1
 40
1
 40
1
 10
13.813899
 20
155.292112
 30
0.0
 10
13.814056
 20
155.982706
 30
0.0
 10
13.444270
 20
156.620909
 30
0.0
 10
12.843872
 20
156.966251
 30
0.0
  0
SPLINE
  5
193
100
AcDbEntity
  8
0
 62
1
100
AcDbSpline
 70
8
 71
3
 72
8
 73
4
 74
0
 40
0
 40
0
 40
0
 40
0
 40
1
 40
1
 40
1
 40
1
 10
12.843872
 20
156.966251
 30
0.0
 10
12.243474
 20
157.311594
 30
0.0
 10
11.503708
 20
157.311594
 30
0.0
 10
10.903310
 20
156.966251
 30
0.0
  0
SPLINE
  5
194
100
AcDbEntity
  8
0
 62
1
100
AcDbSpline
 70
8
 71
3
 72
8
 73
4
 74
0
 40
0
 40
0
 40
0
 40
0
 40
1
 40
1
 40
1
 40
1
 10
10.903310
 20
156.966251
 30
0.0
 10
10.302912
 20
156.620909
 30
0.0
 10
9.933126
 20
155.982706
 30
0.0
 10
9.933283
 20
155.292112
 30
0.0
  0
LWPOLYLINE
  5
195
100
AcDbEntity
  8
0
 62
1
100
AcDbPolyline
 90
1
 70
1
 10
9.816353
 20
139.296031
 30
0.0
  0
SPLINE
  5
196
100
AcDbEntity
  8
0
 62
1
100
AcDbSpline
 70
8
 71
3
 72
8
 73
4
 74
0
 40
0
 40
0
 40
0
 40
0
 40
1
 40
1
 40
1
 40
1
 10
9.823015
 20
174.628829
 30
0.0
 10
9.822858
 20
173.938235
 30
0.0
 10
10.192644
 20
173.300032
 30
0.0
 10
10.793042
 20
172.954690
 30
0.0
  0
SPLINE
  5
197
100
AcDbEntity
  8
0
 62
1
100
AcDbSpline
 70
8
 71
3
 72
8
 73
4
 74
0
 40
0
 40
0
 40
0
 40
0
 40
1
 40
1
 40
1
 40
1
 10
10.793042
 20
172.954690
 30
0.0
 10
11.393440
 20
172.609347
 30
0.0
 10
12.133206
 20
172.609347
 30
0.0
 10
12.733604
 20
172.954690
 30
0.0
  0
SPLINE
  5
198
100
AcDbEntity
  8
0
 62
1
100
AcDbSpline
 70
8
 71
3
 72
8
 73
4
 74
0
 40
0
 40
0
 40
0
 40
0
 40
1
 40
1
 40
1
 40
1
 10
12.733604
 20
172.954690
 30
0.0
 10
13.334002
 20
173.300032
 30
0.0
 10
13.703788
 20
173.938235
 30
0.0
 10
13.703631
 20
174.628829
 30
0.0
  0
SPLINE
  5
199
100
AcDbEntity
  8
0
 62
1
100
AcDbSpline
 70
8
 71
3
 72
8
 73
4
 74
0
 40
0
 40
0
 40
0
 40
0
 40
1
 40
1
 40
1
 40
1
 10
13.703631
 20
174.628829
 30
0.0
 10
13.703788
 20
175.319423
 30
0.0
 10
13.334002
 20
175.957626
 30
0.0
 10
12.733604
 20
176.302968
 30
0.0
  0
SPLINE
  5
19a
100
AcDbEntity
  8
0
 62
1
100
AcDbSpline
 70
8
 71
3
 72
8
 73
4
 74
0
 40
0
 40
0
 40
0
 40
0
 40
1
 40
1
 40
1
 40
1
 10
12.733604
 20
176.302968
 30
0.0
 10
12.133206
 20
176.648311
 30
0.0
 10
11.393440
 20
176.648311
 30
0.0
 10
10.793042
 20
176.302968
 30
0.0
  0
SPLINE
  5
19b
100
AcDbEntity
  8
0
 62
1
100
AcDbSpline
 70
8
 71
3
 72
8
 73
4
 74
0
 40
0
 40
0
 40
0
 40
0
 40
1
 40
1
 40
1
 40
1
 10
10.793042
 20
176.302968
 30
0.0
 10
10.192644
 20
175.957626
 30
0.0
 10
9.822858
 20
175.319423
 30
0.0
 10
9.823015
 20
174.628829
 30
0.0
  0
LWPOLYLINE
  5
19c
100
AcDbEntity
  8
0
 62
1
100
AcDbPolyline
 90
1
 70
1
 10
9.933283
 20
155.292112
 30
0.0
  0
SPLINE
  5
19d
100
AcDbEntity
  8
0
 62
1
100
AcDbSpline
 70
8
 71
3
 72
8
 73
4
 74
0
 40
0
 40
0
 40
0
 40
0
 40
1
 40
1
 40
1
 40
1
 10
9.961259
 20
120.589429
 30
0.0
 10
9.961102
 20
119.898835
 30
0.0
 10
10.330888
 20
119.260632
 30
0.0
 10
10.931286
 20
118.915290
 30
0.0
  0
SPLINE
  5
19e
100
AcDbEntity
  8
0
 62
1
100
AcDbSpline
 70
8
 71
3
 72
8
 73
4
 74
0
 40
0
 40
0
 40
0
 40
0
 40
1
 40
1
 40
1
 40
1
 10
10.931286
 20
118.915290
 30
0.0
 10
11.531684
 20
118.569947
 30
0.0
 10
12.271450
 20
118.569947
 30
0.0
 10
12.871848
 20
118.915290
 30
0.0
  0
SPLINE
  5
19f
100
AcDbEntity
  8
0
 62
1
100
AcDbSpline
 70
8
 71
3
 72
8
 73
4
 74
0
 40
0
 40
0
 40
0
 40
0
 40
1
 40
1
 40
1
 40
1
 10
12.871848
 20
118.915290
 30
0.0
 10
13.472246
 20
119.260632
 30
0.0
 10
13.842032
 20
119.898835
 30
0.0
 10
13.841875
 20
120.589429
 30
0.0
  0
SPLINE
  5
1a0
100
AcDbEntity
  8
0
 62
1
100
AcDbSpline
 70
8
 71
3
 72
8
 73
4
 74
0
 40
0
 40
0
 40
0
 40
0
 40
1
 40
1
 40
1
 40
1
 10
13.841875
 20
120.589429
 30
0.0
 10
13.842032
 20
121.280023
 30
0.0
 10
13.472246
 20
121.918226
 30
0.0
 10
12.871848
 20
122.263568
 30
0.0
  0
SPLINE
  5
1a1
100
AcDbEntity
  8
0
 62
1
100
AcDbSpline
 70
8
 71
3
 72
8
 73
4
 74
0
 40
0
 40
0
 40
0
 40
0
 40
1
 40
1
 40
1
 40
1
 10
12.871848
 20
122.263568
 30
0.0
 10
12.271450
 20
122.608911
 30
0.0
 10
11.531684
 20
122.608911
 30
0.0
 10
10.931286
 20
122.263568
 30
0.0
  0
SPLINE
  5
1a2
100
AcDbEntity
  8
0
 62
1
100
AcDbSpline
 70
8
 71
3
 72
8
 73
4
 74
0
 40
0
 40
0
 40
0
 40
0
 40
1
 40
1
 40
1
 40
1
 10
10.931286
 20
122.263568
 30
0.0
 10
10.330888
 20
121.918226
 30
0.0
 10
9.961102
 20
121.280023
 30
0.0
 10
9.961259
 20
120.589429
 30
0.0
  0
LWPOLYLINE
  5
1a3
100
AcDbEntity
  8
0
 62
1
100
AcDbPolyline
 90
1
 70
1
 10
9.823015
 20
174.628829
 30
0.0
  0
SPLINE
  5
1a4
100
AcDbEntity
  8
0
 62
1
100
AcDbSpline
 70
8
 71
3
 72
8
 73
4
 74
0
 40
0
 40
0
 40
0
 40
0
 40
1
 40
1
 40
1
 40
1
 10
9.823365
 20
104.088450
 30
0.0
 10
9.823208
 20
103.397856
 30
0.0
 10
10.192994
 20
102.759653
 30
0.0
 10
10.793392
 20
102.414311
 30
0.0
  0
SPLINE
  5
1a5
100
AcDbEntity
  8
0
 62
1
100
AcDbSpline
 70
8
 71
3
 72
8
 73
4
 74
0
 40
0
 40
0
 40
0
 40
0
 40
1
 40
1
 40
1
 40
1
 10
10.793392
 20
102.414311
 30
0.0
 10
11.393790
 20
102.068968
 30
0.0
 10
12.133556
 20
102.068968
 30
0.0
 10
12.733954
 20
102.414311
 30
0.0
  0
SPLINE
  5
1a6
100
AcDbEntity
  8
0
 62
1
100
AcDbSpline
 70
8
 71
3
 72
8
 73
4
 74
0
 40
0
 40
0
 40
0
 40
0
 40
1
 40
1
 40
1
 40
1
 10
12.733954
 20
102.414311
 30
0.0
 10
13.334352
 20
102.759653
 30
0.0
 10
13.704138
 20
103.397856
 30
0.0
 10
13.703981
 20
104.088450
 30
0.0
  0
SPLINE
  5
1a7
100
AcDbEntity
  8
0
 62
1
100
AcDbSpline
 70
8
 71
3
 72
8
 73
4
 74
0
 40
0
 40
0
 40
0
 40
0
 40
1
 40
1
 40
1
 40
1
 10
13.703981
 20
104.088450
 30
0.0
 10
13.704138
 20
104.779044
 30
0.0
 10
13.334352
 20
105.417247
 30
0.0
 10
12.733954
 20
105.762589
 30
0.0
  0
SPLINE
  5
1a8
100
AcDbEntity
  8
0
 62
1
100
AcDbSpline
 70
8
 71
3
 72
8
 73
4
 74
0
 40
0
 40
0
 40
0
 40
0
 40
1
 40
1
 40
1
 40
1
 10
12.733954
 20
105.762589
 30
0.0
 10
12.133556
 20
106.107932
 30
0.0
 10
11.393790
 20
106.107932
 30
0.0
 10
10.793392
 20
105.762589
 30
0.0
  0
SPLINE
  5
1a9
100
AcDbEntity
  8
0
 62
1
100
AcDbSpline
 70
8
 71
3
 72
8
 73
4
 74
0
 40
0
 40
0
 40
0
 40
0
 40
1
 40
1
 40
1
 40
1
 10
10.793392
 20
105.762589
 30
0.0
 10
10.192994
 20
105.417247
 30
0.0
 10
9.823208
 20
104.779044
 30
0.0
 10
9.823365
 20
104.088450
 30
0.0
  0
LWPOLYLINE
  5
1aa
100
AcDbEntity
  8
0
 62
1
100
AcDbPolyline
 90
1
 70
1
 10
9.961259
 20
120.589429
 30
0.0
  0
SPLINE
  5
1ab
100
AcDbEntity
  8
0
 62
1
100
AcDbSpline
 70
8
 71
3
 72
8
 73
4
 74
0
 40
0
 40
0
 40
0
 40
0
 40
1
 40
1
 40
1
 40
1
 10
9.831283
 20
84.195660
 30
0.0
 10
9.831126
 20
83.505066
 30
0.0
 10
10.200912
 20
82.866863
 30
0.0
 10
10.801310
 20
82.521521
 30
0.0
  0
SPLINE
  5
1ac
100
AcDbEntity
  8
0
 62
1
100
AcDbSpline
 70
8
 71
3
 72
8
 73
4
 74
0
 40
0
 40
0
 40
0
 40
0
 40
1
 40
1
 40
1
 40
1
 10
10.801310
 20
82.521521
 30
0.0
 10
11.401708
 20
82.176178
 30
0.0
 10
12.141474
 20
82.176178
 30
0.0
 10
12.741872
 20
82.521521
 30
0.0
  0
SPLINE
  5
1ad
100
AcDbEntity
  8
0
 62
1
100
AcDbSpline
 70
8
 71
3
 72
8
 73
4
 74
0
 40
0
 40
0
 40
0
 40
0
 40
1
 40
1
 40
1
 40
1
 10
12.741872
 20
82.521521
 30
0.0
 10
13.342270
 20
82.866863
 30
0.0
 10
13.712056
 20
83.505066
 30
0.0
 10
13.711899
 20
84.195660
 30
0.0
  0
SPLINE
  5
1ae
100
AcDbEntity
  8
0
 62
1
100
AcDbSpline
 70
8
 71
3
 72
8
 73
4
 74
0
 40
0
 40
0
 40
0
 40
0
 40
1
 40
1
 40
1
 40
1
 10
13.711899
 20
84.195660
 30
0.0
 10
13.712056
 20
84.886254
 30
0.0
 10
13.342270
 20
85.524457
 30
0.0
 10
12.741872
 20
85.869799
 30
0.0
  0
SPLINE
  5
1af
100
AcDbEntity
  8
0
 62
1
100
AcDbSpline
 70
8
 71
3
 72
8
 73
4
 74
0
 40
0
 40
0
 40
0
 40
0
 40
1
 40
1
 40
1
 40
1
 10
12.741872
 20
85.869799
 30
0.0
 10
12.141474
 20
86.215142
 30
0.0
 10
11.401708
 20
86.215142
 30
0.0
 10
10.801310
 20
85.869799
 30
0.0
  0
SPLINE
  5
1b0
100
AcDbEntity
  8
0
 62
1
100
AcDbSpline
 70
8
 71
3
 72
8
 73
4
 74
0
 40
0
 40
0
 40
0
 40
0
 40
1
 40
1
 40
1
 40
1
 10
10.801310
 20
85.869799
 30
0.0
 10
10.200912
 20
85.524457
 30
0.0
 10
9.831126
 20
84.886254
 30
0.0
 10
9.831283
 20
84.195660
 30
0.0
  0
LWPOLYLINE
  5
1b1
100
AcDbEntity
  8
0
 62
1
100
AcDbPolyline
 90
1
 70
1
 10
9.823365
 20
104.088450
 30
0.0
  0
SPLINE
  5
1b2
100
AcDbEntity
  8
0
 62
1
100
AcDbSpline
 70
8
 71
3
 72
8
 73
4
 74
0
 40
0
 40
0
 40
0
 40
0
 40
1
 40
1
 40
1
 40
1
 10
9.842144
 20
69.168060
 30
0.0
 10
9.841987
 20
68.477466
 30
0.0
 10
10.211773
 20
67.839263
 30
0.0
 10
10.812171
 20
67.493921
 30
0.0
  0
SPLINE
  5
1b3
100
AcDbEntity
  8
0
 62
1
100
AcDbSpline
 70
8
 71
3
 72
8
 73
4
 74
0
 40
0
 40
0
 40
0
 40
0
 40
1
 40
1
 40
1
 40
1
 10
10.812171
 20
67.493921
 30
0.0
 10
11.412569
 20
67.148578
 30
0.0
 10
12.152335
 20
67.148578
 30
0.0
 10
12.752733
 20
67.493921
 30
0.0
  0
SPLINE
  5
1b4
100
AcDbEntity
  8
0
 62
1
100
AcDbSpline
 70
8
 71
3
 72
8
 73
4
 74
0
 40
0
 40
0
 40
0
 40
0
 40
1
 40
1
 40
1
 40
1
 10
12.752733
 20
67.493921
 30
0.0
 10
13.353131
 20
67.839263
 30
0.0
 10
13.722917
 20
68.477466
 30
0.0
 10
13.722760
 20
69.168060
 30
0.0
  0
SPLINE
  5
1b5
100
AcDbEntity
  8
0
 62
1
100
AcDbSpline
 70
8
 71
3
 72
8
 73
4
 74
0
 40
0
 40
0
 40
0
 40
0
 40
1
 40
1
 40
1
 40
1
 10
13.722760
 20
69.168060
 30
0.0
 10
13.722917
 20
69.858654
 30
0.0
 10
13.353131
 20
70.496857
 30
0.0
 10
12.752733
 20
70.842199
 30
0.0
  0
SPLINE
  5
1b6
100
AcDbEntity
  8
0
 62
1
100
AcDbSpline
 70
8
 71
3
 72
8
 73
4
 74
0
 40
0
 40
0
 40
0
 40
0
 40
1
 40
1
 40
1
 40
1
 10
12.752733
 20
70.842199
 30
0.0
 10
12.152335
 20
71.187542
 30
0.0
 10
11.412569
 20
71.187542
 30
0.0
 10
10.812171
 20
70.842199
 30
0.0
  0
SPLINE
  5
1b7
100
AcDbEntity
  8
0
 62
1
100
AcDbSpline
 70
8
 71
3
 72
8
 73
4
 74
0
 40
0
 40
0
 40
0
 40
0
 40
1
 40
1
 40
1
 40
1
 10
10.812171
 20
70.842199
 30
0.0
 10
10.211773
 20
70.496857
 30
0.0
 10
9.841987
 20
69.858654
 30
0.0
 10
9.842144
 20
69.168060
 30
0.0
  0
LWPOLYLINE
  5
1b8
100
AcDbEntity
  8
0
 62
1
100
AcDbPolyline
 90
1
 70
1
 10
9.831283
 20
84.195660
 30
0.0
  0
SPLINE
  5
1b9
100
AcDbEntity
  8
0
 62
1
100
AcDbSpline
 70
8
 71
3
 72
8
 73
4
 74
0
 40
0
 40
0
 40
0
 40
0
 40
1
 40
1
 40
1
 40
1
 10
9.837929
 20
33.112700
 30
0.0
 10
9.837772
 20
32.422106
 30
0.0
 10
10.207558
 20
31.783903
 30
0.0
 10
10.807956
 20
31.438561
 30
0.0
  0
SPLINE
  5
1ba
100
AcDbEntity
  8
0
 62
1
100
AcDbSpline
 70
8
 71
3
 72
8
 73
4
 74
0
 40
0
 40
0
 40
0
 40
0
 40
1
 40
1
 40
1
 40
1
 10
10.807956
 20
31.438561
 30
0.0
 10
11.408354
 20
31.093218
 30
0.0
 10
12.148120
 20
31.093218
 30
0.0
 10
12.748518
 20
31.438561
 30
0.0
  0
SPLINE
  5
1bb
100
AcDbEntity
  8
0
 62
1
100
AcDbSpline
 70
8
 71
3
 72
8
 73
4
 74
0
 40
0
 40
0
 40
0
 40
0
 40
1
 40
1
 40
1
 40
1
 10
12.748518
 20
31.438561
 30
0.0
 10
13.348916
 20
31.783903
 30
0.0
 10
13.718702
 20
32.422106
 30
0.0
 10
13.718545
 20
33.112700
 30
0.0
  0
SPLINE
  5
1bc
100
AcDbEntity
  8
0
 62
1
100
AcDbSpline
 70
8
 71
3
 72
8
 73
4
 74
0
 40
0
 40
0
 40
0
 40
0
 40
1
 40
1
 40
1
 40
1
 10
13.718545
 20
33.112700
 30
0.0
 10
13.718702
 20
33.803294
 30
0.0
 10
13.348916
 20
34.441497
 30
0.0
 10
12.748518
 20
34.786839
 30
0.0
  0
SPLINE
  5
1bd
100
AcDbEntity
  8
0
 62
1
100
AcDbSpline
 70
8
 71
3
 72
8
 73
4
 74
0
 40
0
 40
0
 40
0
 40
0
 40
1
 40
1
 40
1
 40
1
 10
12.748518
 20
34.786839
 30
0.0
 10
12.148120
 20
35.132182
 30
0.0
 10
11.408354
 20
35.132182
 30
0.0
 10
10.807956
 20
34.786839
 30
0.0
  0
SPLINE
  5
1be
100
AcDbEntity
  8
0
 62
1
100
AcDbSpline
 70
8
 71
3
 72
8
 73
4
 74
0
 40
0
 40
0
 40
0
 40
0
 40
1
 40
1
 40
1
 40
1
 10
10.807956
 20
34.786839
 30
0.0
 10
10.207558
 20
34.441497
 30
0.0
 10
9.837772
 20
33.803294
 30
0.0
 10
9.837929
 20
33.112700
 30
0.0
  0
LWPOLYLINE
  5
1bf
100
AcDbEntity
  8
0
 62
1
100
AcDbPolyline
 90
1
 70
1
 10
9.842144
 20
69.168060
 30
0.0
  0
SPLINE
  5
1c0
100
AcDbEntity
  8
0
 62
1
100
AcDbSpline
 70
8
 71
3
 72
8
 73
4
 74
0
 40
0
 40
0
 40
0
 40
0
 40
1
 40
1
 40
1
 40
1
 10
23.199387
 20
12.078330
 30
0.0
 10
23.199164
 20
11.387692
 30
0.0
 10
23.568936
 20
10.749422
 30
0.0
 10
24.169361
 20
10.404039
 30
0.0
  0
SPLINE
  5
1c1
100
AcDbEntity
  8
0
 62
1
100
AcDbSpline
 70
8
 71
3
 72
8
 73
4
 74
0
 40
0
 40
0
 40
0
 40
0
 40
1
 40
1
 40
1
 40
1
 10
24.169361
 20
10.404039
 30
0.0
 10
24.769786
 20
10.058657
 30
0.0
 10
25.509604
 20
10.058657
 30
0.0
 10
26.110029
 20
10.404039
 30
0.0
  0
SPLINE
  5
1c2
100
AcDbEntity
  8
0
 62
1
100
AcDbSpline
 70
8
 71
3
 72
8
 73
4
 74
0
 40
0
 40
0
 40
0
 40
0
 40
1
 40
1
 40
1
 40
1
 10
26.110029
 20
10.404039
 30
0.0
 10
26.710454
 20
10.749422
 30
0.0
 10
27.080226
 20
11.387692
 30
0.0
 10
27.080003
 20
12.078330
 30
0.0
  0
SPLINE
  5
1c3
100
AcDbEntity
  8
0
 62
1
100
AcDbSpline
 70
8
 71
3
 72
8
 73
4
 74
0
 40
0
 40
0
 40
0
 40
0
 40
1
 40
1
 40
1
 40
1
 10
27.080003
 20
12.078330
 30
0.0
 10
27.080226
 20
12.768968
 30
0.0
 10
26.710454
 20
13.407238
 30
0.0
 10
26.110029
 20
13.752621
 30
0.0
  0
SPLINE
  5
1c4
100
AcDbEntity
  8
0
 62
1
100
AcDbSpline
 70
8
 71
3
 72
8
 73
4
 74
0
 40
0
 40
0
 40
0
 40
0
 40
1
 40
1
 40
1
 40
1
 10
26.110029
 20
13.752621
 30
0.0
 10
25.509604
 20
14.098003
 30
0.0
 10
24.769786
 20
14.098003
 30
0.0
 10
24.169361
 20
13.752621
 30
0.0
  0
SPLINE
  5
1c5
100
AcDbEntity
  8
0
 62
1
100
AcDbSpline
 70
8
 71
3
 72
8
 73
4
 74
0
 40
0
 40
0
 40
0
 40
0
 40
1
 40
1
 40
1
 40
1
 10
24.169361
 20
13.752621
 30
0.0
 10
23.568936
 20
13.407238
 30
0.0
 10
23.199164
 20
12.768968
 30
0.0
 10
23.199387
 20
12.078330
 30
0.0
  0
LWPOLYLINE
  5
1c6
100
AcDbEntity
  8
0
 62
1
100
AcDbPolyline
 90
1
 70
1
 10
9.837929
 20
33.112700
 30
0.0
  0
SPLINE
  5
1c7
100
AcDbEntity
  8
0
 62
1
100
AcDbSpline
 70
8
 71
3
 72
8
 73
4
 74
0
 40
0
 40
0
 40
0
 40
0
 40
1
 40
1
 40
1
 40
1
 10
54.684804
 20
12.144480
 30
0.0
 10
54.684581
 20
11.453842
 30
0.0
 10
55.054353
 20
10.815572
 30
0.0
 10
55.654778
 20
10.470189
 30
0.0
  0
SPLINE
  5
1c8
100
AcDbEntity
  8
0
 62
1
100
AcDbSpline
 70
8
 71
3
 72
8
 73
4
 74
0
 40
0
 40
0
 40
0
 40
0
 40
1
 40
1
 40
1
 40
1
 10
55.654778
 20
10.470189
 30
0.0
 10
56.255203
 20
10.124807
 30
0.0
 10
56.995021
 20
10.124807
 30
0.0
 10
57.595446
 20
10.470189
 30
0.0
  0
SPLINE
  5
1c9
100
AcDbEntity
  8
0
 62
1
100
AcDbSpline
 70
8
 71
3
 72
8
 73
4
 74
0
 40
0
 40
0
 40
0
 40
0
 40
1
 40
1
 40
1
 40
1
 10
57.595446
 20
10.470189
 30
0.0
 10
58.195871
 20
10.815572
 30
0.0
 10
58.565643
 20
11.453842
 30
0.0
 10
58.565420
 20
12.144480
 30
0.0
  0
SPLINE
  5
1ca
100
AcDbEntity
  8
0
 62
1
100
AcDbSpline
 70
8
 71
3
 72
8
 73
4
 74
0
 40
0
 40
0
 40
0
 40
0
 40
1
 40
1
 40
1
 40
1
 10
58.565420
 20
12.144480
 30
0.0
 10
58.565643
 20
12.835118
 30
0.0
 10
58.195871
 20
13.473388
 30
0.0
 10
57.595446
 20
13.818771
 30
0.0
  0
SPLINE
  5
1cb
100
AcDbEntity
  8
0
 62
1
100
AcDbSpline
 70
8
 71
3
 72
8
 73
4
 74
0
 40
0
 40
0
 40
0
 40
0
 40
1
 40
1
 40
1
 40
1
 10
57.595446
 20
13.818771
 30
0.0
 10
56.995021
 20
14.164153
 30
0.0
 10
56.255203
 20
14.164153
 30
0.0
 10
55.654778
 20
13.818771
 30
0.0
  0
SPLINE
  5
1cc
100
AcDbEntity
  8
0
 62
1
100
AcDbSpline
 70
8
 71
3
 72
8
 73
4
 74
0
 40
0
 40
0
 40
0
 40
0
 40
1
 40
1
 40
1
 40
1
 10
55.654778
 20
13.818771
 30
0.0
 10
55.054353
 20
13.473388
 30
0.0
 10
54.684581
 20
12.835118
 30
0.0
 10
54.684804
 20
12.144480
 30
0.0
  0
LWPOLYLINE
  5
1cd
100
AcDbEntity
  8
0
 62
1
100
AcDbPolyline
 90
1
 70
1
 10
23.199387
 20
12.078330
 30
0.0
  0
SPLINE
  5
1ce
100
AcDbEntity
  8
0
 62
1
100
AcDbSpline
 70
8
 71
3
 72
8
 73
4
 74
0
 40
0
 40
0
 40
0
 40
0
 40
1
 40
1
 40
1
 40
1
 10
87.162408
 20
12.375990
 30
0.0
 10
87.162185
 20
11.685352
 30
0.0
 10
87.531957
 20
11.047082
 30
0.0
 10
88.132382
 20
10.701699
 30
0.0
  0
SPLINE
  5
1cf
100
AcDbEntity
  8
0
 62
1
100
AcDbSpline
 70
8
 71
3
 72
8
 73
4
 74
0
 40
0
 40
0
 40
0
 40
0
 40
1
 40
1
 40
1
 40
1
 10
88.132382
 20
10.701699
 30
0.0
 10
88.732807
 20
10.356317
 30
0.0
 10
89.472625
 20
10.356317
 30
0.0
 10
90.073050
 20
10.701699
 30
0.0
  0
SPLINE
  5
1d0
100
AcDbEntity
  8
0
 62
1
100
AcDbSpline
 70
8
 71
3
 72
8
 73
4
 74
0
 40
0
 40
0
 40
0
 40
0
 40
1
 40
1
 40
1
 40
1
 10
90.073050
 20
10.701699
 30
0.0
 10
90.673475
 20
11.047082
 30
0.0
 10
91.043247
 20
11.685352
 30
0.0
 10
91.043024
 20
12.375990
 30
0.0
  0
SPLINE
  5
1d1
100
AcDbEntity
  8
0
 62
1
100
AcDbSpline
 70
8
 71
3
 72
8
 73
4
 74
0
 40
0
 40
0
 40
0
 40
0
 40
1
 40
1
 40
1
 40
1
 10
91.043024
 20
12.375990
 30
0.0
 10
91.043247
 20
13.066628
 30
0.0
 10
90.673475
 20
13.704898
 30
0.0
 10
90.073050
 20
14.050281
 30
0.0
  0
SPLINE
  5
1d2
100
AcDbEntity
  8
0
 62
1
100
AcDbSpline
 70
8
 71
3
 72
8
 73
4
 74
0
 40
0
 40
0
 40
0
 40
0
 40
1
 40
1
 40
1
 40
1
 10
90.073050
 20
14.050281
 30
0.0
 10
89.472625
 20
14.395663
 30
0.0
 10
88.732807
 20
14.395663
 30
0.0
 10
88.132382
 20
14.050281
 30
0.0
  0
SPLINE
  5
1d3
100
AcDbEntity
  8
0
 62
1
100
AcDbSpline
 70
8
 71
3
 72
8
 73
4
 74
0
 40
0
 40
0
 40
0
 40
0
 40
1
 40
1
 40
1
 40
1
 10
88.132382
 20
14.050281
 30
0.0
 10
87.531957
 20
13.704898
 30
0.0
 10
87.162185
 20
13.066628
 30
0.0
 10
87.162408
 20
12.375990
 30
0.0
  0
LWPOLYLINE
  5
1d4
100
AcDbEntity
  8
0
 62
1
100
AcDbPolyline
 90
1
 70
1
 10
54.684804
 20
12.144480
 30
0.0
  0
SPLINE
  5
1d5
100
AcDbEntity
  8
0
 62
1
100
AcDbSpline
 70
8
 71
3
 72
8
 73
4
 74
0
 40
0
 40
0
 40
0
 40
0
 40
1
 40
1
 40
1
 40
1
 10
118.581680
 20
12.541350
 30
0.0
 10
118.581680
 20
11.850860
 30
0.0
 10
118.951501
 20
11.212820
 30
0.0
 10
119.551835
 20
10.867575
 30
0.0
  0
SPLINE
  5
1d6
100
AcDbEntity
  8
0
 62
1
100
AcDbSpline
 70
8
 71
3
 72
8
 73
4
 74
0
 40
0
 40
0
 40
0
 40
0
 40
1
 40
1
 40
1
 40
1
 10
119.551835
 20
10.867575
 30
0.0
 10
120.152169
 20
10.522329
 30
0.0
 10
120.891811
 20
10.522329
 30
0.0
 10
121.492145
 20
10.867575
 30
0.0
  0
SPLINE
  5
1d7
100
AcDbEntity
  8
0
 62
1
100
AcDbSpline
 70
8
 71
3
 72
8
 73
4
 74
0
 40
0
 40
0
 40
0
 40
0
 40
1
 40
1
 40
1
 40
1
 10
121.492145
 20
10.867575
 30
0.0
 10
122.092479
 20
11.212820
 30
0.0
 10
122.462300
 20
11.850860
 30
0.0
 10
122.462300
 20
12.541350
 30
0.0
  0
SPLINE
  5
1d8
100
AcDbEntity
  8
0
 62
1
100
AcDbSpline
 70
8
 71
3
 72
8
 73
4
 74
0
 40
0
 40
0
 40
0
 40
0
 40
1
 40
1
 40
1
 40
1
 10
122.462300
 20
12.541350
 30
0.0
 10
122.462300
 20
13.231840
 30
0.0
 10
122.092479
 20
13.869880
 30
0.0
 10
121.492145
 20
14.215125
 30
0.0
  0
SPLINE
  5
1d9
100
AcDbEntity
  8
0
 62
1
100
AcDbSpline
 70
8
 71
3
 72
8
 73
4
 74
0
 40
0
 40
0
 40
0
 40
0
 40
1
 40
1
 40
1
 40
1
 10
121.492145
 20
14.215125
 30
0.0
 10
120.891811
 20
14.560371
 30
0.0
 10
120.152169
 20
14.560371
 30
0.0
 10
119.551835
 20
14.215125
 30
0.0
  0
SPLINE
  5
1da
100
AcDbEntity
  8
0
 62
1
100
AcDbSpline
 70
8
 71
3
 72
8
 73
4
 74
0
 40
0
 40
0
 40
0
 40
0
 40
1
 40
1
 40
1
 40
1
 10
119.551835
 20
14.215125
 30
0.0
 10
118.951501
 20
13.869880
 30
0.0
 10
118.581680
 20
13.231840
 30
0.0
 10
118.581680
 20
12.541350
 30
0.0
  0
LWPOLYLINE
  5
1db
100
AcDbEntity
  8
0
 62
1
100
AcDbPolyline
 90
1
 70
1
 10
87.162408
 20
12.375990
 30
0.0
  0
SPLINE
  5
1dc
100
AcDbEntity
  8
0
 62
1
100
AcDbSpline
 70
8
 71
3
 72
8
 73
4
 74
0
 40
0
 40
0
 40
0
 40
0
 40
1
 40
1
 40
1
 40
1
 10
151.853030
 20
12.541350
 30
0.0
 10
151.853030
 20
11.850860
 30
0.0
 10
152.222851
 20
11.212820
 30
0.0
 10
152.823185
 20
10.867575
 30
0.0
  0
SPLINE
  5
1dd
100
AcDbEntity
  8
0
 62
1
100
AcDbSpline
 70
8
 71
3
 72
8
 73
4
 74
0
 40
0
 40
0
 40
0
 40
0
 40
1
 40
1
 40
1
 40
1
 10
152.823185
 20
10.867575
 30
0.0
 10
153.423519
 20
10.522330
 30
0.0
 10
154.163161
 20
10.522330
 30
0.0
 10
154.763495
 20
10.867575
 30
0.0
  0
SPLINE
  5
1de
100
AcDbEntity
  8
0
 62
1
100
AcDbSpline
 70
8
 71
3
 72
8
 73
4
 74
0
 40
0
 40
0
 40
0
 40
0
 40
1
 40
1
 40
1
 40
1
 10
154.763495
 20
10.867575
 30
0.0
 10
155.363829
 20
11.212820
 30
0.0
 10
155.733650
 20
11.850860
 30
0.0
 10
155.733650
 20
12.541350
 30
0.0
  0
SPLINE
  5
1df
100
AcDbEntity
  8
0
 62
1
100
AcDbSpline
 70
8
 71
3
 72
8
 73
4
 74
0
 40
0
 40
0
 40
0
 40
0
 40
1
 40
1
 40
1
 40
1
 10
155.733650
 20
12.541350
 30
0.0
 10
155.733650
 20
13.231840
 30
0.0
 10
155.363829
 20
13.869880
 30
0.0
 10
154.763495
 20
14.215125
 30
0.0
  0
SPLINE
  5
1e0
100
AcDbEntity
  8
0
 62
1
100
AcDbSpline
 70
8
 71
3
 72
8
 73
4
 74
0
 40
0
 40
0
 40
0
 40
0
 40
1
 40
1
 40
1
 40
1
 10
154.763495
 20
14.215125
 30
0.0
 10
154.163161
 20
14.560370
 30
0.0
 10
153.423519
 20
14.560370
 30
0.0
 10
152.823185
 20
14.215125
 30
0.0
  0
SPLINE
  5
1e1
100
AcDbEntity
  8
0
 62
1
100
AcDbSpline
 70
8
 71
3
 72
8
 73
4
 74
0
 40
0
 40
0
 40
0
 40
0
 40
1
 40
1
 40
1
 40
1
 10
152.823185
 20
14.215125
 30
0.0
 10
152.222851
 20
13.869880
 30
0.0
 10
151.853030
 20
13.231840
 30
0.0
 10
151.853030
 20
12.541350
 30
0.0
  0
LWPOLYLINE
  5
1e2
100
AcDbEntity
  8
0
 62
1
100
AcDbPolyline
 90
1
 70
1
 10
118.581680
 20
12.541350
 30
0.0
  0
SPLINE
  5
1e3
100
AcDbEntity
  8
0
 62
1
100
AcDbSpline
 70
8
 71
3
 72
8
 73
4
 74
0
 40
0
 40
0
 40
0
 40
0
 40
1
 40
1
 40
1
 40
1
 10
183.437670
 20
12.475200
 30
0.0
 10
183.437670
 20
11.784710
 30
0.0
 10
183.807491
 20
11.146670
 30
0.0
 10
184.407825
 20
10.801425
 30
0.0
  0
SPLINE
  5
1e4
100
AcDbEntity
  8
0
 62
1
100
AcDbSpline
 70
8
 71
3
 72
8
 73
4
 74
0
 40
0
 40
0
 40
0
 40
0
 40
1
 40
1
 40
1
 40
1
 10
184.407825
 20
10.801425
 30
0.0
 10
185.008159
 20
10.456180
 30
0.0
 10
185.747801
 20
10.456180
 30
0.0
 10
186.348135
 20
10.801425
 30
0.0
  0
SPLINE
  5
1e5
100
AcDbEntity
  8
0
 62
1
100
AcDbSpline
 70
8
 71
3
 72
8
 73
4
 74
0
 40
0
 40
0
 40
0
 40
0
 40
1
 40
1
 40
1
 40
1
 10
186.348135
 20
10.801425
 30
0.0
 10
186.948469
 20
11.146670
 30
0.0
 10
187.318290
 20
11.784710
 30
0.0
 10
187.318290
 20
12.475200
 30
0.0
  0
SPLINE
  5
1e6
100
AcDbEntity
  8
0
 62
1
100
AcDbSpline
 70
8
 71
3
 72
8
 73
4
 74
0
 40
0
 40
0
 40
0
 40
0
 40
1
 40
1
 40
1
 40
1
 10
187.318290
 20
12.475200
 30
0.0
 10
187.318290
 20
13.165690
 30
0.0
 10
186.948469
 20
13.803730
 30
0.0
 10
186.348135
 20
14.148975
 30
0.0
  0
SPLINE
  5
1e7
100
AcDbEntity
  8
0
 62
1
100
AcDbSpline
 70
8
 71
3
 72
8
 73
4
 74
0
 40
0
 40
0
 40
0
 40
0
 40
1
 40
1
 40
1
 40
1
 10
186.348135
 20
14.148975
 30
0.0
 10
185.747801
 20
14.494220
 30
0.0
 10
185.008159
 20
14.494220
 30
0.0
 10
184.407825
 20
14.148975
 30
0.0
  0
SPLINE
  5
1e8
100
AcDbEntity
  8
0
 62
1
100
AcDbSpline
 70
8
 71
3
 72
8
 73
4
 74
0
 40
0
 40
0
 40
0
 40
0
 40
1
 40
1
 40
1
 40
1
 10
184.407825
 20
14.148975
 30
0.0
 10
183.807491
 20
13.803730
 30
0.0
 10
183.437670
 20
13.165690
 30
0.0
 10
183.437670
 20
12.475200
 30
0.0
  0
LWPOLYLINE
  5
1e9
100
AcDbEntity
  8
0
 62
1
100
AcDbPolyline
 90
1
 70
1
 10
151.853030
 20
12.541350
 30
0.0
  0
SPLINE
  5
1ea
100
AcDbEntity
  8
0
 62
1
100
AcDbSpline
 70
8
 71
3
 72
8
 73
4
 74
0
 40
0
 40
0
 40
0
 40
0
 40
1
 40
1
 40
1
 40
1
 10
197.526730
 20
33.410360
 30
0.0
 10
197.526730
 20
32.719870
 30
0.0
 10
197.896551
 20
32.081830
 30
0.0
 10
198.496885
 20
31.736585
 30
0.0
  0
SPLINE
  5
1eb
100
AcDbEntity
  8
0
 62
1
100
AcDbSpline
 70
8
 71
3
 72
8
 73
4
 74
0
 40
0
 40
0
 40
0
 40
0
 40
1
 40
1
 40
1
 40
1
 10
198.496885
 20
31.736585
 30
0.0
 10
199.097219
 20
31.391340
 30
0.0
 10
199.836861
 20
31.391340
 30
0.0
 10
200.437195
 20
31.736585
 30
0.0
  0
SPLINE
  5
1ec
100
AcDbEntity
  8
0
 62
1
100
AcDbSpline
 70
8
 71
3
 72
8
 73
4
 74
0
 40
0
 40
0
 40
0
 40
0
 40
1
 40
1
 40
1
 40
1
 10
200.437195
 20
31.736585
 30
0.0
 10
201.037529
 20
32.081830
 30
0.0
 10
201.407350
 20
32.719870
 30
0.0
 10
201.407350
 20
33.410360
 30
0.0
  0
SPLINE
  5
1ed
100
AcDbEntity
  8
0
 62
1
100
AcDbSpline
 70
8
 71
3
 72
8
 73
4
 74
0
 40
0
 40
0
 40
0
 40
0
 40
1
 40
1
 40
1
 40
1
 10
201.407350
 20
33.410360
 30
0.0
 10
201.407350
 20
34.100850
 30
0.0
 10
201.037529
 20
34.738890
 30
0.0
 10
200.437195
 20
35.084135
 30
0.0
  0
SPLINE
  5
1ee
100
AcDbEntity
  8
0
 62
1
100
AcDbSpline
 70
8
 71
3
 72
8
 73
4
 74
0
 40
0
 40
0
 40
0
 40
0
 40
1
 40
1
 40
1
 40
1
 10
200.437195
 20
35.084135
 30
0.0
 10
199.836861
 20
35.429380
 30
0.0
 10
199.097219
 20
35.429380
 30
0.0
 10
198.496885
 20
35.084135
 30
0.0
  0
SPLINE
  5
1ef
100
AcDbEntity
  8
0
 62
1
100
AcDbSpline
 70
8
 71
3
 72
8
 73
4
 74
0
 40
0
 40
0
 40
0
 40
0
 40
1
 40
1
 40
1
 40
1
 10
198.496885
 20
35.084135
 30
0.0
 10
197.896551
 20
34.738890
 30
0.0
 10
197.526730
 20
34.100850
 30
0.0
 10
197.526730
 20
33.410360
 30
0.0
  0
LWPOLYLINE
  5
1f0
100
AcDbEntity
  8
0
 62
1
100
AcDbPolyline
 90
1
 70
1
 10
183.437670
 20
12.475200
 30
0.0
  0
SPLINE
  5
1f1
100
AcDbEntity
  8
0
 62
1
100
AcDbSpline
 70
8
 71
3
 72
8
 73
4
 74
0
 40
0
 40
0
 40
0
 40
0
 40
1
 40
1
 40
1
 40
1
 10
197.328290
 20
53.055670
 30
0.0
 10
197.328290
 20
52.365180
 30
0.0
 10
197.698111
 20
51.727140
 30
0.0
 10
198.298445
 20
51.381895
 30
0.0
  0
SPLINE
  5
1f2
100
AcDbEntity
  8
0
 62
1
100
AcDbSpline
 70
8
 71
3
 72
8
 73
4
 74
0
 40
0
 40
0
 40
0
 40
0
 40
1
 40
1
 40
1
 40
1
 10
198.298445
 20
51.381895
 30
0.0
 10
198.898779
 20
51.036650
 30
0.0
 10
199.638421
 20
51.036650
 30
0.0
 10
200.238755
 20
51.381895
 30
0.0
  0
SPLINE
  5
1f3
100
AcDbEntity
  8
0
 62
1
100
AcDbSpline
 70
8
 71
3
 72
8
 73
4
 74
0
 40
0
 40
0
 40
0
 40
0
 40
1
 40
1
 40
1
 40
1
 10
200.238755
 20
51.381895
 30
0.0
 10
200.839089
 20
51.727140
 30
0.0
 10
201.208910
 20
52.365180
 30
0.0
 10
201.208910
 20
53.055670
 30
0.0
  0
SPLINE
  5
1f4
100
AcDbEntity
  8
0
 62
1
100
AcDbSpline
 70
8
 71
3
 72
8
 73
4
 74
0
 40
0
 40
0
 40
0
 40
0
 40
1
 40
1
 40
1
 40
1
 10
201.208910
 20
53.055670
 30
0.0
 10
201.208910
 20
53.746160
 30
0.0
 10
200.839089
 20
54.384200
 30
0.0
 10
200.238755
 20
54.729445
 30
0.0
  0
SPLINE
  5
1f5
100
AcDbEntity
  8
0
 62
1
100
AcDbSpline
 70
8
 71
3
 72
8
 73
4
 74
0
 40
0
 40
0
 40
0
 40
0
 40
1
 40
1
 40
1
 40
1
 10
200.238755
 20
54.729445
 30
0.0
 10
199.638421
 20
55.074690
 30
0.0
 10
198.898779
 20
55.074690
 30
0.0
 10
198.298445
 20
54.729445
 30
0.0
  0
SPLINE
  5
1f6
100
AcDbEntity
  8
0
 62
1
100
AcDbSpline
 70
8
 71
3
 72
8
 73
4
 74
0
 40
0
 40
0
 40
0
 40
0
 40
1
 40
1
 40
1
 40
1
 10
198.298445
 20
54.729445
 30
0.0
 10
197.698111
 20
54.384200
 30
0.0
 10
197.328290
 20
53.746160
 30
0.0
 10
197.328290
 20
53.055670
 30
0.0
  0
LWPOLYLINE
  5
1f7
100
AcDbEntity
  8
0
 62
1
100
AcDbPolyline
 90
1
 70
1
 10
197.526730
 20
33.410360
 30
0.0
  0
SPLINE
  5
1f8
100
AcDbEntity
  8
0
 62
1
100
AcDbSpline
 70
8
 71
3
 72
8
 73
4
 74
0
 40
0
 40
0
 40
0
 40
0
 40
1
 40
1
 40
1
 40
1
 10
197.394440
 20
69.492910
 30
0.0
 10
197.394440
 20
68.802419
 30
0.0
 10
197.764261
 20
68.164380
 30
0.0
 10
198.364595
 20
67.819135
 30
0.0
  0
SPLINE
  5
1f9
100
AcDbEntity
  8
0
 62
1
100
AcDbSpline
 70
8
 71
3
 72
8
 73
4
 74
0
 40
0
 40
0
 40
0
 40
0
 40
1
 40
1
 40
1
 40
1
 10
198.364595
 20
67.819135
 30
0.0
 10
198.964929
 20
67.473889
 30
0.0
 10
199.704571
 20
67.473889
 30
0.0
 10
200.304905
 20
67.819135
 30
0.0
  0
SPLINE
  5
1fa
100
AcDbEntity
  8
0
 62
1
100
AcDbSpline
 70
8
 71
3
 72
8
 73
4
 74
0
 40
0
 40
0
 40
0
 40
0
 40
1
 40
1
 40
1
 40
1
 10
200.304905
 20
67.819135
 30
0.0
 10
200.905239
 20
68.164380
 30
0.0
 10
201.275060
 20
68.802419
 30
0.0
 10
201.275060
 20
69.492910
 30
0.0
  0
SPLINE
  5
1fb
100
AcDbEntity
  8
0
 62
1
100
AcDbSpline
 70
8
 71
3
 72
8
 73
4
 74
0
 40
0
 40
0
 40
0
 40
0
 40
1
 40
1
 40
1
 40
1
 10
201.275060
 20
69.492910
 30
0.0
 10
201.275060
 20
70.183401
 30
0.0
 10
200.905239
 20
70.821440
 30
0.0
 10
200.304905
 20
71.166685
 30
0.0
  0
SPLINE
  5
1fc
100
AcDbEntity
  8
0
 62
1
100
AcDbSpline
 70
8
 71
3
 72
8
 73
4
 74
0
 40
0
 40
0
 40
0
 40
0
 40
1
 40
1
 40
1
 40
1
 10
200.304905
 20
71.166685
 30
0.0
 10
199.704571
 20
71.511931
 30
0.0
 10
198.964929
 20
71.511931
 30
0.0
 10
198.364595
 20
71.166685
 30
0.0
  0
SPLINE
  5
1fd
100
AcDbEntity
  8
0
 62
1
100
AcDbSpline
 70
8
 71
3
 72
8
 73
4
 74
0
 40
0
 40
0
 40
0
 40
0
 40
1
 40
1
 40
1
 40
1
 10
198.364595
 20
71.166685
 30
0.0
 10
197.764261
 20
70.821440
 30
0.0
 10
197.394440
 20
70.183401
 30
0.0
 10
197.394440
 20
69.492910
 30
0.0
  0
LWPOLYLINE
  5
1fe
100
AcDbEntity
  8
0
 62
1
100
AcDbPolyline
 90
1
 70
1
 10
197.328290
 20
53.055670
 30
0.0
  0
SPLINE
  5
1ff
100
AcDbEntity
  8
0
 62
1
100
AcDbSpline
 70
8
 71
3
 72
8
 73
4
 74
0
 40
0
 40
0
 40
0
 40
0
 40
1
 40
1
 40
1
 40
1
 10
197.432110
 20
88.893240
 30
0.0
 10
197.432110
 20
88.202750
 30
0.0
 10
197.801931
 20
87.564710
 30
0.0
 10
198.402265
 20
87.219465
 30
0.0
  0
SPLINE
  5
200
100
AcDbEntity
  8
0
 62
1
100
AcDbSpline
 70
8
 71
3
 72
8
 73
4
 74
0
 40
0
 40
0
 40
0
 40
0
 40
1
 40
1
 40
1
 40
1
 10
198.402265
 20
87.219465
 30
0.0
 10
199.002599
 20
86.874220
 30
0.0
 10
199.742241
 20
86.874220
 30
0.0
 10
200.342575
 20
87.219465
 30
0.0
  0
SPLINE
  5
201
100
AcDbEntity
  8
0
 62
1
100
AcDbSpline
 70
8
 71
3
 72
8
 73
4
 74
0
 40
0
 40
0
 40
0
 40
0
 40
1
 40
1
 40
1
 40
1
 10
200.342575
 20
87.219465
 30
0.0
 10
200.942909
 20
87.564710
 30
0.0
 10
201.312730
 20
88.202750
 30
0.0
 10
201.312730
 20
88.893240
 30
0.0
  0
SPLINE
  5
202
100
AcDbEntity
  8
0
 62
1
100
AcDbSpline
 70
8
 71
3
 72
8
 73
4
 74
0
 40
0
 40
0
 40
0
 40
0
 40
1
 40
1
 40
1
 40
1
 10
201.312730
 20
88.893240
 30
0.0
 10
201.312730
 20
89.583730
 30
0.0
 10
200.942909
 20
90.221770
 30
0.0
 10
200.342575
 20
90.567015
 30
0.0
  0
SPLINE
  5
203
100
AcDbEntity
  8
0
 62
1
100
AcDbSpline
 70
8
 71
3
 72
8
 73
4
 74
0
 40
0
 40
0
 40
0
 40
0
 40
1
 40
1
 40
1
 40
1
 10
200.342575
 20
90.567015
 30
0.0
 10
199.742241
 20
90.912260
 30
0.0
 10
199.002599
 20
90.912260
 30
0.0
 10
198.402265
 20
90.567015
 30
0.0
  0
SPLINE
  5
204
100
AcDbEntity
  8
0
 62
1
100
AcDbSpline
 70
8
 71
3
 72
8
 73
4
 74
0
 40
0
 40
0
 40
0
 40
0
 40
1
 40
1
 40
1
 40
1
 10
198.402265
 20
90.567015
 30
0.0
 10
197.801931
 20
90.221770
 30
0.0
 10
197.432110
 20
89.583730
 30
0.0
 10
197.432110
 20
88.893240
 30
0.0
  0
LWPOLYLINE
  5
205
100
AcDbEntity
  8
0
 62
1
100
AcDbPolyline
 90
1
 70
1
 10
197.394440
 20
69.492910
 30
0.0
  0
SPLINE
  5
206
100
AcDbEntity
  8
0
 62
1
100
AcDbSpline
 70
8
 71
3
 72
8
 73
4
 74
0
 40
0
 40
0
 40
0
 40
0
 40
1
 40
1
 40
1
 40
1
 10
197.291550
 20
104.123320
 30
0.0
 10
197.291550
 20
103.432830
 30
0.0
 10
197.661371
 20
102.794790
 30
0.0
 10
198.261705
 20
102.449545
 30
0.0
  0
SPLINE
  5
207
100
AcDbEntity
  8
0
 62
1
100
AcDbSpline
 70
8
 71
3
 72
8
 73
4
 74
0
 40
0
 40
0
 40
0
 40
0
 40
1
 40
1
 40
1
 40
1
 10
198.261705
 20
102.449545
 30
0.0
 10
198.862039
 20
102.104300
 30
0.0
 10
199.601681
 20
102.104300
 30
0.0
 10
200.202015
 20
102.449545
 30
0.0
  0
SPLINE
  5
208
100
AcDbEntity
  8
0
 62
1
100
AcDbSpline
 70
8
 71
3
 72
8
 73
4
 74
0
 40
0
 40
0
 40
0
 40
0
 40
1
 40
1
 40
1
 40
1
 10
200.202015
 20
102.449545
 30
0.0
 10
200.802349
 20
102.794790
 30
0.0
 10
201.172170
 20
103.432830
 30
0.0
 10
201.172170
 20
104.123320
 30
0.0
  0
SPLINE
  5
209
100
AcDbEntity
  8
0
 62
1
100
AcDbSpline
 70
8
 71
3
 72
8
 73
4
 74
0
 40
0
 40
0
 40
0
 40
0
 40
1
 40
1
 40
1
 40
1
 10
201.172170
 20
104.123320
 30
0.0
 10
201.172170
 20
104.813810
 30
0.0
 10
200.802349
 20
105.451850
 30
0.0
 10
200.202015
 20
105.797095
 30
0.0
  0
SPLINE
  5
20a
100
AcDbEntity
  8
0
 62
1
100
AcDbSpline
 70
8
 71
3
 72
8
 73
4
 74
0
 40
0
 40
0
 40
0
 40
0
 40
1
 40
1
 40
1
 40
1
 10
200.202015
 20
105.797095
 30
0.0
 10
199.601681
 20
106.142340
 30
0.0
 10
198.862039
 20
106.142340
 30
0.0
 10
198.261705
 20
105.797095
 30
0.0
  0
SPLINE
  5
20b
100
AcDbEntity
  8
0
 62
1
100
AcDbSpline
 70
8
 71
3
 72
8
 73
4
 74
0
 40
0
 40
0
 40
0
 40
0
 40
1
 40
1
 40
1
 40
1
 10
198.261705
 20
105.797095
 30
0.0
 10
197.661371
 20
105.451850
 30
0.0
 10
197.291550
 20
104.813810
 30
0.0
 10
197.291550
 20
104.123320
 30
0.0
  0
LWPOLYLINE
  5
20c
100
AcDbEntity
  8
0
 62
1
100
AcDbPolyline
 90
1
 70
1
 10
197.432110
 20
88.893240
 30
0.0
  0
SPLINE
  5
20d
100
AcDbEntity
  8
0
 62
1
100
AcDbSpline
 70
8
 71
3
 72
8
 73
4
 74
0
 40
0
 40
0
 40
0
 40
0
 40
1
 40
1
 40
1
 40
1
 10
197.168960
 20
124.439502
 30
0.0
 10
197.168960
 20
123.749012
 30
0.0
 10
197.538781
 20
123.110972
 30
0.0
 10
198.139115
 20
122.765727
 30
0.0
  0
SPLINE
  5
20e
100
AcDbEntity
  8
0
 62
1
100
AcDbSpline
 70
8
 71
3
 72
8
 73
4
 74
0
 40
0
 40
0
 40
0
 40
0
 40
1
 40
1
 40
1
 40
1
 10
198.139115
 20
122.765727
 30
0.0
 10
198.739449
 20
122.420482
 30
0.0
 10
199.479091
 20
122.420482
 30
0.0
 10
200.079425
 20
122.765727
 30
0.0
  0
SPLINE
  5
20f
100
AcDbEntity
  8
0
 62
1
100
AcDbSpline
 70
8
 71
3
 72
8
 73
4
 74
0
 40
0
 40
0
 40
0
 40
0
 40
1
 40
1
 40
1
 40
1
 10
200.079425
 20
122.765727
 30
0.0
 10
200.679759
 20
123.110972
 30
0.0
 10
201.049580
 20
123.749012
 30
0.0
 10
201.049580
 20
124.439502
 30
0.0
  0
SPLINE
  5
210
100
AcDbEntity
  8
0
 62
1
100
AcDbSpline
 70
8
 71
3
 72
8
 73
4
 74
0
 40
0
 40
0
 40
0
 40
0
 40
1
 40
1
 40
1
 40
1
 10
201.049580
 20
124.439502
 30
0.0
 10
201.049580
 20
125.129992
 30
0.0
 10
200.679759
 20
125.768032
 30
0.0
 10
200.079425
 20
126.113277
 30
0.0
  0
SPLINE
  5
211
100
AcDbEntity
  8
0
 62
1
100
AcDbSpline
 70
8
 71
3
 72
8
 73
4
 74
0
 40
0
 40
0
 40
0
 40
0
 40
1
 40
1
 40
1
 40
1
 10
200.079425
 20
126.113277
 30
0.0
 10
199.479091
 20
126.458522
 30
0.0
 10
198.739449
 20
126.458522
 30
0.0
 10
198.139115
 20
126.113277
 30
0.0
  0
SPLINE
  5
212
100
AcDbEntity
  8
0
 62
1
100
AcDbSpline
 70
8
 71
3
 72
8
 73
4
 74
0
 40
0
 40
0
 40
0
 40
0
 40
1
 40
1
 40
1
 40
1
 10
198.139115
 20
126.113277
 30
0.0
 10
197.538781
 20
125.768032
 30
0.0
 10
197.168960
 20
125.129992
 30
0.0
 10
197.168960
 20
124.439502
 30
0.0
  0
LWPOLYLINE
  5
213
100
AcDbEntity
  8
0
 62
1
100
AcDbPolyline
 90
1
 70
1
 10
197.291550
 20
104.123320
 30
0.0
  0
SPLINE
  5
214
100
AcDbEntity
  8
0
 62
1
100
AcDbSpline
 70
8
 71
3
 72
8
 73
4
 74
0
 40
0
 40
0
 40
0
 40
0
 40
1
 40
1
 40
1
 40
1
 10
197.543140
 20
139.453368
 30
0.0
 10
197.543140
 20
138.762878
 30
0.0
 10
197.912961
 20
138.124838
 30
0.0
 10
198.513295
 20
137.779593
 30
0.0
  0
SPLINE
  5
215
100
AcDbEntity
  8
0
 62
1
100
AcDbSpline
 70
8
 71
3
 72
8
 73
4
 74
0
 40
0
 40
0
 40
0
 40
0
 40
1
 40
1
 40
1
 40
1
 10
198.513295
 20
137.779593
 30
0.0
 10
199.113629
 20
137.434348
 30
0.0
 10
199.853271
 20
137.434348
 30
0.0
 10
200.453605
 20
137.779593
 30
0.0
  0
SPLINE
  5
216
100
AcDbEntity
  8
0
 62
1
100
AcDbSpline
 70
8
 71
3
 72
8
 73
4
 74
0
 40
0
 40
0
 40
0
 40
0
 40
1
 40
1
 40
1
 40
1
 10
200.453605
 20
137.779593
 30
0.0
 10
201.053939
 20
138.124838
 30
0.0
 10
201.423760
 20
138.762878
 30
0.0
 10
201.423760
 20
139.453368
 30
0.0
  0
SPLINE
  5
217
100
AcDbEntity
  8
0
 62
1
100
AcDbSpline
 70
8
 71
3
 72
8
 73
4
 74
0
 40
0
 40
0
 40
0
 40
0
 40
1
 40
1
 40
1
 40
1
 10
201.423760
 20
139.453368
 30
0.0
 10
201.423760
 20
140.143858
 30
0.0
 10
201.053939
 20
140.781898
 30
0.0
 10
200.453605
 20
141.127143
 30
0.0
  0
SPLINE
  5
218
100
AcDbEntity
  8
0
 62
1
100
AcDbSpline
 70
8
 71
3
 72
8
 73
4
 74
0
 40
0
 40
0
 40
0
 40
0
 40
1
 40
1
 40
1
 40
1
 10
200.453605
 20
141.127143
 30
0.0
 10
199.853271
 20
141.472388
 30
0.0
 10
199.113629
 20
141.472388
 30
0.0
 10
198.513295
 20
141.127143
 30
0.0
  0
SPLINE
  5
219
100
AcDbEntity
  8
0
 62
1
100
AcDbSpline
 70
8
 71
3
 72
8
 73
4
 74
0
 40
0
 40
0
 40
0
 40
0
 40
1
 40
1
 40
1
 40
1
 10
198.513295
 20
141.127143
 30
0.0
 10
197.912961
 20
140.781898
 30
0.0
 10
197.543140
 20
140.143858
 30
0.0
 10
197.543140
 20
139.453368
 30
0.0
  0
LWPOLYLINE
  5
21a
100
AcDbEntity
  8
0
 62
1
100
AcDbPolyline
 90
1
 70
1
 10
197.168960
 20
124.439502
 30
0.0
  0
SPLINE
  5
21b
100
AcDbEntity
  8
0
 62
1
100
AcDbSpline
 70
8
 71
3
 72
8
 73
4
 74
0
 40
0
 40
0
 40
0
 40
0
 40
1
 40
1
 40
1
 40
1
 10
197.672730
 20
158.882487
 30
0.0
 10
197.672730
 20
158.191996
 30
0.0
 10
198.042551
 20
157.553957
 30
0.0
 10
198.642885
 20
157.208712
 30
0.0
  0
SPLINE
  5
21c
100
AcDbEntity
  8
0
 62
1
100
AcDbSpline
 70
8
 71
3
 72
8
 73
4
 74
0
 40
0
 40
0
 40
0
 40
0
 40
1
 40
1
 40
1
 40
1
 10
198.642885
 20
157.208712
 30
0.0
 10
199.243219
 20
156.863466
 30
0.0
 10
199.982861
 20
156.863466
 30
0.0
 10
200.583195
 20
157.208712
 30
0.0
  0
SPLINE
  5
21d
100
AcDbEntity
  8
0
 62
1
100
AcDbSpline
 70
8
 71
3
 72
8
 73
4
 74
0
 40
0
 40
0
 40
0
 40
0
 40
1
 40
1
 40
1
 40
1
 10
200.583195
 20
157.208712
 30
0.0
 10
201.183529
 20
157.553957
 30
0.0
 10
201.553350
 20
158.191996
 30
0.0
 10
201.553350
 20
158.882487
 30
0.0
  0
SPLINE
  5
21e
100
AcDbEntity
  8
0
 62
1
100
AcDbSpline
 70
8
 71
3
 72
8
 73
4
 74
0
 40
0
 40
0
 40
0
 40
0
 40
1
 40
1
 40
1
 40
1
 10
201.553350
 20
158.882487
 30
0.0
 10
201.553350
 20
159.572978
 30
0.0
 10
201.183529
 20
160.211017
 30
0.0
 10
200.583195
 20
160.556262
 30
0.0
  0
SPLINE
  5
21f
100
AcDbEntity
  8
0
 62
1
100
AcDbSpline
 70
8
 71
3
 72
8
 73
4
 74
0
 40
0
 40
0
 40
0
 40
0
 40
1
 40
1
 40
1
 40
1
 10
200.583195
 20
160.556262
 30
0.0
 10
199.982861
 20
160.901508
 30
0.0
 10
199.243219
 20
160.901508
 30
0.0
 10
198.642885
 20
160.556262
 30
0.0
  0
SPLINE
  5
220
100
AcDbEntity
  8
0
 62
1
100
AcDbSpline
 70
8
 71
3
 72
8
 73
4
 74
0
 40
0
 40
0
 40
0
 40
0
 40
1
 40
1
 40
1
 40
1
 10
198.642885
 20
160.556262
 30
0.0
 10
198.042551
 20
160.211017
 30
0.0
 10
197.672730
 20
159.572978
 30
0.0
 10
197.672730
 20
158.882487
 30
0.0
  0
LWPOLYLINE
  5
221
100
AcDbEntity
  8
0
 62
1
100
AcDbPolyline
 90
1
 70
1
 10
197.543140
 20
139.453368
 30
0.0
  0
SPLINE
  5
222
100
AcDbEntity
  8
0
 62
1
100
AcDbSpline
 70
8
 71
3
 72
8
 73
4
 74
0
 40
0
 40
0
 40
0
 40
0
 40
1
 40
1
 40
1
 40
1
 10
197.661000
 20
174.733413
 30
0.0
 10
197.661000
 20
174.042923
 30
0.0
 10
198.030821
 20
173.404883
 30
0.0
 10
198.631155
 20
173.059638
 30
0.0
  0
SPLINE
  5
223
100
AcDbEntity
  8
0
 62
1
100
AcDbSpline
 70
8
 71
3
 72
8
 73
4
 74
0
 40
0
 40
0
 40
0
 40
0
 40
1
 40
1
 40
1
 40
1
 10
198.631155
 20
173.059638
 30
0.0
 10
199.231489
 20
172.714393
 30
0.0
 10
199.971131
 20
172.714393
 30
0.0
 10
200.571465
 20
173.059638
 30
0.0
  0
SPLINE
  5
224
100
AcDbEntity
  8
0
 62
1
100
AcDbSpline
 70
8
 71
3
 72
8
 73
4
 74
0
 40
0
 40
0
 40
0
 40
0
 40
1
 40
1
 40
1
 40
1
 10
200.571465
 20
173.059638
 30
0.0
 10
201.171799
 20
173.404883
 30
0.0
 10
201.541620
 20
174.042923
 30
0.0
 10
201.541620
 20
174.733413
 30
0.0
  0
SPLINE
  5
225
100
AcDbEntity
  8
0
 62
1
100
AcDbSpline
 70
8
 71
3
 72
8
 73
4
 74
0
 40
0
 40
0
 40
0
 40
0
 40
1
 40
1
 40
1
 40
1
 10
201.541620
 20
174.733413
 30
0.0
 10
201.541620
 20
175.423903
 30
0.0
 10
201.171799
 20
176.061943
 30
0.0
 10
200.571465
 20
176.407188
 30
0.0
  0
SPLINE
  5
226
100
AcDbEntity
  8
0
 62
1
100
AcDbSpline
 70
8
 71
3
 72
8
 73
4
 74
0
 40
0
 40
0
 40
0
 40
0
 40
1
 40
1
 40
1
 40
1
 10
200.571465
 20
176.407188
 30
0.0
 10
199.971131
 20
176.752433
 30
0.0
 10
199.231489
 20
176.752433
 30
0.0
 10
198.631155
 20
176.407188
 30
0.0
  0
SPLINE
  5
227
100
AcDbEntity
  8
0
 62
1
100
AcDbSpline
 70
8
 71
3
 72
8
 73
4
 74
0
 40
0
 40
0
 40
0
 40
0
 40
1
 40
1
 40
1
 40
1
 10
198.631155
 20
176.407188
 30
0.0
 10
198.030821
 20
176.061943
 30
0.0
 10
197.661000
 20
175.423903
 30
0.0
 10
197.661000
 20
174.733413
 30
0.0
  0
LWPOLYLINE
  5
228
100
AcDbEntity
  8
0
 62
1
100
AcDbPolyline
 90
1
 70
1
 10
197.672730
 20
158.882487
 30
0.0
  0
SPLINE
  5
229
100
AcDbEntity
  8
0
 62
1
100
AcDbSpline
 70
8
 71
3
 72
8
 73
4
 74
0
 40
0
 40
0
 40
0
 40
0
 40
1
 40
1
 40
1
 40
1
 10
9.720998
 20
49.132170
 30
0.0
 10
9.720841
 20
48.441576
 30
0.0
 10
10.090627
 20
47.803373
 30
0.0
 10
10.691025
 20
47.458031
 30
0.0
  0
SPLINE
  5
22a
100
AcDbEntity
  8
0
 62
1
100
AcDbSpline
 70
8
 71
3
 72
8
 73
4
 74
0
 40
0
 40
0
 40
0
 40
0
 40
1
 40
1
 40
1
 40
1
 10
10.691025
 20
47.458031
 30
0.0
 10
11.291423
 20
47.112688
 30
0.0
 10
12.031189
 20
47.112688
 30
0.0
 10
12.631587
 20
47.458031
 30
0.0
  0
SPLINE
  5
22b
100
AcDbEntity
  8
0
 62
1
100
AcDbSpline
 70
8
 71
3
 72
8
 73
4
 74
0
 40
0
 40
0
 40
0
 40
0
 40
1
 40
1
 40
1
 40
1
 10
12.631587
 20
47.458031
 30
0.0
 10
13.231985
 20
47.803373
 30
0.0
 10
13.601771
 20
48.441576
 30
0.0
 10
13.601614
 20
49.132170
 30
0.0
  0
SPLINE
  5
22c
100
AcDbEntity
  8
0
 62
1
100
AcDbSpline
 70
8
 71
3
 72
8
 73
4
 74
0
 40
0
 40
0
 40
0
 40
0
 40
1
 40
1
 40
1
 40
1
 10
13.601614
 20
49.132170
 30
0.0
 10
13.601771
 20
49.822764
 30
0.0
 10
13.231985
 20
50.460967
 30
0.0
 10
12.631587
 20
50.806309
 30
0.0
  0
SPLINE
  5
22d
100
AcDbEntity
  8
0
 62
1
100
AcDbSpline
 70
8
 71
3
 72
8
 73
4
 74
0
 40
0
 40
0
 40
0
 40
0
 40
1
 40
1
 40
1
 40
1
 10
12.631587
 20
50.806309
 30
0.0
 10
12.031189
 20
51.151652
 30
0.0
 10
11.291423
 20
51.151652
 30
0.0
 10
10.691025
 20
50.806309
 30
0.0
  0
SPLINE
  5
22e
100
AcDbEntity
  8
0
 62
1
100
AcDbSpline
 70
8
 71
3
 72
8
 73
4
 74
0
 40
0
 40
0
 40
0
 40
0
 40
1
 40
1
 40
1
 40
1
 10
10.691025
 20
50.806309
 30
0.0
 10
10.090627
 20
50.460967
 30
0.0
 10
9.720841
 20
49.822764
 30
0.0
 10
9.720998
 20
49.132170
 30
0.0
  0
LWPOLYLINE
  5
22f
100
AcDbEntity
  8
0
 62
1
100
AcDbPolyline
 90
1
 70
1
 10
197.661000
 20
174.733413
 30
0.0
  0
LWPOLYLINE
  5
230
100
AcDbEntity
  8
0
 62
1
100
AcDbPolyline
 90
1
 70
1
 10
9.720998
 20
49.132170
 30
0.0
  0
LWPOLYLINE
  5
231
100
AcDbEntity
  8
0
 62
1
100
AcDbPolyline
 90
4
 70
1
 10
0.348523
 20
209.582873
 30
0.0
 10
210.259813
 20
209.582873
 30
0.0
 10
210.259813
 20
-0.191207
 30
0.0
 10
0.348523
 20
-0.191207
 30
0.0
  0
LWPOLYLINE
  5
232
100
AcDbEntity
  8
0
 62
1
100
AcDbPolyline
 90
8
 70
1
 10
19.407248
 20
209.697752
 30
0.0
 10
192.952980
 20
209.697752
 30
0.0
 10
192.952980
 20
190.642294
 30
0.0
 10
163.092480
 20
190.642294
 30
0.0
 10
163.092480
 20
192.780838
 30
0.0
 10
49.862207
 20
192.780838
 30
0.0
 10
49.749653
 20
190.642294
 30
0.0
 10
19.407248
 20
190.642294
 30
0.0
  0
ENDSEC
  0
SECTION
  2
OBJECTS
  0
DICTIONARY
  5
C
330
0
100
AcDbDictionary
  3
ACAD_GROUP
350
D
  3
ACAD_MLINESTYLE
350
17
  0
DICTIONARY
  5
D
330
C
100
AcDbDictionary
  0
DICTIONARY
  5
1A
330
C
100
AcDbDictionary
  0
DICTIONARY
  5
17
330
C
100
AcDbDictionary
  3
STANDARD
350
18
  0
DICTIONARY
  5
19
330
C
100
AcDbDictionary
  0
ENDSEC
  0
EOF
