  0
SECTION
  2
HEADER
  9
$ACADVER
  1
AC1014
  9
$HANDSEED
  5
FFFF
  9
$INSUNITS
 70
     4
  9
$MEASUREMENT
 70
     1
  0
ENDSEC
  0
SECTION
  2
TABLES
  0
TABLE
  2
VPORT
  5
8
330
0
100
AcDbSymbolTable
 70
     4
  0
VPORT
  5
2E
330
8
100
AcDbSymbolTableRecord
100
AcDbViewportTableRecord
  2
*ACTIVE
 70
     0
 10
0.0
 20
0.0
 11
1.0
 21
1.0
 12
210.0
 22
148.5
 13
0.0
 23
0.0
 14
10.0
 24
10.0
 15
10.0
 25
10.0
 16
0.0
 26
0.0
 36
1.0
 17
0.0
 27
0.0
 37
0.0
 40
341.0
 41
1.24
 42
50.0
 43
0.0
 44
0.0
 50
0.0
 51
0.0
 71
     0
 72
   100
 73
     1
 74
     3
 75
     0
 76
     0
 77
     0
 78
     0
  0
ENDTAB
  0
TABLE
  2
LTYPE
  5
5
330
0
100
AcDbSymbolTable
 70
     1
  0
LTYPE
  5
14
330
5
100
AcDbSymbolTableRecord
100
AcDbLinetypeTableRecord
  2
BYBLOCK
 70
     0
  3

 72
    65
 73
     0
 40
0.0
  0
LTYPE
  5
15
330
5
100
AcDbSymbolTableRecord
100
AcDbLinetypeTableRecord
  2
BYLAYER
 70
     0
  3

 72
    65
 73
     0
 40
0.0
  0
LTYPE
  5
16
330
5
100
AcDbSymbolTableRecord
100
AcDbLinetypeTableRecord
  2
CONTINUOUS
 70
     0
  3
Solid line
 72
    65
 73
     0
 40
0.0
  0
ENDTAB
  0
TABLE
  2
LAYER
  5
2
100
AcDbSymbolTable
 70
1
  0
LAYER
  5
50
100
AcDbSymbolTableRecord
100
AcDbLayerTableRecord
  2
0
 70
0
  6
CONTINUOUS
  0
ENDTAB
  0
TABLE
  2
STYLE
  5
3
330
0
100
AcDbSymbolTable
 70
     1
  0
STYLE
  5
11
330
3
100
AcDbSymbolTableRecord
100
AcDbTextStyleTableRecord
  2
STANDARD
 70
     0
 40
0.0
 41
1.0
 50
0.0
 71
     0
 42
2.5
  3
txt
  4

  0
ENDTAB
  0
TABLE
  2
VIEW
  5
6
330
0
100
AcDbSymbolTable
 70
     0
  0
ENDTAB
  0
TABLE
  2
UCS
  5
7
330
0
100
AcDbSymbolTable
 70
     0
  0
ENDTAB
  0
TABLE
  2
APPID
  5
9
330
0
100
AcDbSymbolTable
 70
     2
  0
APPID
  5
12
330
9
100
AcDbSymbolTableRecord
100
AcDbRegAppTableRecord
  2
ACAD
 70
     0
  0
ENDTAB
  0
TABLE
  2
DIMSTYLE
  5
A
330
0
100
AcDbSymbolTable
 70
     1
  0
DIMSTYLE
105
27
330
A
100
AcDbSymbolTableRecord
100
AcDbDimStyleTableRecord
  2
ISO-25
 70
     0
  3

  4

  5

  6

  7

 40
1.0
 41
2.5
 42
0.625
 43
3.75
 44
1.25
 45
0.0
 46
0.0
 47
0.0
 48
0.0
140
2.5
141
2.5
142
0.0
143
0.03937007874016
144
1.0
145
0.0
146
1.0
147
0.625
 71
     0
 72
     0
 73
     0
 74
     0
 75
     0
 76
     0
 77
     1
 78
     8
170
     0
171
     3
172
     1
173
     0
174
     0
175
     0
176
     0
177
     0
178
     0
270
     2
271
     2
272
     2
273
     2
274
     3
340
11
275
     0
280
     0
281
     0
282
     0
283
     0
284
     8
285
     0
286
     0
287
     3
288
     0
  0
ENDTAB
  0
TABLE
  2
BLOCK_RECORD
  5
1
330
0
100
AcDbSymbolTable
 70
     1
  0
BLOCK_RECORD
  5
1F
330
1
100
AcDbSymbolTableRecord
100
AcDbBlockTableRecord
  2
*MODEL_SPACE
  0
BLOCK_RECORD
  5
1B
330
1
100
AcDbSymbolTableRecord
100
AcDbBlockTableRecord
  2
*PAPER_SPACE
  0
ENDTAB
  0
ENDSEC
  0
SECTION
  2
BLOCKS
  0
BLOCK
  5
20
330
1F
100
AcDbEntity
  8
0
100
AcDbBlockBegin
  2
*MODEL_SPACE
 70
     0
 10
0.0
 20
0.0
 30
0.0
  3
*MODEL_SPACE
  1

  0
ENDBLK
  5
21
330
1F
100
AcDbEntity
  8
0
100
AcDbBlockEnd
  0
BLOCK
  5
1C
330
1B
100
AcDbEntity
 67
     1
  8
0
100
AcDbBlockBegin
  2
*PAPER_SPACE
  1

  0
ENDBLK
  5
1D
330
1B
100
AcDbEntity
 67
     1
  8
0
100
AcDbBlockEnd
  0
ENDSEC
  0
SECTION
  2
ENTITIES
  0
LWPOLYLINE
  5
100
100
AcDbEntity
  8
0
 62
1
100
AcDbPolyline
 90
4
 70
1
 10
19.406878
 20
189.349304
 30
0.0
 10
33.046010
 20
189.349304
 30
0.0
 10
33.046010
 20
175.710172
 30
0.0
 10
19.406878
 20
175.710172
 30
0.0
  0
LWPOLYLINE
  5
101
100
AcDbEntity
  8
0
 62
1
100
AcDbPolyline
 90
4
 70
1
 10
34.281746
 20
189.300699
 30
0.0
 10
47.920878
 20
189.300699
 30
0.0
 10
47.920878
 20
175.661567
 30
0.0
 10
34.281746
 20
175.661567
 30
0.0
  0
LWPOLYLINE
  5
102
100
AcDbEntity
  8
0
 62
1
100
AcDbPolyline
 90
4
 70
1
 10
49.796150
 20
189.358999
 30
0.0
 10
63.435282
 20
189.358999
 30
0.0
 10
63.435282
 20
175.719867
 30
0.0
 10
49.796150
 20
175.719867
 30
0.0
  0
LWPOLYLINE
  5
103
100
AcDbEntity
  8
0
 62
1
100
AcDbPolyline
 90
4
 70
1
 10
66.947906
 20
189.349304
 30
0.0
 10
80.587038
 20
189.349304
 30
0.0
 10
80.587038
 20
175.710172
 30
0.0
 10
66.947906
 20
175.710172
 30
0.0
  0
LWPOLYLINE
  5
104
100
AcDbEntity
  8
0
 62
1
100
AcDbPolyline
 90
4
 70
1
 10
83.721031
 20
189.349304
 30
0.0
 10
97.360163
 20
189.349304
 30
0.0
 10
97.360163
 20
175.710172
 30
0.0
 10
83.721031
 20
175.710172
 30
0.0
  0
LWPOLYLINE
  5
105
100
AcDbEntity
  8
0
 62
1
100
AcDbPolyline
 90
4
 70
1
 10
99.279648
 20
189.349304
 30
0.0
 10
112.918780
 20
189.349304
 30
0.0
 10
112.918780
 20
175.710172
 30
0.0
 10
99.279648
 20
175.710172
 30
0.0
  0
LWPOLYLINE
  5
106
100
AcDbEntity
  8
0
 62
1
100
AcDbPolyline
 90
4
 70
1
 10
115.242940
 20
189.349304
 30
0.0
 10
128.882072
 20
189.349304
 30
0.0
 10
128.882072
 20
175.710172
 30
0.0
 10
115.242940
 20
175.710172
 30
0.0
  0
LWPOLYLINE
  5
107
100
AcDbEntity
  8
0
 62
1
100
AcDbPolyline
 90
4
 70
1
 10
131.026660
 20
189.349304
 30
0.0
 10
144.665792
 20
189.349304
 30
0.0
 10
144.665792
 20
175.710172
 30
0.0
 10
131.026660
 20
175.710172
 30
0.0
  0
LWPOLYLINE
  5
108
100
AcDbEntity
  8
0
 62
1
100
AcDbPolyline
 90
4
 70
1
 10
147.572370
 20
189.349304
 30
0.0
 10
161.211502
 20
189.349304
 30
0.0
 10
161.211502
 20
175.710172
 30
0.0
 10
147.572370
 20
175.710172
 30
0.0
  0
LWPOLYLINE
  5
109
100
AcDbEntity
  8
0
 62
1
100
AcDbPolyline
 90
4
 70
1
 10
162.978130
 20
189.349304
 30
0.0
 10
176.617262
 20
189.349304
 30
0.0
 10
176.617262
 20
175.710172
 30
0.0
 10
162.978130
 20
175.710172
 30
0.0
  0
LWPOLYLINE
  5
10a
100
AcDbEntity
  8
0
 62
1
100
AcDbPolyline
 90
4
 70
1
 10
178.979450
 20
189.349304
 30
0.0
 10
192.618582
 20
189.349304
 30
0.0
 10
192.618582
 20
175.710172
 30
0.0
 10
178.979450
 20
175.710172
 30
0.0
  0
LWPOLYLINE
  5
10b
100
AcDbEntity
  8
0
 62
1
100
AcDbPolyline
 90
4
 70
1
 10
50.245094
 20
171.654106
 30
0.0
 10
63.884226
 20
171.654106
 30
0.0
 10
63.884226
 20
158.014974
 30
0.0
 10
50.245094
 20
158.014974
 30
0.0
  0
LWPOLYLINE
  5
10c
100
AcDbEntity
  8
0
 62
1
100
AcDbPolyline
 90
4
 70
1
 10
19.406878
 20
171.741619
 30
0.0
 10
33.046010
 20
171.741619
 30
0.0
 10
33.046010
 20
158.102487
 30
0.0
 10
19.406878
 20
158.102487
 30
0.0
  0
LWPOLYLINE
  5
10d
100
AcDbEntity
  8
0
 62
1
100
AcDbPolyline
 90
4
 70
1
 10
66.922356
 20
171.669117
 30
0.0
 10
80.561488
 20
171.669117
 30
0.0
 10
80.561488
 20
158.029985
 30
0.0
 10
66.922356
 20
158.029985
 30
0.0
  0
LWPOLYLINE
  5
10e
100
AcDbEntity
  8
0
 62
1
100
AcDbPolyline
 90
4
 70
1
 10
83.721031
 20
171.741619
 30
0.0
 10
97.360163
 20
171.741619
 30
0.0
 10
97.360163
 20
158.102487
 30
0.0
 10
83.721031
 20
158.102487
 30
0.0
  0
LWPOLYLINE
  5
10f
100
AcDbEntity
  8
0
 62
1
100
AcDbPolyline
 90
4
 70
1
 10
99.279648
 20
171.741619
 30
0.0
 10
112.918780
 20
171.741619
 30
0.0
 10
112.918780
 20
158.102487
 30
0.0
 10
99.279648
 20
158.102487
 30
0.0
  0
LWPOLYLINE
  5
110
100
AcDbEntity
  8
0
 62
1
100
AcDbPolyline
 90
4
 70
1
 10
115.242940
 20
171.741619
 30
0.0
 10
128.882072
 20
171.741619
 30
0.0
 10
128.882072
 20
158.102487
 30
0.0
 10
115.242940
 20
158.102487
 30
0.0
  0
LWPOLYLINE
  5
111
100
AcDbEntity
  8
0
 62
1
100
AcDbPolyline
 90
4
 70
1
 10
131.026640
 20
171.741619
 30
0.0
 10
144.665772
 20
171.741619
 30
0.0
 10
144.665772
 20
158.102487
 30
0.0
 10
131.026640
 20
158.102487
 30
0.0
  0
LWPOLYLINE
  5
112
100
AcDbEntity
  8
0
 62
1
100
AcDbPolyline
 90
4
 70
1
 10
148.101520
 20
171.741619
 30
0.0
 10
161.740652
 20
171.741619
 30
0.0
 10
161.740652
 20
158.102487
 30
0.0
 10
148.101520
 20
158.102487
 30
0.0
  0
LWPOLYLINE
  5
113
100
AcDbEntity
  8
0
 62
1
100
AcDbPolyline
 90
4
 70
1
 10
162.989380
 20
171.764545
 30
0.0
 10
176.628512
 20
171.764545
 30
0.0
 10
176.628512
 20
158.125413
 30
0.0
 10
162.989380
 20
158.125413
 30
0.0
  0
LWPOLYLINE
  5
114
100
AcDbEntity
  8
0
 62
1
100
AcDbPolyline
 90
4
 70
1
 10
178.979430
 20
171.741619
 30
0.0
 10
192.618562
 20
171.741619
 30
0.0
 10
192.618562
 20
158.102487
 30
0.0
 10
178.979430
 20
158.102487
 30
0.0
  0
LWPOLYLINE
  5
115
100
AcDbEntity
  8
0
 62
1
100
AcDbPolyline
 90
4
 70
1
 10
34.628735
 20
171.654106
 30
0.0
 10
48.267867
 20
171.654106
 30
0.0
 10
48.267867
 20
158.014974
 30
0.0
 10
34.628735
 20
158.014974
 30
0.0
  0
LWPOLYLINE
  5
116
100
AcDbEntity
  8
0
 62
1
100
AcDbPolyline
 90
4
 70
1
 10
19.406878
 20
154.141190
 30
0.0
 10
33.046010
 20
154.141190
 30
0.0
 10
33.046010
 20
140.502058
 30
0.0
 10
19.406878
 20
140.502058
 30
0.0
  0
LWPOLYLINE
  5
117
100
AcDbEntity
  8
0
 62
1
100
AcDbPolyline
 90
4
 70
1
 10
66.947906
 20
154.141190
 30
0.0
 10
80.587038
 20
154.141190
 30
0.0
 10
80.587038
 20
140.502058
 30
0.0
 10
66.947906
 20
140.502058
 30
0.0
  0
LWPOLYLINE
  5
118
100
AcDbEntity
  8
0
 62
1
100
AcDbPolyline
 90
4
 70
1
 10
83.721031
 20
154.141190
 30
0.0
 10
97.360163
 20
154.141190
 30
0.0
 10
97.360163
 20
140.502058
 30
0.0
 10
83.721031
 20
140.502058
 30
0.0
  0
LWPOLYLINE
  5
119
100
AcDbEntity
  8
0
 62
1
100
AcDbPolyline
 90
4
 70
1
 10
99.279648
 20
154.141190
 30
0.0
 10
112.918780
 20
154.141190
 30
0.0
 10
112.918780
 20
140.502058
 30
0.0
 10
99.279648
 20
140.502058
 30
0.0
  0
LWPOLYLINE
  5
11a
100
AcDbEntity
  8
0
 62
1
100
AcDbPolyline
 90
4
 70
1
 10
115.242940
 20
154.141190
 30
0.0
 10
128.882072
 20
154.141190
 30
0.0
 10
128.882072
 20
140.502058
 30
0.0
 10
115.242940
 20
140.502058
 30
0.0
  0
LWPOLYLINE
  5
11b
100
AcDbEntity
  8
0
 62
1
100
AcDbPolyline
 90
4
 70
1
 10
131.026640
 20
154.141190
 30
0.0
 10
144.665772
 20
154.141190
 30
0.0
 10
144.665772
 20
140.502058
 30
0.0
 10
131.026640
 20
140.502058
 30
0.0
  0
LWPOLYLINE
  5
11c
100
AcDbEntity
  8
0
 62
1
100
AcDbPolyline
 90
4
 70
1
 10
147.572360
 20
154.141190
 30
0.0
 10
161.211492
 20
154.141190
 30
0.0
 10
161.211492
 20
140.502058
 30
0.0
 10
147.572360
 20
140.502058
 30
0.0
  0
LWPOLYLINE
  5
11d
100
AcDbEntity
  8
0
 62
1
100
AcDbPolyline
 90
4
 70
1
 10
162.978130
 20
154.141190
 30
0.0
 10
176.617262
 20
154.141190
 30
0.0
 10
176.617262
 20
140.502058
 30
0.0
 10
162.978130
 20
140.502058
 30
0.0
  0
LWPOLYLINE
  5
11e
100
AcDbEntity
  8
0
 62
1
100
AcDbPolyline
 90
4
 70
1
 10
178.979430
 20
154.141190
 30
0.0
 10
192.618562
 20
154.141190
 30
0.0
 10
192.618562
 20
140.502058
 30
0.0
 10
178.979430
 20
140.502058
 30
0.0
  0
LWPOLYLINE
  5
11f
100
AcDbEntity
  8
0
 62
1
100
AcDbPolyline
 90
4
 70
1
 10
50.463974
 20
154.141190
 30
0.0
 10
64.103106
 20
154.141190
 30
0.0
 10
64.103106
 20
140.502058
 30
0.0
 10
50.463974
 20
140.502058
 30
0.0
  0
LWPOLYLINE
  5
120
100
AcDbEntity
  8
0
 62
1
100
AcDbPolyline
 90
4
 70
1
 10
34.847614
 20
154.141190
 30
0.0
 10
48.486746
 20
154.141190
 30
0.0
 10
48.486746
 20
140.502058
 30
0.0
 10
34.847614
 20
140.502058
 30
0.0
  0
LWPOLYLINE
  5
121
100
AcDbEntity
  8
0
 62
1
100
AcDbPolyline
 90
4
 70
1
 10
19.406878
 20
136.828644
 30
0.0
 10
33.046010
 20
136.828644
 30
0.0
 10
33.046010
 20
123.189512
 30
0.0
 10
19.406878
 20
123.189512
 30
0.0
  0
LWPOLYLINE
  5
122
100
AcDbEntity
  8
0
 62
1
100
AcDbPolyline
 90
4
 70
1
 10
66.947906
 20
136.828644
 30
0.0
 10
80.587038
 20
136.828644
 30
0.0
 10
80.587038
 20
123.189512
 30
0.0
 10
66.947906
 20
123.189512
 30
0.0
  0
LWPOLYLINE
  5
123
100
AcDbEntity
  8
0
 62
1
100
AcDbPolyline
 90
4
 70
1
 10
83.721031
 20
136.828644
 30
0.0
 10
97.360163
 20
136.828644
 30
0.0
 10
97.360163
 20
123.189512
 30
0.0
 10
83.721031
 20
123.189512
 30
0.0
  0
LWPOLYLINE
  5
124
100
AcDbEntity
  8
0
 62
1
100
AcDbPolyline
 90
4
 70
1
 10
99.279648
 20
136.828644
 30
0.0
 10
112.918780
 20
136.828644
 30
0.0
 10
112.918780
 20
123.189512
 30
0.0
 10
99.279648
 20
123.189512
 30
0.0
  0
LWPOLYLINE
  5
125
100
AcDbEntity
  8
0
 62
1
100
AcDbPolyline
 90
4
 70
1
 10
115.242940
 20
136.828644
 30
0.0
 10
128.882072
 20
136.828644
 30
0.0
 10
128.882072
 20
123.189512
 30
0.0
 10
115.242940
 20
123.189512
 30
0.0
  0
LWPOLYLINE
  5
126
100
AcDbEntity
  8
0
 62
1
100
AcDbPolyline
 90
4
 70
1
 10
131.026640
 20
136.828644
 30
0.0
 10
144.665772
 20
136.828644
 30
0.0
 10
144.665772
 20
123.189512
 30
0.0
 10
131.026640
 20
123.189512
 30
0.0
  0
LWPOLYLINE
  5
127
100
AcDbEntity
  8
0
 62
1
100
AcDbPolyline
 90
4
 70
1
 10
147.572360
 20
136.828644
 30
0.0
 10
161.211492
 20
136.828644
 30
0.0
 10
161.211492
 20
123.189512
 30
0.0
 10
147.572360
 20
123.189512
 30
0.0
  0
LWPOLYLINE
  5
128
100
AcDbEntity
  8
0
 62
1
100
AcDbPolyline
 90
4
 70
1
 10
162.978130
 20
136.828644
 30
0.0
 10
176.617262
 20
136.828644
 30
0.0
 10
176.617262
 20
123.189512
 30
0.0
 10
162.978130
 20
123.189512
 30
0.0
  0
LWPOLYLINE
  5
129
100
AcDbEntity
  8
0
 62
1
100
AcDbPolyline
 90
4
 70
1
 10
178.979430
 20
136.828644
 30
0.0
 10
192.618562
 20
136.828644
 30
0.0
 10
192.618562
 20
123.189512
 30
0.0
 10
178.979430
 20
123.189512
 30
0.0
  0
LWPOLYLINE
  5
12a
100
AcDbEntity
  8
0
 62
1
100
AcDbPolyline
 90
4
 70
1
 10
34.847614
 20
136.828644
 30
0.0
 10
48.486746
 20
136.828644
 30
0.0
 10
48.486746
 20
123.189512
 30
0.0
 10
34.847614
 20
123.189512
 30
0.0
  0
LWPOLYLINE
  5
12b
100
AcDbEntity
  8
0
 62
1
100
AcDbPolyline
 90
4
 70
1
 10
50.463974
 20
136.828644
 30
0.0
 10
64.103106
 20
136.828644
 30
0.0
 10
64.103106
 20
123.189512
 30
0.0
 10
50.463974
 20
123.189512
 30
0.0
  0
LWPOLYLINE
  5
12c
100
AcDbEntity
  8
0
 62
1
100
AcDbPolyline
 90
4
 70
1
 10
19.406878
 20
119.414604
 30
0.0
 10
33.046010
 20
119.414604
 30
0.0
 10
33.046010
 20
105.775472
 30
0.0
 10
19.406878
 20
105.775472
 30
0.0
  0
LWPOLYLINE
  5
12d
100
AcDbEntity
  8
0
 62
1
100
AcDbPolyline
 90
4
 70
1
 10
66.947906
 20
119.414604
 30
0.0
 10
80.587038
 20
119.414604
 30
0.0
 10
80.587038
 20
105.775472
 30
0.0
 10
66.947906
 20
105.775472
 30
0.0
  0
LWPOLYLINE
  5
12e
100
AcDbEntity
  8
0
 62
1
100
AcDbPolyline
 90
4
 70
1
 10
83.721031
 20
119.414604
 30
0.0
 10
97.360163
 20
119.414604
 30
0.0
 10
97.360163
 20
105.775472
 30
0.0
 10
83.721031
 20
105.775472
 30
0.0
  0
LWPOLYLINE
  5
12f
100
AcDbEntity
  8
0
 62
1
100
AcDbPolyline
 90
4
 70
1
 10
99.279648
 20
119.414604
 30
0.0
 10
112.918780
 20
119.414604
 30
0.0
 10
112.918780
 20
105.775472
 30
0.0
 10
99.279648
 20
105.775472
 30
0.0
  0
LWPOLYLINE
  5
130
100
AcDbEntity
  8
0
 62
1
100
AcDbPolyline
 90
4
 70
1
 10
115.242940
 20
119.414604
 30
0.0
 10
128.882072
 20
119.414604
 30
0.0
 10
128.882072
 20
105.775472
 30
0.0
 10
115.242940
 20
105.775472
 30
0.0
  0
LWPOLYLINE
  5
131
100
AcDbEntity
  8
0
 62
1
100
AcDbPolyline
 90
4
 70
1
 10
131.026640
 20
119.414604
 30
0.0
 10
144.665772
 20
119.414604
 30
0.0
 10
144.665772
 20
105.775472
 30
0.0
 10
131.026640
 20
105.775472
 30
0.0
  0
LWPOLYLINE
  5
132
100
AcDbEntity
  8
0
 62
1
100
AcDbPolyline
 90
4
 70
1
 10
147.572360
 20
119.414604
 30
0.0
 10
161.211492
 20
119.414604
 30
0.0
 10
161.211492
 20
105.775472
 30
0.0
 10
147.572360
 20
105.775472
 30
0.0
  0
LWPOLYLINE
  5
133
100
AcDbEntity
  8
0
 62
1
100
AcDbPolyline
 90
4
 70
1
 10
162.978130
 20
119.414604
 30
0.0
 10
176.617262
 20
119.414604
 30
0.0
 10
176.617262
 20
105.775472
 30
0.0
 10
162.978130
 20
105.775472
 30
0.0
  0
LWPOLYLINE
  5
134
100
AcDbEntity
  8
0
 62
1
100
AcDbPolyline
 90
4
 70
1
 10
178.979430
 20
119.414604
 30
0.0
 10
192.618562
 20
119.414604
 30
0.0
 10
192.618562
 20
105.775472
 30
0.0
 10
178.979430
 20
105.775472
 30
0.0
  0
LWPOLYLINE
  5
135
100
AcDbEntity
  8
0
 62
1
100
AcDbPolyline
 90
4
 70
1
 10
34.847614
 20
119.414604
 30
0.0
 10
48.486746
 20
119.414604
 30
0.0
 10
48.486746
 20
105.775472
 30
0.0
 10
34.847614
 20
105.775472
 30
0.0
  0
LWPOLYLINE
  5
136
100
AcDbEntity
  8
0
 62
1
100
AcDbPolyline
 90
4
 70
1
 10
50.463974
 20
119.414604
 30
0.0
 10
64.103106
 20
119.414604
 30
0.0
 10
64.103106
 20
105.775472
 30
0.0
 10
50.463974
 20
105.775472
 30
0.0
  0
LWPOLYLINE
  5
137
100
AcDbEntity
  8
0
 62
1
100
AcDbPolyline
 90
4
 70
1
 10
19.406878
 20
101.763820
 30
0.0
 10
33.046010
 20
101.763820
 30
0.0
 10
33.046010
 20
88.124688
 30
0.0
 10
19.406878
 20
88.124688
 30
0.0
  0
LWPOLYLINE
  5
138
100
AcDbEntity
  8
0
 62
1
100
AcDbPolyline
 90
4
 70
1
 10
66.947906
 20
101.763820
 30
0.0
 10
80.587038
 20
101.763820
 30
0.0
 10
80.587038
 20
88.124688
 30
0.0
 10
66.947906
 20
88.124688
 30
0.0
  0
LWPOLYLINE
  5
139
100
AcDbEntity
  8
0
 62
1
100
AcDbPolyline
 90
4
 70
1
 10
83.721031
 20
101.763820
 30
0.0
 10
97.360163
 20
101.763820
 30
0.0
 10
97.360163
 20
88.124688
 30
0.0
 10
83.721031
 20
88.124688
 30
0.0
  0
LWPOLYLINE
  5
13a
100
AcDbEntity
  8
0
 62
1
100
AcDbPolyline
 90
4
 70
1
 10
99.279648
 20
101.763820
 30
0.0
 10
112.918780
 20
101.763820
 30
0.0
 10
112.918780
 20
88.124688
 30
0.0
 10
99.279648
 20
88.124688
 30
0.0
  0
LWPOLYLINE
  5
13b
100
AcDbEntity
  8
0
 62
1
100
AcDbPolyline
 90
4
 70
1
 10
131.026640
 20
101.763820
 30
0.0
 10
144.665772
 20
101.763820
 30
0.0
 10
144.665772
 20
88.124688
 30
0.0
 10
131.026640
 20
88.124688
 30
0.0
  0
LWPOLYLINE
  5
13c
100
AcDbEntity
  8
0
 62
1
100
AcDbPolyline
 90
4
 70
1
 10
147.572360
 20
101.763810
 30
0.0
 10
161.211492
 20
101.763810
 30
0.0
 10
161.211492
 20
88.124678
 30
0.0
 10
147.572360
 20
88.124678
 30
0.0
  0
LWPOLYLINE
  5
13d
100
AcDbEntity
  8
0
 62
1
100
AcDbPolyline
 90
4
 70
1
 10
162.978130
 20
101.763820
 30
0.0
 10
176.617262
 20
101.763820
 30
0.0
 10
176.617262
 20
88.124688
 30
0.0
 10
162.978130
 20
88.124688
 30
0.0
  0
LWPOLYLINE
  5
13e
100
AcDbEntity
  8
0
 62
1
100
AcDbPolyline
 90
4
 70
1
 10
178.979430
 20
101.763820
 30
0.0
 10
192.618562
 20
101.763820
 30
0.0
 10
192.618562
 20
88.124688
 30
0.0
 10
178.979430
 20
88.124688
 30
0.0
  0
LWPOLYLINE
  5
13f
100
AcDbEntity
  8
0
 62
1
100
AcDbPolyline
 90
4
 70
1
 10
34.847614
 20
101.763820
 30
0.0
 10
48.486746
 20
101.763820
 30
0.0
 10
48.486746
 20
88.124688
 30
0.0
 10
34.847614
 20
88.124688
 30
0.0
  0
LWPOLYLINE
  5
140
100
AcDbEntity
  8
0
 62
1
100
AcDbPolyline
 90
4
 70
1
 10
50.463974
 20
101.763820
 30
0.0
 10
64.103106
 20
101.763820
 30
0.0
 10
64.103106
 20
88.124688
 30
0.0
 10
50.463974
 20
88.124688
 30
0.0
  0
LWPOLYLINE
  5
141
100
AcDbEntity
  8
0
 62
1
100
AcDbPolyline
 90
4
 70
1
 10
115.242940
 20
101.763820
 30
0.0
 10
128.882072
 20
101.763820
 30
0.0
 10
128.882072
 20
88.124688
 30
0.0
 10
115.242940
 20
88.124688
 30
0.0
  0
LWPOLYLINE
  5
142
100
AcDbEntity
  8
0
 62
1
100
AcDbPolyline
 90
4
 70
1
 10
19.406878
 20
84.325970
 30
0.0
 10
33.046010
 20
84.325970
 30
0.0
 10
33.046010
 20
70.686838
 30
0.0
 10
19.406878
 20
70.686838
 30
0.0
  0
LWPOLYLINE
  5
143
100
AcDbEntity
  8
0
 62
1
100
AcDbPolyline
 90
4
 70
1
 10
66.947906
 20
84.325970
 30
0.0
 10
80.587038
 20
84.325970
 30
0.0
 10
80.587038
 20
70.686838
 30
0.0
 10
66.947906
 20
70.686838
 30
0.0
  0
LWPOLYLINE
  5
144
100
AcDbEntity
  8
0
 62
1
100
AcDbPolyline
 90
4
 70
1
 10
83.721031
 20
84.325970
 30
0.0
 10
97.360163
 20
84.325970
 30
0.0
 10
97.360163
 20
70.686838
 30
0.0
 10
83.721031
 20
70.686838
 30
0.0
  0
LWPOLYLINE
  5
145
100
AcDbEntity
  8
0
 62
1
100
AcDbPolyline
 90
4
 70
1
 10
99.279648
 20
84.325970
 30
0.0
 10
112.918780
 20
84.325970
 30
0.0
 10
112.918780
 20
70.686838
 30
0.0
 10
99.279648
 20
70.686838
 30
0.0
  0
LWPOLYLINE
  5
146
100
AcDbEntity
  8
0
 62
1
100
AcDbPolyline
 90
4
 70
1
 10
115.242940
 20
84.325970
 30
0.0
 10
128.882072
 20
84.325970
 30
0.0
 10
128.882072
 20
70.686838
 30
0.0
 10
115.242940
 20
70.686838
 30
0.0
  0
LWPOLYLINE
  5
147
100
AcDbEntity
  8
0
 62
1
100
AcDbPolyline
 90
4
 70
1
 10
131.026640
 20
84.325970
 30
0.0
 10
144.665772
 20
84.325970
 30
0.0
 10
144.665772
 20
70.686838
 30
0.0
 10
131.026640
 20
70.686838
 30
0.0
  0
LWPOLYLINE
  5
148
100
AcDbEntity
  8
0
 62
1
100
AcDbPolyline
 90
4
 70
1
 10
147.572360
 20
84.325970
 30
0.0
 10
161.211492
 20
84.325970
 30
0.0
 10
161.211492
 20
70.686838
 30
0.0
 10
147.572360
 20
70.686838
 30
0.0
  0
LWPOLYLINE
  5
149
100
AcDbEntity
  8
0
 62
1
100
AcDbPolyline
 90
4
 70
1
 10
162.978130
 20
84.325970
 30
0.0
 10
176.617262
 20
84.325970
 30
0.0
 10
176.617262
 20
70.686838
 30
0.0
 10
162.978130
 20
70.686838
 30
0.0
  0
LWPOLYLINE
  5
14a
100
AcDbEntity
  8
0
 62
1
100
AcDbPolyline
 90
4
 70
1
 10
178.979430
 20
84.325970
 30
0.0
 10
192.618562
 20
84.325970
 30
0.0
 10
192.618562
 20
70.686838
 30
0.0
 10
178.979430
 20
70.686838
 30
0.0
  0
LWPOLYLINE
  5
14b
100
AcDbEntity
  8
0
 62
1
100
AcDbPolyline
 90
4
 70
1
 10
50.463974
 20
84.325970
 30
0.0
 10
64.103106
 20
84.325970
 30
0.0
 10
64.103106
 20
70.686838
 30
0.0
 10
50.463974
 20
70.686838
 30
0.0
  0
LWPOLYLINE
  5
14c
100
AcDbEntity
  8
0
 62
1
100
AcDbPolyline
 90
4
 70
1
 10
34.847614
 20
84.325970
 30
0.0
 10
48.486746
 20
84.325970
 30
0.0
 10
48.486746
 20
70.686838
 30
0.0
 10
34.847614
 20
70.686838
 30
0.0
  0
LWPOLYLINE
  5
14d
100
AcDbEntity
  8
0
 62
1
100
AcDbPolyline
 90
4
 70
1
 10
19.406878
 20
66.791000
 30
0.0
 10
33.046010
 20
66.791000
 30
0.0
 10
33.046010
 20
53.151868
 30
0.0
 10
19.406878
 20
53.151868
 30
0.0
  0
LWPOLYLINE
  5
14e
100
AcDbEntity
  8
0
 62
1
100
AcDbPolyline
 90
4
 70
1
 10
66.947906
 20
66.791000
 30
0.0
 10
80.587038
 20
66.791000
 30
0.0
 10
80.587038
 20
53.151868
 30
0.0
 10
66.947906
 20
53.151868
 30
0.0
  0
LWPOLYLINE
  5
14f
100
AcDbEntity
  8
0
 62
1
100
AcDbPolyline
 90
4
 70
1
 10
83.721031
 20
66.791000
 30
0.0
 10
97.360163
 20
66.791000
 30
0.0
 10
97.360163
 20
53.151868
 30
0.0
 10
83.721031
 20
53.151868
 30
0.0
  0
LWPOLYLINE
  5
150
100
AcDbEntity
  8
0
 62
1
100
AcDbPolyline
 90
4
 70
1
 10
99.279648
 20
66.791000
 30
0.0
 10
112.918780
 20
66.791000
 30
0.0
 10
112.918780
 20
53.151868
 30
0.0
 10
99.279648
 20
53.151868
 30
0.0
  0
LWPOLYLINE
  5
151
100
AcDbEntity
  8
0
 62
1
100
AcDbPolyline
 90
4
 70
1
 10
115.242940
 20
66.791000
 30
0.0
 10
128.882072
 20
66.791000
 30
0.0
 10
128.882072
 20
53.151868
 30
0.0
 10
115.242940
 20
53.151868
 30
0.0
  0
LWPOLYLINE
  5
152
100
AcDbEntity
  8
0
 62
1
100
AcDbPolyline
 90
4
 70
1
 10
131.026640
 20
66.791000
 30
0.0
 10
144.665772
 20
66.791000
 30
0.0
 10
144.665772
 20
53.151868
 30
0.0
 10
131.026640
 20
53.151868
 30
0.0
  0
LWPOLYLINE
  5
153
100
AcDbEntity
  8
0
 62
1
100
AcDbPolyline
 90
4
 70
1
 10
148.101520
 20
66.791000
 30
0.0
 10
161.740652
 20
66.791000
 30
0.0
 10
161.740652
 20
53.151868
 30
0.0
 10
148.101520
 20
53.151868
 30
0.0
  0
LWPOLYLINE
  5
154
100
AcDbEntity
  8
0
 62
1
100
AcDbPolyline
 90
4
 70
1
 10
162.978130
 20
66.791000
 30
0.0
 10
176.617262
 20
66.791000
 30
0.0
 10
176.617262
 20
53.151868
 30
0.0
 10
162.978130
 20
53.151868
 30
0.0
  0
LWPOLYLINE
  5
155
100
AcDbEntity
  8
0
 62
1
100
AcDbPolyline
 90
4
 70
1
 10
178.979430
 20
66.791000
 30
0.0
 10
192.618562
 20
66.791000
 30
0.0
 10
192.618562
 20
53.151868
 30
0.0
 10
178.979430
 20
53.151868
 30
0.0
  0
LWPOLYLINE
  5
156
100
AcDbEntity
  8
0
 62
1
100
AcDbPolyline
 90
4
 70
1
 10
34.847614
 20
66.791000
 30
0.0
 10
48.486746
 20
66.791000
 30
0.0
 10
48.486746
 20
53.151868
 30
0.0
 10
34.847614
 20
53.151868
 30
0.0
  0
LWPOLYLINE
  5
157
100
AcDbEntity
  8
0
 62
1
100
AcDbPolyline
 90
4
 70
1
 10
50.463974
 20
66.791000
 30
0.0
 10
64.103106
 20
66.791000
 30
0.0
 10
64.103106
 20
53.151868
 30
0.0
 10
50.463974
 20
53.151868
 30
0.0
  0
LWPOLYLINE
  5
158
100
AcDbEntity
  8
0
 62
1
100
AcDbPolyline
 90
4
 70
1
 10
66.947906
 20
49.153780
 30
0.0
 10
80.587038
 20
49.153780
 30
0.0
 10
80.587038
 20
35.514648
 30
0.0
 10
66.947906
 20
35.514648
 30
0.0
  0
LWPOLYLINE
  5
159
100
AcDbEntity
  8
0
 62
1
100
AcDbPolyline
 90
4
 70
1
 10
99.279648
 20
49.153780
 30
0.0
 10
112.918780
 20
49.153780
 30
0.0
 10
112.918780
 20
35.514648
 30
0.0
 10
99.279648
 20
35.514648
 30
0.0
  0
LWPOLYLINE
  5
15a
100
AcDbEntity
  8
0
 62
1
100
AcDbPolyline
 90
4
 70
1
 10
115.242940
 20
49.153780
 30
0.0
 10
128.882072
 20
49.153780
 30
0.0
 10
128.882072
 20
35.514648
 30
0.0
 10
115.242940
 20
35.514648
 30
0.0
  0
LWPOLYLINE
  5
15b
100
AcDbEntity
  8
0
 62
1
100
AcDbPolyline
 90
4
 70
1
 10
131.026640
 20
49.153780
 30
0.0
 10
144.665772
 20
49.153780
 30
0.0
 10
144.665772
 20
35.514648
 30
0.0
 10
131.026640
 20
35.514648
 30
0.0
  0
LWPOLYLINE
  5
15c
100
AcDbEntity
  8
0
 62
1
100
AcDbPolyline
 90
4
 70
1
 10
147.572360
 20
49.153780
 30
0.0
 10
161.211492
 20
49.153780
 30
0.0
 10
161.211492
 20
35.514648
 30
0.0
 10
147.572360
 20
35.514648
 30
0.0
  0
LWPOLYLINE
  5
15d
100
AcDbEntity
  8
0
 62
1
100
AcDbPolyline
 90
4
 70
1
 10
162.978130
 20
49.153780
 30
0.0
 10
176.617262
 20
49.153780
 30
0.0
 10
176.617262
 20
35.514648
 30
0.0
 10
162.978130
 20
35.514648
 30
0.0
  0
LWPOLYLINE
  5
15e
100
AcDbEntity
  8
0
 62
1
100
AcDbPolyline
 90
4
 70
1
 10
34.847614
 20
49.153780
 30
0.0
 10
48.486746
 20
49.153780
 30
0.0
 10
48.486746
 20
35.514648
 30
0.0
 10
34.847614
 20
35.514648
 30
0.0
  0
LWPOLYLINE
  5
15f
100
AcDbEntity
  8
0
 62
1
100
AcDbPolyline
 90
4
 70
1
 10
50.463974
 20
49.153780
 30
0.0
 10
64.103106
 20
49.153780
 30
0.0
 10
64.103106
 20
35.514648
 30
0.0
 10
50.463974
 20
35.514648
 30
0.0
  0
LWPOLYLINE
  5
160
100
AcDbEntity
  8
0
 62
1
100
AcDbPolyline
 90
4
 70
1
 10
19.406878
 20
49.153780
 30
0.0
 10
33.046010
 20
49.153780
 30
0.0
 10
33.046010
 20
35.514648
 30
0.0
 10
19.406878
 20
35.514648
 30
0.0
  0
LWPOLYLINE
  5
161
100
AcDbEntity
  8
0
 62
1
100
AcDbPolyline
 90
4
 70
1
 10
83.721031
 20
49.153780
 30
0.0
 10
97.360163
 20
49.153780
 30
0.0
 10
97.360163
 20
35.514648
 30
0.0
 10
83.721031
 20
35.514648
 30
0.0
  0
LWPOLYLINE
  5
162
100
AcDbEntity
  8
0
 62
1
100
AcDbPolyline
 90
4
 70
1
 10
178.979430
 20
49.153780
 30
0.0
 10
192.618562
 20
49.153780
 30
0.0
 10
192.618562
 20
35.514648
 30
0.0
 10
178.979430
 20
35.514648
 30
0.0
  0
LWPOLYLINE
  5
163
100
AcDbEntity
  8
0
 62
1
100
AcDbPolyline
 90
4
 70
1
 10
19.406878
 20
31.465440
 30
0.0
 10
33.046010
 20
31.465440
 30
0.0
 10
33.046010
 20
17.826308
 30
0.0
 10
19.406878
 20
17.826308
 30
0.0
  0
LWPOLYLINE
  5
164
100
AcDbEntity
  8
0
 62
1
100
AcDbPolyline
 90
4
 70
1
 10
66.947906
 20
31.465440
 30
0.0
 10
80.587038
 20
31.465440
 30
0.0
 10
80.587038
 20
17.826308
 30
0.0
 10
66.947906
 20
17.826308
 30
0.0
  0
LWPOLYLINE
  5
165
100
AcDbEntity
  8
0
 62
1
100
AcDbPolyline
 90
4
 70
1
 10
83.721031
 20
31.465440
 30
0.0
 10
97.360163
 20
31.465440
 30
0.0
 10
97.360163
 20
17.826308
 30
0.0
 10
83.721031
 20
17.826308
 30
0.0
  0
LWPOLYLINE
  5
166
100
AcDbEntity
  8
0
 62
1
100
AcDbPolyline
 90
4
 70
1
 10
99.279648
 20
31.465440
 30
0.0
 10
112.918780
 20
31.465440
 30
0.0
 10
112.918780
 20
17.826308
 30
0.0
 10
99.279648
 20
17.826308
 30
0.0
  0
LWPOLYLINE
  5
167
100
AcDbEntity
  8
0
 62
1
100
AcDbPolyline
 90
4
 70
1
 10
115.242940
 20
31.465440
 30
0.0
 10
128.882072
 20
31.465440
 30
0.0
 10
128.882072
 20
17.826308
 30
0.0
 10
115.242940
 20
17.826308
 30
0.0
  0
LWPOLYLINE
  5
168
100
AcDbEntity
  8
0
 62
1
100
AcDbPolyline
 90
4
 70
1
 10
131.026640
 20
31.465440
 30
0.0
 10
144.665772
 20
31.465440
 30
0.0
 10
144.665772
 20
17.826308
 30
0.0
 10
131.026640
 20
17.826308
 30
0.0
  0
LWPOLYLINE
  5
169
100
AcDbEntity
  8
0
 62
1
100
AcDbPolyline
 90
4
 70
1
 10
147.572360
 20
31.465440
 30
0.0
 10
161.211492
 20
31.465440
 30
0.0
 10
161.211492
 20
17.826308
 30
0.0
 10
147.572360
 20
17.826308
 30
0.0
  0
LWPOLYLINE
  5
16a
100
AcDbEntity
  8
0
 62
1
100
AcDbPolyline
 90
4
 70
1
 10
162.978130
 20
31.465440
 30
0.0
 10
176.617262
 20
31.465440
 30
0.0
 10
176.617262
 20
17.826308
 30
0.0
 10
162.978130
 20
17.826308
 30
0.0
  0
LWPOLYLINE
  5
16b
100
AcDbEntity
  8
0
 62
1
100
AcDbPolyline
 90
4
 70
1
 10
178.979430
 20
31.465440
 30
0.0
 10
192.618562
 20
31.465440
 30
0.0
 10
192.618562
 20
17.826308
 30
0.0
 10
178.979430
 20
17.826308
 30
0.0
  0
LWPOLYLINE
  5
16c
100
AcDbEntity
  8
0
 62
1
100
AcDbPolyline
 90
4
 70
1
 10
34.847614
 20
31.465440
 30
0.0
 10
48.486746
 20
31.465440
 30
0.0
 10
48.486746
 20
17.826308
 30
0.0
 10
34.847614
 20
17.826308
 30
0.0
  0
SPLINE
  5
16d
100
AcDbEntity
  8
0
 62
1
100
AcDbSpline
 70
8
 71
3
 72
8
 73
4
 74
0
 40
0
 40
0
 40
0
 40
0
 40
1
 40
1
 40
1
 40
1
 10
12.254489
 20
203.890723
 30
0.0
 10
10.258582
 20
203.890723
 30
0.0
 10
8.459205
 20
202.688418
 30
0.0
 10
7.695404
 20
200.844440
 30
0.0
  0
SPLINE
  5
16e
100
AcDbEntity
  8
0
 62
1
100
AcDbSpline
 70
8
 71
3
 72
8
 73
4
 74
0
 40
0
 40
0
 40
0
 40
0
 40
1
 40
1
 40
1
 40
1
 10
7.695404
 20
200.844440
 30
0.0
 10
6.931603
 20
199.000462
 30
0.0
 10
7.353797
 20
196.877952
 30
0.0
 10
8.765116
 20
195.466632
 30
0.0
  0
SPLINE
  5
16f
100
AcDbEntity
  8
0
 62
1
100
AcDbSpline
 70
8
 71
3
 72
8
 73
4
 74
0
 40
0
 40
0
 40
0
 40
0
 40
1
 40
1
 40
1
 40
1
 10
8.765116
 20
195.466632
 30
0.0
 10
10.176436
 20
194.055313
 30
0.0
 10
12.298946
 20
193.633119
 30
0.0
 10
14.142924
 20
194.396920
 30
0.0
  0
SPLINE
  5
170
100
AcDbEntity
  8
0
 62
1
100
AcDbSpline
 70
8
 71
3
 72
8
 73
4
 74
0
 40
0
 40
0
 40
0
 40
0
 40
1
 40
1
 40
1
 40
1
 10
14.142924
 20
194.396920
 30
0.0
 10
15.986902
 20
195.160721
 30
0.0
 10
17.189207
 20
196.960098
 30
0.0
 10
17.189207
 20
198.956005
 30
0.0
  0
SPLINE
  5
171
100
AcDbEntity
  8
0
 62
1
100
AcDbSpline
 70
8
 71
3
 72
8
 73
4
 74
0
 40
0
 40
0
 40
0
 40
0
 40
1
 40
1
 40
1
 40
1
 10
17.189207
 20
198.956005
 30
0.0
 10
17.189207
 20
200.264774
 30
0.0
 10
16.669301
 20
201.519938
 30
0.0
 10
15.743862
 20
202.445378
 30
0.0
  0
SPLINE
  5
172
100
AcDbEntity
  8
0
 62
1
100
AcDbSpline
 70
8
 71
3
 72
8
 73
4
 74
0
 40
0
 40
0
 40
0
 40
0
 40
1
 40
1
 40
1
 40
1
 10
15.743862
 20
202.445378
 30
0.0
 10
14.818422
 20
203.370817
 30
0.0
 10
13.563258
 20
203.890723
 30
0.0
 10
12.254489
 20
203.890723
 30
0.0
  0
LWPOLYLINE
  5
173
100
AcDbEntity
  8
0
 62
1
100
AcDbPolyline
 90
4
 70
1
 10
50.463974
 20
31.465440
 30
0.0
 10
64.103106
 20
31.465440
 30
0.0
 10
64.103106
 20
17.826308
 30
0.0
 10
50.463974
 20
17.826308
 30
0.0
  0
SPLINE
  5
174
100
AcDbEntity
  8
0
 62
1
100
AcDbSpline
 70
8
 71
3
 72
8
 73
4
 74
0
 40
0
 40
0
 40
0
 40
0
 40
1
 40
1
 40
1
 40
1
 10
199.820430
 20
204.741842
 30
0.0
 10
197.824523
 20
204.741842
 30
0.0
 10
196.025146
 20
203.539537
 30
0.0
 10
195.261345
 20
201.695559
 30
0.0
  0
SPLINE
  5
175
100
AcDbEntity
  8
0
 62
1
100
AcDbSpline
 70
8
 71
3
 72
8
 73
4
 74
0
 40
0
 40
0
 40
0
 40
0
 40
1
 40
1
 40
1
 40
1
 10
195.261345
 20
201.695559
 30
0.0
 10
194.497544
 20
199.851581
 30
0.0
 10
194.919738
 20
197.729071
 30
0.0
 10
196.331057
 20
196.317751
 30
0.0
  0
SPLINE
  5
176
100
AcDbEntity
  8
0
 62
1
100
AcDbSpline
 70
8
 71
3
 72
8
 73
4
 74
0
 40
0
 40
0
 40
0
 40
0
 40
1
 40
1
 40
1
 40
1
 10
196.331057
 20
196.317751
 30
0.0
 10
197.742377
 20
194.906432
 30
0.0
 10
199.864887
 20
194.484238
 30
0.0
 10
201.708865
 20
195.248039
 30
0.0
  0
SPLINE
  5
177
100
AcDbEntity
  8
0
 62
1
100
AcDbSpline
 70
8
 71
3
 72
8
 73
4
 74
0
 40
0
 40
0
 40
0
 40
0
 40
1
 40
1
 40
1
 40
1
 10
201.708865
 20
195.248039
 30
0.0
 10
203.552843
 20
196.011840
 30
0.0
 10
204.755148
 20
197.811217
 30
0.0
 10
204.755148
 20
199.807124
 30
0.0
  0
SPLINE
  5
178
100
AcDbEntity
  8
0
 62
1
100
AcDbSpline
 70
8
 71
3
 72
8
 73
4
 74
0
 40
0
 40
0
 40
0
 40
0
 40
1
 40
1
 40
1
 40
1
 10
204.755148
 20
199.807124
 30
0.0
 10
204.755148
 20
201.115893
 30
0.0
 10
204.235242
 20
202.371057
 30
0.0
 10
203.309803
 20
203.296497
 30
0.0
  0
SPLINE
  5
179
100
AcDbEntity
  8
0
 62
1
100
AcDbSpline
 70
8
 71
3
 72
8
 73
4
 74
0
 40
0
 40
0
 40
0
 40
0
 40
1
 40
1
 40
1
 40
1
 10
203.309803
 20
203.296497
 30
0.0
 10
202.384363
 20
204.221936
 30
0.0
 10
201.129199
 20
204.741842
 30
0.0
 10
199.820430
 20
204.741842
 30
0.0
  0
LWPOLYLINE
  5
17a
100
AcDbEntity
  8
0
 62
1
100
AcDbPolyline
 90
1
 70
1
 10
12.254489
 20
203.890723
 30
0.0
  0
SPLINE
  5
17b
100
AcDbEntity
  8
0
 62
1
100
AcDbSpline
 70
8
 71
3
 72
8
 73
4
 74
0
 40
0
 40
0
 40
0
 40
0
 40
1
 40
1
 40
1
 40
1
 10
199.436630
 20
16.275688
 30
0.0
 10
197.440723
 20
16.275688
 30
0.0
 10
195.641346
 20
15.073383
 30
0.0
 10
194.877545
 20
13.229405
 30
0.0
  0
SPLINE
  5
17c
100
AcDbEntity
  8
0
 62
1
100
AcDbSpline
 70
8
 71
3
 72
8
 73
4
 74
0
 40
0
 40
0
 40
0
 40
0
 40
1
 40
1
 40
1
 40
1
 10
194.877545
 20
13.229405
 30
0.0
 10
194.113744
 20
11.385427
 30
0.0
 10
194.535938
 20
9.262917
 30
0.0
 10
195.947257
 20
7.851597
 30
0.0
  0
SPLINE
  5
17d
100
AcDbEntity
  8
0
 62
1
100
AcDbSpline
 70
8
 71
3
 72
8
 73
4
 74
0
 40
0
 40
0
 40
0
 40
0
 40
1
 40
1
 40
1
 40
1
 10
195.947257
 20
7.851597
 30
0.0
 10
197.358577
 20
6.440278
 30
0.0
 10
199.481087
 20
6.018084
 30
0.0
 10
201.325065
 20
6.781885
 30
0.0
  0
SPLINE
  5
17e
100
AcDbEntity
  8
0
 62
1
100
AcDbSpline
 70
8
 71
3
 72
8
 73
4
 74
0
 40
0
 40
0
 40
0
 40
0
 40
1
 40
1
 40
1
 40
1
 10
201.325065
 20
6.781885
 30
0.0
 10
203.169043
 20
7.545686
 30
0.0
 10
204.371348
 20
9.345063
 30
0.0
 10
204.371348
 20
11.340970
 30
0.0
  0
SPLINE
  5
17f
100
AcDbEntity
  8
0
 62
1
100
AcDbSpline
 70
8
 71
3
 72
8
 73
4
 74
0
 40
0
 40
0
 40
0
 40
0
 40
1
 40
1
 40
1
 40
1
 10
204.371348
 20
11.340970
 30
0.0
 10
204.371348
 20
14.066340
 30
0.0
 10
202.162000
 20
16.275688
 30
0.0
 10
199.436630
 20
16.275688
 30
0.0
  0
LWPOLYLINE
  5
180
100
AcDbEntity
  8
0
 62
1
100
AcDbPolyline
 90
1
 70
1
 10
199.820430
 20
204.741842
 30
0.0
  0
SPLINE
  5
181
100
AcDbEntity
  8
0
 62
1
100
AcDbSpline
 70
8
 71
3
 72
8
 73
4
 74
0
 40
0
 40
0
 40
0
 40
0
 40
1
 40
1
 40
1
 40
1
 10
11.795872
 20
16.632058
 30
0.0
 10
9.799965
 20
16.632058
 30
0.0
 10
8.000588
 20
15.429753
 30
0.0
 10
7.236787
 20
13.585775
 30
0.0
  0
SPLINE
  5
182
100
AcDbEntity
  8
0
 62
1
100
AcDbSpline
 70
8
 71
3
 72
8
 73
4
 74
0
 40
0
 40
0
 40
0
 40
0
 40
1
 40
1
 40
1
 40
1
 10
7.236787
 20
13.585775
 30
0.0
 10
6.472986
 20
11.741797
 30
0.0
 10
6.895180
 20
9.619287
 30
0.0
 10
8.306499
 20
8.207967
 30
0.0
  0
SPLINE
  5
183
100
AcDbEntity
  8
0
 62
1
100
AcDbSpline
 70
8
 71
3
 72
8
 73
4
 74
0
 40
0
 40
0
 40
0
 40
0
 40
1
 40
1
 40
1
 40
1
 10
8.306499
 20
8.207967
 30
0.0
 10
9.717819
 20
6.796648
 30
0.0
 10
11.840329
 20
6.374454
 30
0.0
 10
13.684307
 20
7.138255
 30
0.0
  0
SPLINE
  5
184
100
AcDbEntity
  8
0
 62
1
100
AcDbSpline
 70
8
 71
3
 72
8
 73
4
 74
0
 40
0
 40
0
 40
0
 40
0
 40
1
 40
1
 40
1
 40
1
 10
13.684307
 20
7.138255
 30
0.0
 10
15.528285
 20
7.902056
 30
0.0
 10
16.730590
 20
9.701433
 30
0.0
 10
16.730590
 20
11.697340
 30
0.0
  0
SPLINE
  5
185
100
AcDbEntity
  8
0
 62
1
100
AcDbSpline
 70
8
 71
3
 72
8
 73
4
 74
0
 40
0
 40
0
 40
0
 40
0
 40
1
 40
1
 40
1
 40
1
 10
16.730590
 20
11.697340
 30
0.0
 10
16.730590
 20
13.006109
 30
0.0
 10
16.210684
 20
14.261273
 30
0.0
 10
15.285245
 20
15.186713
 30
0.0
  0
SPLINE
  5
186
100
AcDbEntity
  8
0
 62
1
100
AcDbSpline
 70
8
 71
3
 72
8
 73
4
 74
0
 40
0
 40
0
 40
0
 40
0
 40
1
 40
1
 40
1
 40
1
 10
15.285245
 20
15.186713
 30
0.0
 10
14.359805
 20
16.112152
 30
0.0
 10
13.104641
 20
16.632058
 30
0.0
 10
11.795872
 20
16.632058
 30
0.0
  0
LWPOLYLINE
  5
187
100
AcDbEntity
  8
0
 62
1
100
AcDbPolyline
 90
1
 70
1
 10
199.436630
 20
16.275688
 30
0.0
  0
LWPOLYLINE
  5
188
100
AcDbEntity
  8
0
 62
1
100
AcDbPolyline
 90
1
 70
1
 10
11.795872
 20
16.632058
 30
0.0
  0
LWPOLYLINE
  5
189
100
AcDbEntity
  8
0
 62
1
100
AcDbPolyline
 90
6
 70
1
 10
15.119467
 20
137.679052
 30
0.0
 10
14.843916
 20
141.388409
 30
0.0
 10
11.481110
 20
143.005387
 30
0.0
 10
8.393855
 20
140.913010
 30
0.0
 10
8.669406
 20
137.203653
 30
0.0
 10
12.032212
 20
135.586675
 30
0.0
  0
LWPOLYLINE
  5
18a
100
AcDbEntity
  8
0
 62
1
100
AcDbPolyline
 90
6
 70
1
 10
15.236397
 20
153.675133
 30
0.0
 10
14.960846
 20
157.384490
 30
0.0
 10
11.598040
 20
159.001468
 30
0.0
 10
8.510785
 20
156.909091
 30
0.0
 10
8.786336
 20
153.199734
 30
0.0
 10
12.149142
 20
151.582756
 30
0.0
  0
LWPOLYLINE
  5
18b
100
AcDbEntity
  8
0
 62
1
100
AcDbPolyline
 90
6
 70
1
 10
15.126129
 20
173.011850
 30
0.0
 10
14.850578
 20
176.721207
 30
0.0
 10
11.487772
 20
178.338185
 30
0.0
 10
8.400517
 20
176.245808
 30
0.0
 10
8.676068
 20
172.536451
 30
0.0
 10
12.038874
 20
170.919473
 30
0.0
  0
LWPOLYLINE
  5
18c
100
AcDbEntity
  8
0
 62
1
100
AcDbPolyline
 90
6
 70
1
 10
15.264373
 20
118.972450
 30
0.0
 10
14.988822
 20
122.681807
 30
0.0
 10
11.626016
 20
124.298785
 30
0.0
 10
8.538761
 20
122.206408
 30
0.0
 10
8.814312
 20
118.497051
 30
0.0
 10
12.177118
 20
116.880073
 30
0.0
  0
LWPOLYLINE
  5
18d
100
AcDbEntity
  8
0
 62
1
100
AcDbPolyline
 90
6
 70
1
 10
15.126479
 20
102.471470
 30
0.0
 10
14.850928
 20
106.180830
 30
0.0
 10
11.488122
 20
107.797810
 30
0.0
 10
8.400867
 20
105.705430
 30
0.0
 10
8.676418
 20
101.996070
 30
0.0
 10
12.039224
 20
100.379090
 30
0.0
  0
LWPOLYLINE
  5
18e
100
AcDbEntity
  8
0
 62
1
100
AcDbPolyline
 90
6
 70
1
 10
15.134397
 20
82.578680
 30
0.0
 10
14.858846
 20
86.288040
 30
0.0
 10
11.496040
 20
87.905020
 30
0.0
 10
8.408785
 20
85.812640
 30
0.0
 10
8.684336
 20
82.103280
 30
0.0
 10
12.047142
 20
80.486300
 30
0.0
  0
LWPOLYLINE
  5
18f
100
AcDbEntity
  8
0
 62
1
100
AcDbPolyline
 90
6
 70
1
 10
15.145258
 20
67.551080
 30
0.0
 10
14.869707
 20
71.260440
 30
0.0
 10
11.506901
 20
72.877420
 30
0.0
 10
8.419646
 20
70.785040
 30
0.0
 10
8.695197
 20
67.075680
 30
0.0
 10
12.058003
 20
65.458700
 30
0.0
  0
LWPOLYLINE
  5
190
100
AcDbEntity
  8
0
 62
1
100
AcDbPolyline
 90
6
 70
1
 10
15.141043
 20
31.495720
 30
0.0
 10
14.865492
 20
35.205080
 30
0.0
 10
11.502686
 20
36.822060
 30
0.0
 10
8.415431
 20
34.729680
 30
0.0
 10
8.690982
 20
31.020320
 30
0.0
 10
12.053788
 20
29.403340
 30
0.0
  0
LWPOLYLINE
  5
191
100
AcDbEntity
  8
0
 62
1
100
AcDbPolyline
 90
6
 70
1
 10
28.502501
 20
10.461350
 30
0.0
 10
28.226950
 20
14.170710
 30
0.0
 10
24.864144
 20
15.787690
 30
0.0
 10
21.776889
 20
13.695310
 30
0.0
 10
22.052440
 20
9.985950
 30
0.0
 10
25.415246
 20
8.368970
 30
0.0
  0
LWPOLYLINE
  5
192
100
AcDbEntity
  8
0
 62
1
100
AcDbPolyline
 90
6
 70
1
 10
59.987918
 20
10.527500
 30
0.0
 10
59.712367
 20
14.236860
 30
0.0
 10
56.349561
 20
15.853840
 30
0.0
 10
53.262306
 20
13.761460
 30
0.0
 10
53.537857
 20
10.052100
 30
0.0
 10
56.900663
 20
8.435120
 30
0.0
  0
LWPOLYLINE
  5
193
100
AcDbEntity
  8
0
 62
1
100
AcDbPolyline
 90
6
 70
1
 10
92.465522
 20
10.759010
 30
0.0
 10
92.189971
 20
14.468370
 30
0.0
 10
88.827165
 20
16.085350
 30
0.0
 10
85.739910
 20
13.992970
 30
0.0
 10
86.015461
 20
10.283610
 30
0.0
 10
89.378267
 20
8.666630
 30
0.0
  0
LWPOLYLINE
  5
194
100
AcDbEntity
  8
0
 62
1
100
AcDbPolyline
 90
6
 70
1
 10
123.884800
 20
10.924370
 30
0.0
 10
123.609240
 20
14.633730
 30
0.0
 10
120.246440
 20
16.250710
 30
0.0
 10
117.159180
 20
14.158330
 30
0.0
 10
117.434740
 20
10.448970
 30
0.0
 10
120.797540
 20
8.831990
 30
0.0
  0
LWPOLYLINE
  5
195
100
AcDbEntity
  8
0
 62
1
100
AcDbPolyline
 90
6
 70
1
 10
157.156150
 20
10.924370
 30
0.0
 10
156.880590
 20
14.633730
 30
0.0
 10
153.517790
 20
16.250710
 30
0.0
 10
150.430530
 20
14.158330
 30
0.0
 10
150.706090
 20
10.448970
 30
0.0
 10
154.068890
 20
8.831990
 30
0.0
  0
LWPOLYLINE
  5
196
100
AcDbEntity
  8
0
 62
1
100
AcDbPolyline
 90
6
 70
1
 10
188.740790
 20
10.858220
 30
0.0
 10
188.465230
 20
14.567580
 30
0.0
 10
185.102430
 20
16.184560
 30
0.0
 10
182.015170
 20
14.092180
 30
0.0
 10
182.290730
 20
10.382820
 30
0.0
 10
185.653530
 20
8.765840
 30
0.0
  0
LWPOLYLINE
  5
197
100
AcDbEntity
  8
0
 62
1
100
AcDbPolyline
 90
6
 70
1
 10
202.829850
 20
31.793380
 30
0.0
 10
202.554290
 20
35.502740
 30
0.0
 10
199.191490
 20
37.119720
 30
0.0
 10
196.104230
 20
35.027340
 30
0.0
 10
196.379790
 20
31.317980
 30
0.0
 10
199.742590
 20
29.701000
 30
0.0
  0
LWPOLYLINE
  5
198
100
AcDbEntity
  8
0
 62
1
100
AcDbPolyline
 90
6
 70
1
 10
202.631410
 20
51.438690
 30
0.0
 10
202.355850
 20
55.148050
 30
0.0
 10
198.993050
 20
56.765030
 30
0.0
 10
195.905790
 20
54.672650
 30
0.0
 10
196.181350
 20
50.963290
 30
0.0
 10
199.544150
 20
49.346310
 30
0.0
  0
LWPOLYLINE
  5
199
100
AcDbEntity
  8
0
 62
1
100
AcDbPolyline
 90
6
 70
1
 10
202.697560
 20
67.875930
 30
0.0
 10
202.422000
 20
71.585290
 30
0.0
 10
199.059200
 20
73.202270
 30
0.0
 10
195.971940
 20
71.109890
 30
0.0
 10
196.247500
 20
67.400530
 30
0.0
 10
199.610300
 20
65.783550
 30
0.0
  0
LWPOLYLINE
  5
19a
100
AcDbEntity
  8
0
 62
1
100
AcDbPolyline
 90
6
 70
1
 10
202.735230
 20
87.276260
 30
0.0
 10
202.459670
 20
90.985620
 30
0.0
 10
199.096870
 20
92.602600
 30
0.0
 10
196.009610
 20
90.510220
 30
0.0
 10
196.285170
 20
86.800860
 30
0.0
 10
199.647970
 20
85.183880
 30
0.0
  0
LWPOLYLINE
  5
19b
100
AcDbEntity
  8
0
 62
1
100
AcDbPolyline
 90
6
 70
1
 10
202.594670
 20
102.506340
 30
0.0
 10
202.319110
 20
106.215700
 30
0.0
 10
198.956310
 20
107.832680
 30
0.0
 10
195.869050
 20
105.740300
 30
0.0
 10
196.144610
 20
102.030940
 30
0.0
 10
199.507410
 20
100.413960
 30
0.0
  0
LWPOLYLINE
  5
19c
100
AcDbEntity
  8
0
 62
1
100
AcDbPolyline
 90
6
 70
1
 10
202.472080
 20
122.822523
 30
0.0
 10
202.196520
 20
126.531880
 30
0.0
 10
198.833720
 20
128.148858
 30
0.0
 10
195.746460
 20
126.056481
 30
0.0
 10
196.022020
 20
122.347124
 30
0.0
 10
199.384820
 20
120.730146
 30
0.0
  0
LWPOLYLINE
  5
19d
100
AcDbEntity
  8
0
 62
1
100
AcDbPolyline
 90
6
 70
1
 10
202.846260
 20
137.836389
 30
0.0
 10
202.570700
 20
141.545746
 30
0.0
 10
199.207900
 20
143.162724
 30
0.0
 10
196.120640
 20
141.070347
 30
0.0
 10
196.396200
 20
137.360990
 30
0.0
 10
199.759000
 20
135.744012
 30
0.0
  0
LWPOLYLINE
  5
19e
100
AcDbEntity
  8
0
 62
1
100
AcDbPolyline
 90
6
 70
1
 10
202.975850
 20
157.265508
 30
0.0
 10
202.700290
 20
160.974865
 30
0.0
 10
199.337490
 20
162.591843
 30
0.0
 10
196.250230
 20
160.499466
 30
0.0
 10
196.525790
 20
156.790109
 30
0.0
 10
199.888590
 20
155.173131
 30
0.0
  0
LWPOLYLINE
  5
19f
100
AcDbEntity
  8
0
 62
1
100
AcDbPolyline
 90
6
 70
1
 10
202.964120
 20
173.116434
 30
0.0
 10
202.688560
 20
176.825791
 30
0.0
 10
199.325760
 20
178.442769
 30
0.0
 10
196.238500
 20
176.350392
 30
0.0
 10
196.514060
 20
172.641035
 30
0.0
 10
199.876860
 20
171.024057
 30
0.0
  0
LWPOLYLINE
  5
1a0
100
AcDbEntity
  8
0
 62
1
100
AcDbPolyline
 90
6
 70
1
 10
15.024112
 20
47.515190
 30
0.0
 10
14.748561
 20
51.224550
 30
0.0
 10
11.385755
 20
52.841530
 30
0.0
 10
8.298500
 20
50.749150
 30
0.0
 10
8.574051
 20
47.039790
 30
0.0
 10
11.936857
 20
45.422810
 30
0.0
  0
LWPOLYLINE
  5
1a1
100
AcDbEntity
  8
0
 62
1
100
AcDbPolyline
 90
4
 70
1
 10
0.188190
 20
209.743208
 30
0.0
 10
210.099480
 20
209.743208
 30
0.0
 10
210.099480
 20
-0.030872
 30
0.0
 10
0.188190
 20
-0.030872
 30
0.0
  0
LWPOLYLINE
  5
1a2
100
AcDbEntity
  8
0
 62
1
100
AcDbPolyline
 90
8
 70
1
 10
19.407248
 20
209.697752
 30
0.0
 10
192.952980
 20
209.697752
 30
0.0
 10
192.952980
 20
190.642294
 30
0.0
 10
163.092480
 20
190.642294
 30
0.0
 10
163.092480
 20
192.780838
 30
0.0
 10
49.862207
 20
192.780838
 30
0.0
 10
49.749653
 20
190.642294
 30
0.0
 10
19.407248
 20
190.642294
 30
0.0
  0
ENDSEC
  0
SECTION
  2
OBJECTS
  0
DICTIONARY
  5
C
330
0
100
AcDbDictionary
  3
ACAD_GROUP
350
D
  3
ACAD_MLINESTYLE
350
17
  0
DICTIONARY
  5
D
330
C
100
AcDbDictionary
  0
DICTIONARY
  5
1A
330
C
100
AcDbDictionary
  0
DICTIONARY
  5
17
330
C
100
AcDbDictionary
  3
STANDARD
350
18
  0
DICTIONARY
  5
19
330
C
100
AcDbDictionary
  0
ENDSEC
  0
EOF
