  0
SECTION
  2
HEADER
  9
$ACADVER
  1
AC1014
  9
$HANDSEED
  5
FFFF
  9
$MEASUREMENT
 70
     1
  0
ENDSEC
  0
SECTION
  2
TABLES
  0
TABLE
  2
VPORT
  5
8
330
0
100
AcDbSymbolTable
 70
     4
  0
VPORT
  5
2E
330
8
100
AcDbSymbolTableRecord
100
AcDbViewportTableRecord
  2
*ACTIVE
 70
     0
 10
0.0
 20
0.0
 11
1.0
 21
1.0
 12
210.0
 22
148.5
 13
0.0
 23
0.0
 14
10.0
 24
10.0
 15
10.0
 25
10.0
 16
0.0
 26
0.0
 36
1.0
 17
0.0
 27
0.0
 37
0.0
 40
341.0
 41
1.24
 42
50.0
 43
0.0
 44
0.0
 50
0.0
 51
0.0
 71
     0
 72
   100
 73
     1
 74
     3
 75
     0
 76
     0
 77
     0
 78
     0
  0
ENDTAB
  0
TABLE
  2
LTYPE
  5
5
330
0
100
AcDbSymbolTable
 70
     1
  0
LTYPE
  5
14
330
5
100
AcDbSymbolTableRecord
100
AcDbLinetypeTableRecord
  2
BYBLOCK
 70
     0
  3

 72
    65
 73
     0
 40
0.0
  0
LTYPE
  5
15
330
5
100
AcDbSymbolTableRecord
100
AcDbLinetypeTableRecord
  2
BYLAYER
 70
     0
  3

 72
    65
 73
     0
 40
0.0
  0
LTYPE
  5
16
330
5
100
AcDbSymbolTableRecord
100
AcDbLinetypeTableRecord
  2
CONTINUOUS
 70
     0
  3
Solid line
 72
    65
 73
     0
 40
0.0
  0
ENDTAB
  0
TABLE
  2
LAYER
  5
2
100
AcDbSymbolTable
 70
1
  0
LAYER
  5
50
100
AcDbSymbolTableRecord
100
AcDbLayerTableRecord
  2
0
 70
0
  6
CONTINUOUS
  0
ENDTAB
  0
TABLE
  2
STYLE
  5
3
330
0
100
AcDbSymbolTable
 70
     1
  0
STYLE
  5
11
330
3
100
AcDbSymbolTableRecord
100
AcDbTextStyleTableRecord
  2
STANDARD
 70
     0
 40
0.0
 41
1.0
 50
0.0
 71
     0
 42
2.5
  3
txt
  4

  0
ENDTAB
  0
TABLE
  2
VIEW
  5
6
330
0
100
AcDbSymbolTable
 70
     0
  0
ENDTAB
  0
TABLE
  2
UCS
  5
7
330
0
100
AcDbSymbolTable
 70
     0
  0
ENDTAB
  0
TABLE
  2
APPID
  5
9
330
0
100
AcDbSymbolTable
 70
     2
  0
APPID
  5
12
330
9
100
AcDbSymbolTableRecord
100
AcDbRegAppTableRecord
  2
ACAD
 70
     0
  0
ENDTAB
  0
TABLE
  2
DIMSTYLE
  5
A
330
0
100
AcDbSymbolTable
 70
     1
  0
DIMSTYLE
105
27
330
A
100
AcDbSymbolTableRecord
100
AcDbDimStyleTableRecord
  2
ISO-25
 70
     0
  3

  4

  5

  6

  7

 40
1.0
 41
2.5
 42
0.625
 43
3.75
 44
1.25
 45
0.0
 46
0.0
 47
0.0
 48
0.0
140
2.5
141
2.5
142
0.0
143
0.03937007874016
144
1.0
145
0.0
146
1.0
147
0.625
 71
     0
 72
     0
 73
     0
 74
     0
 75
     0
 76
     0
 77
     1
 78
     8
170
     0
171
     3
172
     1
173
     0
174
     0
175
     0
176
     0
177
     0
178
     0
270
     2
271
     2
272
     2
273
     2
274
     3
340
11
275
     0
280
     0
281
     0
282
     0
283
     0
284
     8
285
     0
286
     0
287
     3
288
     0
  0
ENDTAB
  0
TABLE
  2
BLOCK_RECORD
  5
1
330
0
100
AcDbSymbolTable
 70
     1
  0
BLOCK_RECORD
  5
1F
330
1
100
AcDbSymbolTableRecord
100
AcDbBlockTableRecord
  2
*MODEL_SPACE
  0
BLOCK_RECORD
  5
1B
330
1
100
AcDbSymbolTableRecord
100
AcDbBlockTableRecord
  2
*PAPER_SPACE
  0
ENDTAB
  0
ENDSEC
  0
SECTION
  2
BLOCKS
  0
BLOCK
  5
20
330
1F
100
AcDbEntity
  8
0
100
AcDbBlockBegin
  2
*MODEL_SPACE
 70
     0
 10
0.0
 20
0.0
 30
0.0
  3
*MODEL_SPACE
  1

  0
ENDBLK
  5
21
330
1F
100
AcDbEntity
  8
0
100
AcDbBlockEnd
  0
BLOCK
  5
1C
330
1B
100
AcDbEntity
 67
     1
  8
0
100
AcDbBlockBegin
  2
*PAPER_SPACE
  1

  0
ENDBLK
  5
1D
330
1B
100
AcDbEntity
 67
     1
  8
0
100
AcDbBlockEnd
  0
ENDSEC
  0
SECTION
  2
ENTITIES
  0
LWPOLYLINE
  5
100
100
AcDbEntity
  8
0
 62
1
100
AcDbPolyline
 90
4
 70
1
 10
0.764050
 20
8.255825
 30
0.0
 10
7.596559
 20
8.255825
 30
0.0
 10
7.596559
 20
7.505610
 30
0.0
 10
0.764050
 20
7.505610
 30
0.0
  0
LWPOLYLINE
  5
101
100
AcDbEntity
  8
0
 62
1
100
AcDbPolyline
 90
4
 70
1
 10
0.764050
 20
7.454697
 30
0.0
 10
1.301024
 20
7.454697
 30
0.0
 10
1.301024
 20
6.917723
 30
0.0
 10
0.764050
 20
6.917723
 30
0.0
  0
LWPOLYLINE
  5
102
100
AcDbEntity
  8
0
 62
1
100
AcDbPolyline
 90
4
 70
1
 10
1.349675
 20
7.452783
 30
0.0
 10
1.886649
 20
7.452783
 30
0.0
 10
1.886649
 20
6.915810
 30
0.0
 10
1.349675
 20
6.915810
 30
0.0
  0
LWPOLYLINE
  5
103
100
AcDbEntity
  8
0
 62
1
100
AcDbPolyline
 90
4
 70
1
 10
1.960478
 20
7.455079
 30
0.0
 10
2.497452
 20
7.455079
 30
0.0
 10
2.497452
 20
6.918105
 30
0.0
 10
1.960478
 20
6.918105
 30
0.0
  0
LWPOLYLINE
  5
104
100
AcDbEntity
  8
0
 62
1
100
AcDbPolyline
 90
4
 70
1
 10
2.635744
 20
7.454697
 30
0.0
 10
3.172718
 20
7.454697
 30
0.0
 10
3.172718
 20
6.917723
 30
0.0
 10
2.635744
 20
6.917723
 30
0.0
  0
LWPOLYLINE
  5
105
100
AcDbEntity
  8
0
 62
1
100
AcDbPolyline
 90
4
 70
1
 10
3.296104
 20
7.454697
 30
0.0
 10
3.833077
 20
7.454697
 30
0.0
 10
3.833077
 20
6.917723
 30
0.0
 10
3.296104
 20
6.917723
 30
0.0
  0
LWPOLYLINE
  5
106
100
AcDbEntity
  8
0
 62
1
100
AcDbPolyline
 90
4
 70
1
 10
3.908648
 20
7.454697
 30
0.0
 10
4.445621
 20
7.454697
 30
0.0
 10
4.445621
 20
6.917723
 30
0.0
 10
3.908648
 20
6.917723
 30
0.0
  0
LWPOLYLINE
  5
107
100
AcDbEntity
  8
0
 62
1
100
AcDbPolyline
 90
4
 70
1
 10
4.537124
 20
7.454697
 30
0.0
 10
5.074097
 20
7.454697
 30
0.0
 10
5.074097
 20
6.917723
 30
0.0
 10
4.537124
 20
6.917723
 30
0.0
  0
LWPOLYLINE
  5
108
100
AcDbEntity
  8
0
 62
1
100
AcDbPolyline
 90
4
 70
1
 10
5.158530
 20
7.454697
 30
0.0
 10
5.695504
 20
7.454697
 30
0.0
 10
5.695504
 20
6.917723
 30
0.0
 10
5.158530
 20
6.917723
 30
0.0
  0
LWPOLYLINE
  5
109
100
AcDbEntity
  8
0
 62
1
100
AcDbPolyline
 90
4
 70
1
 10
5.809936
 20
7.454697
 30
0.0
 10
6.346910
 20
7.454697
 30
0.0
 10
6.346910
 20
6.917723
 30
0.0
 10
5.809936
 20
6.917723
 30
0.0
  0
LWPOLYLINE
  5
10a
100
AcDbEntity
  8
0
 62
1
100
AcDbPolyline
 90
4
 70
1
 10
6.416462
 20
7.454697
 30
0.0
 10
6.953436
 20
7.454697
 30
0.0
 10
6.953436
 20
6.917723
 30
0.0
 10
6.416462
 20
6.917723
 30
0.0
  0
LWPOLYLINE
  5
10b
100
AcDbEntity
  8
0
 62
1
100
AcDbPolyline
 90
4
 70
1
 10
7.046435
 20
7.454697
 30
0.0
 10
7.583409
 20
7.454697
 30
0.0
 10
7.583409
 20
6.917723
 30
0.0
 10
7.046435
 20
6.917723
 30
0.0
  0
LWPOLYLINE
  5
10c
100
AcDbEntity
  8
0
 62
1
100
AcDbPolyline
 90
4
 70
1
 10
1.978153
 20
6.758036
 30
0.0
 10
2.515127
 20
6.758036
 30
0.0
 10
2.515127
 20
6.221062
 30
0.0
 10
1.978153
 20
6.221062
 30
0.0
  0
LWPOLYLINE
  5
10d
100
AcDbEntity
  8
0
 62
1
100
AcDbPolyline
 90
4
 70
1
 10
0.764050
 20
6.761481
 30
0.0
 10
1.301024
 20
6.761481
 30
0.0
 10
1.301024
 20
6.224507
 30
0.0
 10
0.764050
 20
6.224507
 30
0.0
  0
LWPOLYLINE
  5
10e
100
AcDbEntity
  8
0
 62
1
100
AcDbPolyline
 90
4
 70
1
 10
2.634738
 20
6.758627
 30
0.0
 10
3.171712
 20
6.758627
 30
0.0
 10
3.171712
 20
6.221653
 30
0.0
 10
2.634738
 20
6.221653
 30
0.0
  0
LWPOLYLINE
  5
10f
100
AcDbEntity
  8
0
 62
1
100
AcDbPolyline
 90
4
 70
1
 10
3.296104
 20
6.761481
 30
0.0
 10
3.833077
 20
6.761481
 30
0.0
 10
3.833077
 20
6.224507
 30
0.0
 10
3.296104
 20
6.224507
 30
0.0
  0
LWPOLYLINE
  5
110
100
AcDbEntity
  8
0
 62
1
100
AcDbPolyline
 90
4
 70
1
 10
3.908648
 20
6.761481
 30
0.0
 10
4.445621
 20
6.761481
 30
0.0
 10
4.445621
 20
6.224507
 30
0.0
 10
3.908648
 20
6.224507
 30
0.0
  0
LWPOLYLINE
  5
111
100
AcDbEntity
  8
0
 62
1
100
AcDbPolyline
 90
4
 70
1
 10
4.537124
 20
6.761481
 30
0.0
 10
5.074097
 20
6.761481
 30
0.0
 10
5.074097
 20
6.224507
 30
0.0
 10
4.537124
 20
6.224507
 30
0.0
  0
LWPOLYLINE
  5
112
100
AcDbEntity
  8
0
 62
1
100
AcDbPolyline
 90
4
 70
1
 10
5.158529
 20
6.761481
 30
0.0
 10
5.695503
 20
6.761481
 30
0.0
 10
5.695503
 20
6.224507
 30
0.0
 10
5.158529
 20
6.224507
 30
0.0
  0
LWPOLYLINE
  5
113
100
AcDbEntity
  8
0
 62
1
100
AcDbPolyline
 90
4
 70
1
 10
5.830769
 20
6.761481
 30
0.0
 10
6.367742
 20
6.761481
 30
0.0
 10
6.367742
 20
6.224507
 30
0.0
 10
5.830769
 20
6.224507
 30
0.0
  0
LWPOLYLINE
  5
114
100
AcDbEntity
  8
0
 62
1
100
AcDbPolyline
 90
4
 70
1
 10
6.416905
 20
6.762384
 30
0.0
 10
6.953878
 20
6.762384
 30
0.0
 10
6.953878
 20
6.225410
 30
0.0
 10
6.416905
 20
6.225410
 30
0.0
  0
LWPOLYLINE
  5
115
100
AcDbEntity
  8
0
 62
1
100
AcDbPolyline
 90
4
 70
1
 10
7.046434
 20
6.761481
 30
0.0
 10
7.583408
 20
6.761481
 30
0.0
 10
7.583408
 20
6.224507
 30
0.0
 10
7.046434
 20
6.224507
 30
0.0
  0
LWPOLYLINE
  5
116
100
AcDbEntity
  8
0
 62
1
100
AcDbPolyline
 90
4
 70
1
 10
1.363336
 20
6.758036
 30
0.0
 10
1.900310
 20
6.758036
 30
0.0
 10
1.900310
 20
6.221062
 30
0.0
 10
1.363336
 20
6.221062
 30
0.0
  0
LWPOLYLINE
  5
117
100
AcDbEntity
  8
0
 62
1
100
AcDbPolyline
 90
4
 70
1
 10
0.764050
 20
6.068551
 30
0.0
 10
1.301024
 20
6.068551
 30
0.0
 10
1.301024
 20
5.531577
 30
0.0
 10
0.764050
 20
5.531577
 30
0.0
  0
LWPOLYLINE
  5
118
100
AcDbEntity
  8
0
 62
1
100
AcDbPolyline
 90
4
 70
1
 10
2.635744
 20
6.068551
 30
0.0
 10
3.172718
 20
6.068551
 30
0.0
 10
3.172718
 20
5.531577
 30
0.0
 10
2.635744
 20
5.531577
 30
0.0
  0
LWPOLYLINE
  5
119
100
AcDbEntity
  8
0
 62
1
100
AcDbPolyline
 90
4
 70
1
 10
3.296104
 20
6.068551
 30
0.0
 10
3.833077
 20
6.068551
 30
0.0
 10
3.833077
 20
5.531577
 30
0.0
 10
3.296104
 20
5.531577
 30
0.0
  0
LWPOLYLINE
  5
11a
100
AcDbEntity
  8
0
 62
1
100
AcDbPolyline
 90
4
 70
1
 10
3.908648
 20
6.068551
 30
0.0
 10
4.445621
 20
6.068551
 30
0.0
 10
4.445621
 20
5.531577
 30
0.0
 10
3.908648
 20
5.531577
 30
0.0
  0
LWPOLYLINE
  5
11b
100
AcDbEntity
  8
0
 62
1
100
AcDbPolyline
 90
4
 70
1
 10
4.537124
 20
6.068551
 30
0.0
 10
5.074097
 20
6.068551
 30
0.0
 10
5.074097
 20
5.531577
 30
0.0
 10
4.537124
 20
5.531577
 30
0.0
  0
LWPOLYLINE
  5
11c
100
AcDbEntity
  8
0
 62
1
100
AcDbPolyline
 90
4
 70
1
 10
5.158529
 20
6.068551
 30
0.0
 10
5.695503
 20
6.068551
 30
0.0
 10
5.695503
 20
5.531577
 30
0.0
 10
5.158529
 20
5.531577
 30
0.0
  0
LWPOLYLINE
  5
11d
100
AcDbEntity
  8
0
 62
1
100
AcDbPolyline
 90
4
 70
1
 10
5.809935
 20
6.068551
 30
0.0
 10
6.346909
 20
6.068551
 30
0.0
 10
6.346909
 20
5.531577
 30
0.0
 10
5.809935
 20
5.531577
 30
0.0
  0
LWPOLYLINE
  5
11e
100
AcDbEntity
  8
0
 62
1
100
AcDbPolyline
 90
4
 70
1
 10
6.416462
 20
6.068551
 30
0.0
 10
6.953436
 20
6.068551
 30
0.0
 10
6.953436
 20
5.531577
 30
0.0
 10
6.416462
 20
5.531577
 30
0.0
  0
LWPOLYLINE
  5
11f
100
AcDbEntity
  8
0
 62
1
100
AcDbPolyline
 90
4
 70
1
 10
7.046434
 20
6.068551
 30
0.0
 10
7.583408
 20
6.068551
 30
0.0
 10
7.583408
 20
5.531577
 30
0.0
 10
7.046434
 20
5.531577
 30
0.0
  0
LWPOLYLINE
  5
120
100
AcDbEntity
  8
0
 62
1
100
AcDbPolyline
 90
4
 70
1
 10
1.986771
 20
6.068551
 30
0.0
 10
2.523744
 20
6.068551
 30
0.0
 10
2.523744
 20
5.531577
 30
0.0
 10
1.986771
 20
5.531577
 30
0.0
  0
LWPOLYLINE
  5
121
100
AcDbEntity
  8
0
 62
1
100
AcDbPolyline
 90
4
 70
1
 10
1.371953
 20
6.068551
 30
0.0
 10
1.908927
 20
6.068551
 30
0.0
 10
1.908927
 20
5.531577
 30
0.0
 10
1.371953
 20
5.531577
 30
0.0
  0
LWPOLYLINE
  5
122
100
AcDbEntity
  8
0
 62
1
100
AcDbPolyline
 90
4
 70
1
 10
0.764050
 20
5.386954
 30
0.0
 10
1.301024
 20
5.386954
 30
0.0
 10
1.301024
 20
4.849981
 30
0.0
 10
0.764050
 20
4.849981
 30
0.0
  0
LWPOLYLINE
  5
123
100
AcDbEntity
  8
0
 62
1
100
AcDbPolyline
 90
4
 70
1
 10
2.635744
 20
5.386954
 30
0.0
 10
3.172718
 20
5.386954
 30
0.0
 10
3.172718
 20
4.849981
 30
0.0
 10
2.635744
 20
4.849981
 30
0.0
  0
LWPOLYLINE
  5
124
100
AcDbEntity
  8
0
 62
1
100
AcDbPolyline
 90
4
 70
1
 10
3.296104
 20
5.386954
 30
0.0
 10
3.833077
 20
5.386954
 30
0.0
 10
3.833077
 20
4.849981
 30
0.0
 10
3.296104
 20
4.849981
 30
0.0
  0
LWPOLYLINE
  5
125
100
AcDbEntity
  8
0
 62
1
100
AcDbPolyline
 90
4
 70
1
 10
3.908648
 20
5.386954
 30
0.0
 10
4.445621
 20
5.386954
 30
0.0
 10
4.445621
 20
4.849981
 30
0.0
 10
3.908648
 20
4.849981
 30
0.0
  0
LWPOLYLINE
  5
126
100
AcDbEntity
  8
0
 62
1
100
AcDbPolyline
 90
4
 70
1
 10
4.537124
 20
5.386954
 30
0.0
 10
5.074097
 20
5.386954
 30
0.0
 10
5.074097
 20
4.849981
 30
0.0
 10
4.537124
 20
4.849981
 30
0.0
  0
LWPOLYLINE
  5
127
100
AcDbEntity
  8
0
 62
1
100
AcDbPolyline
 90
4
 70
1
 10
5.158529
 20
5.386954
 30
0.0
 10
5.695503
 20
5.386954
 30
0.0
 10
5.695503
 20
4.849981
 30
0.0
 10
5.158529
 20
4.849981
 30
0.0
  0
LWPOLYLINE
  5
128
100
AcDbEntity
  8
0
 62
1
100
AcDbPolyline
 90
4
 70
1
 10
5.809935
 20
5.386954
 30
0.0
 10
6.346909
 20
5.386954
 30
0.0
 10
6.346909
 20
4.849981
 30
0.0
 10
5.809935
 20
4.849981
 30
0.0
  0
LWPOLYLINE
  5
129
100
AcDbEntity
  8
0
 62
1
100
AcDbPolyline
 90
4
 70
1
 10
6.416462
 20
5.386954
 30
0.0
 10
6.953436
 20
5.386954
 30
0.0
 10
6.953436
 20
4.849981
 30
0.0
 10
6.416462
 20
4.849981
 30
0.0
  0
LWPOLYLINE
  5
12a
100
AcDbEntity
  8
0
 62
1
100
AcDbPolyline
 90
4
 70
1
 10
7.046434
 20
5.386954
 30
0.0
 10
7.583408
 20
5.386954
 30
0.0
 10
7.583408
 20
4.849981
 30
0.0
 10
7.046434
 20
4.849981
 30
0.0
  0
LWPOLYLINE
  5
12b
100
AcDbEntity
  8
0
 62
1
100
AcDbPolyline
 90
4
 70
1
 10
1.371953
 20
5.386954
 30
0.0
 10
1.908927
 20
5.386954
 30
0.0
 10
1.908927
 20
4.849981
 30
0.0
 10
1.371953
 20
4.849981
 30
0.0
  0
LWPOLYLINE
  5
12c
100
AcDbEntity
  8
0
 62
1
100
AcDbPolyline
 90
4
 70
1
 10
1.986771
 20
5.386954
 30
0.0
 10
2.523744
 20
5.386954
 30
0.0
 10
2.523744
 20
4.849981
 30
0.0
 10
1.986771
 20
4.849981
 30
0.0
  0
LWPOLYLINE
  5
12d
100
AcDbEntity
  8
0
 62
1
100
AcDbPolyline
 90
4
 70
1
 10
0.764050
 20
4.701362
 30
0.0
 10
1.301024
 20
4.701362
 30
0.0
 10
1.301024
 20
4.164389
 30
0.0
 10
0.764050
 20
4.164389
 30
0.0
  0
LWPOLYLINE
  5
12e
100
AcDbEntity
  8
0
 62
1
100
AcDbPolyline
 90
4
 70
1
 10
2.635744
 20
4.701362
 30
0.0
 10
3.172718
 20
4.701362
 30
0.0
 10
3.172718
 20
4.164389
 30
0.0
 10
2.635744
 20
4.164389
 30
0.0
  0
LWPOLYLINE
  5
12f
100
AcDbEntity
  8
0
 62
1
100
AcDbPolyline
 90
4
 70
1
 10
3.296104
 20
4.701362
 30
0.0
 10
3.833077
 20
4.701362
 30
0.0
 10
3.833077
 20
4.164389
 30
0.0
 10
3.296104
 20
4.164389
 30
0.0
  0
LWPOLYLINE
  5
130
100
AcDbEntity
  8
0
 62
1
100
AcDbPolyline
 90
4
 70
1
 10
3.908648
 20
4.701362
 30
0.0
 10
4.445621
 20
4.701362
 30
0.0
 10
4.445621
 20
4.164389
 30
0.0
 10
3.908648
 20
4.164389
 30
0.0
  0
LWPOLYLINE
  5
131
100
AcDbEntity
  8
0
 62
1
100
AcDbPolyline
 90
4
 70
1
 10
4.537124
 20
4.701362
 30
0.0
 10
5.074097
 20
4.701362
 30
0.0
 10
5.074097
 20
4.164389
 30
0.0
 10
4.537124
 20
4.164389
 30
0.0
  0
LWPOLYLINE
  5
132
100
AcDbEntity
  8
0
 62
1
100
AcDbPolyline
 90
4
 70
1
 10
5.158529
 20
4.701362
 30
0.0
 10
5.695503
 20
4.701362
 30
0.0
 10
5.695503
 20
4.164389
 30
0.0
 10
5.158529
 20
4.164389
 30
0.0
  0
LWPOLYLINE
  5
133
100
AcDbEntity
  8
0
 62
1
100
AcDbPolyline
 90
4
 70
1
 10
5.809935
 20
4.701362
 30
0.0
 10
6.346909
 20
4.701362
 30
0.0
 10
6.346909
 20
4.164389
 30
0.0
 10
5.809935
 20
4.164389
 30
0.0
  0
LWPOLYLINE
  5
134
100
AcDbEntity
  8
0
 62
1
100
AcDbPolyline
 90
4
 70
1
 10
6.416462
 20
4.701362
 30
0.0
 10
6.953436
 20
4.701362
 30
0.0
 10
6.953436
 20
4.164389
 30
0.0
 10
6.416462
 20
4.164389
 30
0.0
  0
LWPOLYLINE
  5
135
100
AcDbEntity
  8
0
 62
1
100
AcDbPolyline
 90
4
 70
1
 10
7.046434
 20
4.701362
 30
0.0
 10
7.583408
 20
4.701362
 30
0.0
 10
7.583408
 20
4.164389
 30
0.0
 10
7.046434
 20
4.164389
 30
0.0
  0
LWPOLYLINE
  5
136
100
AcDbEntity
  8
0
 62
1
100
AcDbPolyline
 90
4
 70
1
 10
1.371953
 20
4.701362
 30
0.0
 10
1.908927
 20
4.701362
 30
0.0
 10
1.908927
 20
4.164389
 30
0.0
 10
1.371953
 20
4.164389
 30
0.0
  0
LWPOLYLINE
  5
137
100
AcDbEntity
  8
0
 62
1
100
AcDbPolyline
 90
4
 70
1
 10
1.986771
 20
4.701362
 30
0.0
 10
2.523744
 20
4.701362
 30
0.0
 10
2.523744
 20
4.164389
 30
0.0
 10
1.986771
 20
4.164389
 30
0.0
  0
LWPOLYLINE
  5
138
100
AcDbEntity
  8
0
 62
1
100
AcDbPolyline
 90
4
 70
1
 10
0.764050
 20
4.006450
 30
0.0
 10
1.301024
 20
4.006450
 30
0.0
 10
1.301024
 20
3.469476
 30
0.0
 10
0.764050
 20
3.469476
 30
0.0
  0
LWPOLYLINE
  5
139
100
AcDbEntity
  8
0
 62
1
100
AcDbPolyline
 90
4
 70
1
 10
2.635744
 20
4.006450
 30
0.0
 10
3.172718
 20
4.006450
 30
0.0
 10
3.172718
 20
3.469476
 30
0.0
 10
2.635744
 20
3.469476
 30
0.0
  0
LWPOLYLINE
  5
13a
100
AcDbEntity
  8
0
 62
1
100
AcDbPolyline
 90
4
 70
1
 10
3.296104
 20
4.006450
 30
0.0
 10
3.833077
 20
4.006450
 30
0.0
 10
3.833077
 20
3.469476
 30
0.0
 10
3.296104
 20
3.469476
 30
0.0
  0
LWPOLYLINE
  5
13b
100
AcDbEntity
  8
0
 62
1
100
AcDbPolyline
 90
4
 70
1
 10
3.908648
 20
4.006450
 30
0.0
 10
4.445621
 20
4.006450
 30
0.0
 10
4.445621
 20
3.469476
 30
0.0
 10
3.908648
 20
3.469476
 30
0.0
  0
LWPOLYLINE
  5
13c
100
AcDbEntity
  8
0
 62
1
100
AcDbPolyline
 90
4
 70
1
 10
5.158529
 20
4.006450
 30
0.0
 10
5.695503
 20
4.006450
 30
0.0
 10
5.695503
 20
3.469476
 30
0.0
 10
5.158529
 20
3.469476
 30
0.0
  0
LWPOLYLINE
  5
13d
100
AcDbEntity
  8
0
 62
1
100
AcDbPolyline
 90
4
 70
1
 10
5.809935
 20
4.006449
 30
0.0
 10
6.346909
 20
4.006449
 30
0.0
 10
6.346909
 20
3.469476
 30
0.0
 10
5.809935
 20
3.469476
 30
0.0
  0
LWPOLYLINE
  5
13e
100
AcDbEntity
  8
0
 62
1
100
AcDbPolyline
 90
4
 70
1
 10
6.416462
 20
4.006450
 30
0.0
 10
6.953436
 20
4.006450
 30
0.0
 10
6.953436
 20
3.469476
 30
0.0
 10
6.416462
 20
3.469476
 30
0.0
  0
LWPOLYLINE
  5
13f
100
AcDbEntity
  8
0
 62
1
100
AcDbPolyline
 90
4
 70
1
 10
7.046434
 20
4.006450
 30
0.0
 10
7.583408
 20
4.006450
 30
0.0
 10
7.583408
 20
3.469476
 30
0.0
 10
7.046434
 20
3.469476
 30
0.0
  0
LWPOLYLINE
  5
140
100
AcDbEntity
  8
0
 62
1
100
AcDbPolyline
 90
4
 70
1
 10
1.371953
 20
4.006450
 30
0.0
 10
1.908927
 20
4.006450
 30
0.0
 10
1.908927
 20
3.469476
 30
0.0
 10
1.371953
 20
3.469476
 30
0.0
  0
LWPOLYLINE
  5
141
100
AcDbEntity
  8
0
 62
1
100
AcDbPolyline
 90
4
 70
1
 10
1.986771
 20
4.006450
 30
0.0
 10
2.523744
 20
4.006450
 30
0.0
 10
2.523744
 20
3.469476
 30
0.0
 10
1.986771
 20
3.469476
 30
0.0
  0
LWPOLYLINE
  5
142
100
AcDbEntity
  8
0
 62
1
100
AcDbPolyline
 90
4
 70
1
 10
4.537124
 20
4.006450
 30
0.0
 10
5.074097
 20
4.006450
 30
0.0
 10
5.074097
 20
3.469476
 30
0.0
 10
4.537124
 20
3.469476
 30
0.0
  0
LWPOLYLINE
  5
143
100
AcDbEntity
  8
0
 62
1
100
AcDbPolyline
 90
4
 70
1
 10
0.764050
 20
3.319920
 30
0.0
 10
1.301024
 20
3.319920
 30
0.0
 10
1.301024
 20
2.782946
 30
0.0
 10
0.764050
 20
2.782946
 30
0.0
  0
LWPOLYLINE
  5
144
100
AcDbEntity
  8
0
 62
1
100
AcDbPolyline
 90
4
 70
1
 10
2.635744
 20
3.319920
 30
0.0
 10
3.172718
 20
3.319920
 30
0.0
 10
3.172718
 20
2.782946
 30
0.0
 10
2.635744
 20
2.782946
 30
0.0
  0
LWPOLYLINE
  5
145
100
AcDbEntity
  8
0
 62
1
100
AcDbPolyline
 90
4
 70
1
 10
3.296104
 20
3.319920
 30
0.0
 10
3.833077
 20
3.319920
 30
0.0
 10
3.833077
 20
2.782946
 30
0.0
 10
3.296104
 20
2.782946
 30
0.0
  0
LWPOLYLINE
  5
146
100
AcDbEntity
  8
0
 62
1
100
AcDbPolyline
 90
4
 70
1
 10
3.908648
 20
3.319920
 30
0.0
 10
4.445621
 20
3.319920
 30
0.0
 10
4.445621
 20
2.782946
 30
0.0
 10
3.908648
 20
2.782946
 30
0.0
  0
LWPOLYLINE
  5
147
100
AcDbEntity
  8
0
 62
1
100
AcDbPolyline
 90
4
 70
1
 10
4.537124
 20
3.319920
 30
0.0
 10
5.074097
 20
3.319920
 30
0.0
 10
5.074097
 20
2.782946
 30
0.0
 10
4.537124
 20
2.782946
 30
0.0
  0
LWPOLYLINE
  5
148
100
AcDbEntity
  8
0
 62
1
100
AcDbPolyline
 90
4
 70
1
 10
5.158529
 20
3.319920
 30
0.0
 10
5.695503
 20
3.319920
 30
0.0
 10
5.695503
 20
2.782946
 30
0.0
 10
5.158529
 20
2.782946
 30
0.0
  0
LWPOLYLINE
  5
149
100
AcDbEntity
  8
0
 62
1
100
AcDbPolyline
 90
4
 70
1
 10
5.809935
 20
3.319920
 30
0.0
 10
6.346909
 20
3.319920
 30
0.0
 10
6.346909
 20
2.782946
 30
0.0
 10
5.809935
 20
2.782946
 30
0.0
  0
LWPOLYLINE
  5
14a
100
AcDbEntity
  8
0
 62
1
100
AcDbPolyline
 90
4
 70
1
 10
6.416462
 20
3.319920
 30
0.0
 10
6.953436
 20
3.319920
 30
0.0
 10
6.953436
 20
2.782946
 30
0.0
 10
6.416462
 20
2.782946
 30
0.0
  0
LWPOLYLINE
  5
14b
100
AcDbEntity
  8
0
 62
1
100
AcDbPolyline
 90
4
 70
1
 10
7.046434
 20
3.319920
 30
0.0
 10
7.583408
 20
3.319920
 30
0.0
 10
7.583408
 20
2.782946
 30
0.0
 10
7.046434
 20
2.782946
 30
0.0
  0
LWPOLYLINE
  5
14c
100
AcDbEntity
  8
0
 62
1
100
AcDbPolyline
 90
4
 70
1
 10
1.986771
 20
3.319920
 30
0.0
 10
2.523744
 20
3.319920
 30
0.0
 10
2.523744
 20
2.782946
 30
0.0
 10
1.986771
 20
2.782946
 30
0.0
  0
LWPOLYLINE
  5
14d
100
AcDbEntity
  8
0
 62
1
100
AcDbPolyline
 90
4
 70
1
 10
1.371953
 20
3.319920
 30
0.0
 10
1.908927
 20
3.319920
 30
0.0
 10
1.908927
 20
2.782946
 30
0.0
 10
1.371953
 20
2.782946
 30
0.0
  0
LWPOLYLINE
  5
14e
100
AcDbEntity
  8
0
 62
1
100
AcDbPolyline
 90
4
 70
1
 10
0.764050
 20
2.629567
 30
0.0
 10
1.301024
 20
2.629567
 30
0.0
 10
1.301024
 20
2.092593
 30
0.0
 10
0.764050
 20
2.092593
 30
0.0
  0
LWPOLYLINE
  5
14f
100
AcDbEntity
  8
0
 62
1
100
AcDbPolyline
 90
4
 70
1
 10
2.635744
 20
2.629567
 30
0.0
 10
3.172718
 20
2.629567
 30
0.0
 10
3.172718
 20
2.092593
 30
0.0
 10
2.635744
 20
2.092593
 30
0.0
  0
LWPOLYLINE
  5
150
100
AcDbEntity
  8
0
 62
1
100
AcDbPolyline
 90
4
 70
1
 10
3.296104
 20
2.629567
 30
0.0
 10
3.833077
 20
2.629567
 30
0.0
 10
3.833077
 20
2.092593
 30
0.0
 10
3.296104
 20
2.092593
 30
0.0
  0
LWPOLYLINE
  5
151
100
AcDbEntity
  8
0
 62
1
100
AcDbPolyline
 90
4
 70
1
 10
3.908648
 20
2.629567
 30
0.0
 10
4.445621
 20
2.629567
 30
0.0
 10
4.445621
 20
2.092593
 30
0.0
 10
3.908648
 20
2.092593
 30
0.0
  0
LWPOLYLINE
  5
152
100
AcDbEntity
  8
0
 62
1
100
AcDbPolyline
 90
4
 70
1
 10
4.537124
 20
2.629567
 30
0.0
 10
5.074097
 20
2.629567
 30
0.0
 10
5.074097
 20
2.092593
 30
0.0
 10
4.537124
 20
2.092593
 30
0.0
  0
LWPOLYLINE
  5
153
100
AcDbEntity
  8
0
 62
1
100
AcDbPolyline
 90
4
 70
1
 10
5.158529
 20
2.629567
 30
0.0
 10
5.695503
 20
2.629567
 30
0.0
 10
5.695503
 20
2.092593
 30
0.0
 10
5.158529
 20
2.092593
 30
0.0
  0
LWPOLYLINE
  5
154
100
AcDbEntity
  8
0
 62
1
100
AcDbPolyline
 90
4
 70
1
 10
5.830769
 20
2.629567
 30
0.0
 10
6.367742
 20
2.629567
 30
0.0
 10
6.367742
 20
2.092593
 30
0.0
 10
5.830769
 20
2.092593
 30
0.0
  0
LWPOLYLINE
  5
155
100
AcDbEntity
  8
0
 62
1
100
AcDbPolyline
 90
4
 70
1
 10
6.416462
 20
2.629567
 30
0.0
 10
6.953436
 20
2.629567
 30
0.0
 10
6.953436
 20
2.092593
 30
0.0
 10
6.416462
 20
2.092593
 30
0.0
  0
LWPOLYLINE
  5
156
100
AcDbEntity
  8
0
 62
1
100
AcDbPolyline
 90
4
 70
1
 10
7.046434
 20
2.629567
 30
0.0
 10
7.583408
 20
2.629567
 30
0.0
 10
7.583408
 20
2.092593
 30
0.0
 10
7.046434
 20
2.092593
 30
0.0
  0
LWPOLYLINE
  5
157
100
AcDbEntity
  8
0
 62
1
100
AcDbPolyline
 90
4
 70
1
 10
1.371953
 20
2.629567
 30
0.0
 10
1.908927
 20
2.629567
 30
0.0
 10
1.908927
 20
2.092593
 30
0.0
 10
1.371953
 20
2.092593
 30
0.0
  0
LWPOLYLINE
  5
158
100
AcDbEntity
  8
0
 62
1
100
AcDbPolyline
 90
4
 70
1
 10
1.986771
 20
2.629567
 30
0.0
 10
2.523744
 20
2.629567
 30
0.0
 10
2.523744
 20
2.092593
 30
0.0
 10
1.986771
 20
2.092593
 30
0.0
  0
LWPOLYLINE
  5
159
100
AcDbEntity
  8
0
 62
1
100
AcDbPolyline
 90
4
 70
1
 10
2.635744
 20
1.935188
 30
0.0
 10
3.172718
 20
1.935188
 30
0.0
 10
3.172718
 20
1.398214
 30
0.0
 10
2.635744
 20
1.398214
 30
0.0
  0
LWPOLYLINE
  5
15a
100
AcDbEntity
  8
0
 62
1
100
AcDbPolyline
 90
4
 70
1
 10
3.908648
 20
1.935188
 30
0.0
 10
4.445621
 20
1.935188
 30
0.0
 10
4.445621
 20
1.398214
 30
0.0
 10
3.908648
 20
1.398214
 30
0.0
  0
LWPOLYLINE
  5
15b
100
AcDbEntity
  8
0
 62
1
100
AcDbPolyline
 90
4
 70
1
 10
4.537124
 20
1.935188
 30
0.0
 10
5.074097
 20
1.935188
 30
0.0
 10
5.074097
 20
1.398214
 30
0.0
 10
4.537124
 20
1.398214
 30
0.0
  0
LWPOLYLINE
  5
15c
100
AcDbEntity
  8
0
 62
1
100
AcDbPolyline
 90
4
 70
1
 10
5.158529
 20
1.935188
 30
0.0
 10
5.695503
 20
1.935188
 30
0.0
 10
5.695503
 20
1.398214
 30
0.0
 10
5.158529
 20
1.398214
 30
0.0
  0
LWPOLYLINE
  5
15d
100
AcDbEntity
  8
0
 62
1
100
AcDbPolyline
 90
4
 70
1
 10
5.809935
 20
1.935188
 30
0.0
 10
6.346909
 20
1.935188
 30
0.0
 10
6.346909
 20
1.398214
 30
0.0
 10
5.809935
 20
1.398214
 30
0.0
  0
LWPOLYLINE
  5
15e
100
AcDbEntity
  8
0
 62
1
100
AcDbPolyline
 90
4
 70
1
 10
6.416462
 20
1.935188
 30
0.0
 10
6.953436
 20
1.935188
 30
0.0
 10
6.953436
 20
1.398214
 30
0.0
 10
6.416462
 20
1.398214
 30
0.0
  0
LWPOLYLINE
  5
15f
100
AcDbEntity
  8
0
 62
1
100
AcDbPolyline
 90
4
 70
1
 10
1.371953
 20
1.935188
 30
0.0
 10
1.908927
 20
1.935188
 30
0.0
 10
1.908927
 20
1.398214
 30
0.0
 10
1.371953
 20
1.398214
 30
0.0
  0
LWPOLYLINE
  5
160
100
AcDbEntity
  8
0
 62
1
100
AcDbPolyline
 90
4
 70
1
 10
1.986771
 20
1.935188
 30
0.0
 10
2.523744
 20
1.935188
 30
0.0
 10
2.523744
 20
1.398214
 30
0.0
 10
1.986771
 20
1.398214
 30
0.0
  0
LWPOLYLINE
  5
161
100
AcDbEntity
  8
0
 62
1
100
AcDbPolyline
 90
4
 70
1
 10
0.764050
 20
1.935188
 30
0.0
 10
1.301024
 20
1.935188
 30
0.0
 10
1.301024
 20
1.398214
 30
0.0
 10
0.764050
 20
1.398214
 30
0.0
  0
LWPOLYLINE
  5
162
100
AcDbEntity
  8
0
 62
1
100
AcDbPolyline
 90
4
 70
1
 10
3.296104
 20
1.935188
 30
0.0
 10
3.833077
 20
1.935188
 30
0.0
 10
3.833077
 20
1.398214
 30
0.0
 10
3.296104
 20
1.398214
 30
0.0
  0
LWPOLYLINE
  5
163
100
AcDbEntity
  8
0
 62
1
100
AcDbPolyline
 90
4
 70
1
 10
7.046434
 20
1.935188
 30
0.0
 10
7.583408
 20
1.935188
 30
0.0
 10
7.583408
 20
1.398214
 30
0.0
 10
7.046434
 20
1.398214
 30
0.0
  0
LWPOLYLINE
  5
164
100
AcDbEntity
  8
0
 62
1
100
AcDbPolyline
 90
4
 70
1
 10
0.764050
 20
1.238797
 30
0.0
 10
1.301024
 20
1.238797
 30
0.0
 10
1.301024
 20
0.701823
 30
0.0
 10
0.764050
 20
0.701823
 30
0.0
  0
LWPOLYLINE
  5
165
100
AcDbEntity
  8
0
 62
1
100
AcDbPolyline
 90
4
 70
1
 10
2.635744
 20
1.238797
 30
0.0
 10
3.172718
 20
1.238797
 30
0.0
 10
3.172718
 20
0.701823
 30
0.0
 10
2.635744
 20
0.701823
 30
0.0
  0
LWPOLYLINE
  5
166
100
AcDbEntity
  8
0
 62
1
100
AcDbPolyline
 90
4
 70
1
 10
3.296104
 20
1.238797
 30
0.0
 10
3.833077
 20
1.238797
 30
0.0
 10
3.833077
 20
0.701823
 30
0.0
 10
3.296104
 20
0.701823
 30
0.0
  0
LWPOLYLINE
  5
167
100
AcDbEntity
  8
0
 62
1
100
AcDbPolyline
 90
4
 70
1
 10
3.908648
 20
1.238797
 30
0.0
 10
4.445621
 20
1.238797
 30
0.0
 10
4.445621
 20
0.701823
 30
0.0
 10
3.908648
 20
0.701823
 30
0.0
  0
LWPOLYLINE
  5
168
100
AcDbEntity
  8
0
 62
1
100
AcDbPolyline
 90
4
 70
1
 10
4.537124
 20
1.238797
 30
0.0
 10
5.074097
 20
1.238797
 30
0.0
 10
5.074097
 20
0.701823
 30
0.0
 10
4.537124
 20
0.701823
 30
0.0
  0
LWPOLYLINE
  5
169
100
AcDbEntity
  8
0
 62
1
100
AcDbPolyline
 90
4
 70
1
 10
5.158529
 20
1.238797
 30
0.0
 10
5.695503
 20
1.238797
 30
0.0
 10
5.695503
 20
0.701823
 30
0.0
 10
5.158529
 20
0.701823
 30
0.0
  0
LWPOLYLINE
  5
16a
100
AcDbEntity
  8
0
 62
1
100
AcDbPolyline
 90
4
 70
1
 10
5.809935
 20
1.238797
 30
0.0
 10
6.346909
 20
1.238797
 30
0.0
 10
6.346909
 20
0.701823
 30
0.0
 10
5.809935
 20
0.701823
 30
0.0
  0
LWPOLYLINE
  5
16b
100
AcDbEntity
  8
0
 62
1
100
AcDbPolyline
 90
4
 70
1
 10
6.416462
 20
1.238797
 30
0.0
 10
6.953436
 20
1.238797
 30
0.0
 10
6.953436
 20
0.701823
 30
0.0
 10
6.416462
 20
0.701823
 30
0.0
  0
LWPOLYLINE
  5
16c
100
AcDbEntity
  8
0
 62
1
100
AcDbPolyline
 90
4
 70
1
 10
7.046434
 20
1.238797
 30
0.0
 10
7.583408
 20
1.238797
 30
0.0
 10
7.583408
 20
0.701823
 30
0.0
 10
7.046434
 20
0.701823
 30
0.0
  0
LWPOLYLINE
  5
16d
100
AcDbEntity
  8
0
 62
1
100
AcDbPolyline
 90
4
 70
1
 10
1.371953
 20
1.238797
 30
0.0
 10
1.908927
 20
1.238797
 30
0.0
 10
1.908927
 20
0.701823
 30
0.0
 10
1.371953
 20
0.701823
 30
0.0
  0
SPLINE
  5
16e
100
AcDbEntity
  8
0
 62
1
100
AcDbSpline
 70
8
 71
3
 72
8
 73
4
 74
0
 40
0
 40
0
 40
0
 40
0
 40
1
 40
1
 40
1
 40
1
 10
0.482460
 20
8.027194
 30
0.0
 10
0.403881
 20
8.027194
 30
0.0
 10
0.333040
 20
7.979859
 30
0.0
 10
0.302969
 20
7.907261
 30
0.0
  0
SPLINE
  5
16f
100
AcDbEntity
  8
0
 62
1
100
AcDbSpline
 70
8
 71
3
 72
8
 73
4
 74
0
 40
0
 40
0
 40
0
 40
0
 40
1
 40
1
 40
1
 40
1
 10
0.302969
 20
7.907261
 30
0.0
 10
0.272898
 20
7.834664
 30
0.0
 10
0.289520
 20
7.751100
 30
0.0
 10
0.345083
 20
7.695537
 30
0.0
  0
SPLINE
  5
170
100
AcDbEntity
  8
0
 62
1
100
AcDbSpline
 70
8
 71
3
 72
8
 73
4
 74
0
 40
0
 40
0
 40
0
 40
0
 40
1
 40
1
 40
1
 40
1
 10
0.345083
 20
7.695537
 30
0.0
 10
0.400647
 20
7.639973
 30
0.0
 10
0.484210
 20
7.623351
 30
0.0
 10
0.556808
 20
7.653422
 30
0.0
  0
SPLINE
  5
171
100
AcDbEntity
  8
0
 62
1
100
AcDbSpline
 70
8
 71
3
 72
8
 73
4
 74
0
 40
0
 40
0
 40
0
 40
0
 40
1
 40
1
 40
1
 40
1
 10
0.556808
 20
7.653422
 30
0.0
 10
0.629406
 20
7.683493
 30
0.0
 10
0.676740
 20
7.754335
 30
0.0
 10
0.676740
 20
7.832914
 30
0.0
  0
SPLINE
  5
172
100
AcDbEntity
  8
0
 62
1
100
AcDbSpline
 70
8
 71
3
 72
8
 73
4
 74
0
 40
0
 40
0
 40
0
 40
0
 40
1
 40
1
 40
1
 40
1
 10
0.676740
 20
7.832914
 30
0.0
 10
0.676740
 20
7.884440
 30
0.0
 10
0.656272
 20
7.933856
 30
0.0
 10
0.619837
 20
7.970290
 30
0.0
  0
SPLINE
  5
173
100
AcDbEntity
  8
0
 62
1
100
AcDbSpline
 70
8
 71
3
 72
8
 73
4
 74
0
 40
0
 40
0
 40
0
 40
0
 40
1
 40
1
 40
1
 40
1
 10
0.619837
 20
7.970290
 30
0.0
 10
0.583402
 20
8.006725
 30
0.0
 10
0.533987
 20
8.027194
 30
0.0
 10
0.482460
 20
8.027194
 30
0.0
  0
LWPOLYLINE
  5
174
100
AcDbEntity
  8
0
 62
1
100
AcDbPolyline
 90
4
 70
1
 10
1.986771
 20
1.238797
 30
0.0
 10
2.523744
 20
1.238797
 30
0.0
 10
2.523744
 20
0.701823
 30
0.0
 10
1.986771
 20
0.701823
 30
0.0
  0
SPLINE
  5
175
100
AcDbEntity
  8
0
 62
1
100
AcDbSpline
 70
8
 71
3
 72
8
 73
4
 74
0
 40
0
 40
0
 40
0
 40
0
 40
1
 40
1
 40
1
 40
1
 10
7.866946
 20
8.060702
 30
0.0
 10
7.788367
 20
8.060702
 30
0.0
 10
7.717525
 20
8.013368
 30
0.0
 10
7.687455
 20
7.940770
 30
0.0
  0
SPLINE
  5
176
100
AcDbEntity
  8
0
 62
1
100
AcDbSpline
 70
8
 71
3
 72
8
 73
4
 74
0
 40
0
 40
0
 40
0
 40
0
 40
1
 40
1
 40
1
 40
1
 10
7.687455
 20
7.940770
 30
0.0
 10
7.657384
 20
7.868172
 30
0.0
 10
7.674005
 20
7.784609
 30
0.0
 10
7.729569
 20
7.729045
 30
0.0
  0
SPLINE
  5
177
100
AcDbEntity
  8
0
 62
1
100
AcDbSpline
 70
8
 71
3
 72
8
 73
4
 74
0
 40
0
 40
0
 40
0
 40
0
 40
1
 40
1
 40
1
 40
1
 10
7.729569
 20
7.729045
 30
0.0
 10
7.785133
 20
7.673482
 30
0.0
 10
7.868696
 20
7.656860
 30
0.0
 10
7.941294
 20
7.686931
 30
0.0
  0
SPLINE
  5
178
100
AcDbEntity
  8
0
 62
1
100
AcDbSpline
 70
8
 71
3
 72
8
 73
4
 74
0
 40
0
 40
0
 40
0
 40
0
 40
1
 40
1
 40
1
 40
1
 10
7.941294
 20
7.686931
 30
0.0
 10
8.013891
 20
7.717002
 30
0.0
 10
8.061226
 20
7.787843
 30
0.0
 10
8.061226
 20
7.866422
 30
0.0
  0
SPLINE
  5
179
100
AcDbEntity
  8
0
 62
1
100
AcDbSpline
 70
8
 71
3
 72
8
 73
4
 74
0
 40
0
 40
0
 40
0
 40
0
 40
1
 40
1
 40
1
 40
1
 10
8.061226
 20
7.866422
 30
0.0
 10
8.061226
 20
7.917949
 30
0.0
 10
8.040758
 20
7.967364
 30
0.0
 10
8.004323
 20
8.003799
 30
0.0
  0
SPLINE
  5
17a
100
AcDbEntity
  8
0
 62
1
100
AcDbSpline
 70
8
 71
3
 72
8
 73
4
 74
0
 40
0
 40
0
 40
0
 40
0
 40
1
 40
1
 40
1
 40
1
 10
8.004323
 20
8.003799
 30
0.0
 10
7.967888
 20
8.040234
 30
0.0
 10
7.918472
 20
8.060702
 30
0.0
 10
7.866946
 20
8.060702
 30
0.0
  0
LWPOLYLINE
  5
17b
100
AcDbEntity
  8
0
 62
1
100
AcDbPolyline
 90
1
 70
1
 10
0.482460
 20
8.027194
 30
0.0
  0
SPLINE
  5
17c
100
AcDbEntity
  8
0
 62
1
100
AcDbSpline
 70
8
 71
3
 72
8
 73
4
 74
0
 40
0
 40
0
 40
0
 40
0
 40
1
 40
1
 40
1
 40
1
 10
7.851836
 20
0.640775
 30
0.0
 10
7.773257
 20
0.640775
 30
0.0
 10
7.702415
 20
0.593440
 30
0.0
 10
7.672344
 20
0.520843
 30
0.0
  0
SPLINE
  5
17d
100
AcDbEntity
  8
0
 62
1
100
AcDbSpline
 70
8
 71
3
 72
8
 73
4
 74
0
 40
0
 40
0
 40
0
 40
0
 40
1
 40
1
 40
1
 40
1
 10
7.672344
 20
0.520843
 30
0.0
 10
7.642273
 20
0.448245
 30
0.0
 10
7.658895
 20
0.364682
 30
0.0
 10
7.714459
 20
0.309118
 30
0.0
  0
SPLINE
  5
17e
100
AcDbEntity
  8
0
 62
1
100
AcDbSpline
 70
8
 71
3
 72
8
 73
4
 74
0
 40
0
 40
0
 40
0
 40
0
 40
1
 40
1
 40
1
 40
1
 10
7.714459
 20
0.309118
 30
0.0
 10
7.770023
 20
0.253554
 30
0.0
 10
7.853586
 20
0.236932
 30
0.0
 10
7.926184
 20
0.267003
 30
0.0
  0
SPLINE
  5
17f
100
AcDbEntity
  8
0
 62
1
100
AcDbSpline
 70
8
 71
3
 72
8
 73
4
 74
0
 40
0
 40
0
 40
0
 40
0
 40
1
 40
1
 40
1
 40
1
 10
7.926184
 20
0.267003
 30
0.0
 10
7.998781
 20
0.297074
 30
0.0
 10
8.046116
 20
0.367916
 30
0.0
 10
8.046116
 20
0.446495
 30
0.0
  0
SPLINE
  5
180
100
AcDbEntity
  8
0
 62
1
100
AcDbSpline
 70
8
 71
3
 72
8
 73
4
 74
0
 40
0
 40
0
 40
0
 40
0
 40
1
 40
1
 40
1
 40
1
 10
8.046116
 20
0.446495
 30
0.0
 10
8.046116
 20
0.553793
 30
0.0
 10
7.959134
 20
0.640775
 30
0.0
 10
7.851836
 20
0.640775
 30
0.0
  0
LWPOLYLINE
  5
181
100
AcDbEntity
  8
0
 62
1
100
AcDbPolyline
 90
1
 70
1
 10
7.866946
 20
8.060702
 30
0.0
  0
SPLINE
  5
182
100
AcDbEntity
  8
0
 62
1
100
AcDbSpline
 70
8
 71
3
 72
8
 73
4
 74
0
 40
0
 40
0
 40
0
 40
0
 40
1
 40
1
 40
1
 40
1
 10
0.464404
 20
0.654805
 30
0.0
 10
0.385825
 20
0.654805
 30
0.0
 10
0.314984
 20
0.607471
 30
0.0
 10
0.284913
 20
0.534873
 30
0.0
  0
SPLINE
  5
183
100
AcDbEntity
  8
0
 62
1
100
AcDbSpline
 70
8
 71
3
 72
8
 73
4
 74
0
 40
0
 40
0
 40
0
 40
0
 40
1
 40
1
 40
1
 40
1
 10
0.284913
 20
0.534873
 30
0.0
 10
0.254842
 20
0.462275
 30
0.0
 10
0.271464
 20
0.378712
 30
0.0
 10
0.327028
 20
0.323148
 30
0.0
  0
SPLINE
  5
184
100
AcDbEntity
  8
0
 62
1
100
AcDbSpline
 70
8
 71
3
 72
8
 73
4
 74
0
 40
0
 40
0
 40
0
 40
0
 40
1
 40
1
 40
1
 40
1
 10
0.327028
 20
0.323148
 30
0.0
 10
0.382591
 20
0.267585
 30
0.0
 10
0.466155
 20
0.250963
 30
0.0
 10
0.538752
 20
0.281034
 30
0.0
  0
SPLINE
  5
185
100
AcDbEntity
  8
0
 62
1
100
AcDbSpline
 70
8
 71
3
 72
8
 73
4
 74
0
 40
0
 40
0
 40
0
 40
0
 40
1
 40
1
 40
1
 40
1
 10
0.538752
 20
0.281034
 30
0.0
 10
0.611350
 20
0.311105
 30
0.0
 10
0.658685
 20
0.381946
 30
0.0
 10
0.658685
 20
0.460525
 30
0.0
  0
SPLINE
  5
186
100
AcDbEntity
  8
0
 62
1
100
AcDbSpline
 70
8
 71
3
 72
8
 73
4
 74
0
 40
0
 40
0
 40
0
 40
0
 40
1
 40
1
 40
1
 40
1
 10
0.658685
 20
0.460525
 30
0.0
 10
0.658685
 20
0.512052
 30
0.0
 10
0.638216
 20
0.561467
 30
0.0
 10
0.601781
 20
0.597902
 30
0.0
  0
SPLINE
  5
187
100
AcDbEntity
  8
0
 62
1
100
AcDbSpline
 70
8
 71
3
 72
8
 73
4
 74
0
 40
0
 40
0
 40
0
 40
0
 40
1
 40
1
 40
1
 40
1
 10
0.601781
 20
0.597902
 30
0.0
 10
0.565347
 20
0.634337
 30
0.0
 10
0.515931
 20
0.654805
 30
0.0
 10
0.464404
 20
0.654805
 30
0.0
  0
LWPOLYLINE
  5
188
100
AcDbEntity
  8
0
 62
1
100
AcDbPolyline
 90
1
 70
1
 10
7.851836
 20
0.640775
 30
0.0
  0
LWPOLYLINE
  5
189
100
AcDbEntity
  8
0
 62
1
100
AcDbPolyline
 90
1
 70
1
 10
0.464404
 20
0.654805
 30
0.0
  0
LWPOLYLINE
  5
18a
100
AcDbEntity
  8
0
 62
1
100
AcDbPolyline
 90
6
 70
1
 10
0.595255
 20
5.420435
 30
0.0
 10
0.584406
 20
5.566473
 30
0.0
 10
0.452012
 20
5.630133
 30
0.0
 10
0.330467
 20
5.547756
 30
0.0
 10
0.341315
 20
5.401719
 30
0.0
 10
0.473709
 20
5.338058
 30
0.0
  0
LWPOLYLINE
  5
18b
100
AcDbEntity
  8
0
 62
1
100
AcDbPolyline
 90
6
 70
1
 10
0.599858
 20
6.050202
 30
0.0
 10
0.589010
 20
6.196240
 30
0.0
 10
0.456616
 20
6.259900
 30
0.0
 10
0.335070
 20
6.177523
 30
0.0
 10
0.345919
 20
6.031486
 30
0.0
 10
0.478313
 20
5.967825
 30
0.0
  0
LWPOLYLINE
  5
18c
100
AcDbEntity
  8
0
 62
1
100
AcDbPolyline
 90
6
 70
1
 10
0.595517
 20
6.811490
 30
0.0
 10
0.584668
 20
6.957528
 30
0.0
 10
0.452274
 20
7.021188
 30
0.0
 10
0.330729
 20
6.938811
 30
0.0
 10
0.341577
 20
6.792774
 30
0.0
 10
0.473971
 20
6.729113
 30
0.0
  0
LWPOLYLINE
  5
18d
100
AcDbEntity
  8
0
 62
1
100
AcDbPolyline
 90
6
 70
1
 10
0.600960
 20
4.683955
 30
0.0
 10
0.590111
 20
4.829992
 30
0.0
 10
0.457717
 20
4.893653
 30
0.0
 10
0.336172
 20
4.811276
 30
0.0
 10
0.347020
 20
4.665238
 30
0.0
 10
0.479414
 20
4.601578
 30
0.0
  0
LWPOLYLINE
  5
18e
100
AcDbEntity
  8
0
 62
1
100
AcDbPolyline
 90
6
 70
1
 10
0.595531
 20
4.034310
 30
0.0
 10
0.584682
 20
4.180348
 30
0.0
 10
0.452288
 20
4.244008
 30
0.0
 10
0.330743
 20
4.161631
 30
0.0
 10
0.341591
 20
4.015593
 30
0.0
 10
0.473985
 20
3.951933
 30
0.0
  0
LWPOLYLINE
  5
18f
100
AcDbEntity
  8
0
 62
1
100
AcDbPolyline
 90
6
 70
1
 10
0.595842
 20
3.251129
 30
0.0
 10
0.584994
 20
3.397167
 30
0.0
 10
0.452600
 20
3.460828
 30
0.0
 10
0.331055
 20
3.378450
 30
0.0
 10
0.341903
 20
3.232413
 30
0.0
 10
0.474297
 20
3.168752
 30
0.0
  0
LWPOLYLINE
  5
190
100
AcDbEntity
  8
0
 62
1
100
AcDbPolyline
 90
6
 70
1
 10
0.596270
 20
2.659491
 30
0.0
 10
0.585422
 20
2.805529
 30
0.0
 10
0.453028
 20
2.869190
 30
0.0
 10
0.331482
 20
2.786813
 30
0.0
 10
0.342331
 20
2.640775
 30
0.0
 10
0.474725
 20
2.577114
 30
0.0
  0
LWPOLYLINE
  5
191
100
AcDbEntity
  8
0
 62
1
100
AcDbPolyline
 90
6
 70
1
 10
0.596104
 20
1.239989
 30
0.0
 10
0.585256
 20
1.386027
 30
0.0
 10
0.452862
 20
1.449687
 30
0.0
 10
0.331316
 20
1.367310
 30
0.0
 10
0.342165
 20
1.221272
 30
0.0
 10
0.474559
 20
1.157612
 30
0.0
  0
LWPOLYLINE
  5
192
100
AcDbEntity
  8
0
 62
1
100
AcDbPolyline
 90
6
 70
1
 10
1.122146
 20
0.411864
 30
0.0
 10
1.111297
 20
0.557902
 30
0.0
 10
0.978903
 20
0.621563
 30
0.0
 10
0.857358
 20
0.539185
 30
0.0
 10
0.868206
 20
0.393148
 30
0.0
 10
1.000600
 20
0.329487
 30
0.0
  0
LWPOLYLINE
  5
193
100
AcDbEntity
  8
0
 62
1
100
AcDbPolyline
 90
6
 70
1
 10
2.361729
 20
0.414469
 30
0.0
 10
2.350881
 20
0.560506
 30
0.0
 10
2.218487
 20
0.624167
 30
0.0
 10
2.096941
 20
0.541790
 30
0.0
 10
2.107790
 20
0.395752
 30
0.0
 10
2.240184
 20
0.332091
 30
0.0
  0
LWPOLYLINE
  5
194
100
AcDbEntity
  8
0
 62
1
100
AcDbPolyline
 90
6
 70
1
 10
3.640375
 20
0.423583
 30
0.0
 10
3.629526
 20
0.569621
 30
0.0
 10
3.497132
 20
0.633281
 30
0.0
 10
3.375587
 20
0.550904
 30
0.0
 10
3.386435
 20
0.404867
 30
0.0
 10
3.518829
 20
0.341206
 30
0.0
  0
LWPOLYLINE
  5
195
100
AcDbEntity
  8
0
 62
1
100
AcDbPolyline
 90
6
 70
1
 10
4.877354
 20
0.430093
 30
0.0
 10
4.866506
 20
0.576131
 30
0.0
 10
4.734112
 20
0.639792
 30
0.0
 10
4.612566
 20
0.557415
 30
0.0
 10
4.623415
 20
0.411377
 30
0.0
 10
4.755809
 20
0.347716
 30
0.0
  0
LWPOLYLINE
  5
196
100
AcDbEntity
  8
0
 62
1
100
AcDbPolyline
 90
6
 70
1
 10
6.187250
 20
0.430093
 30
0.0
 10
6.176401
 20
0.576131
 30
0.0
 10
6.044007
 20
0.639792
 30
0.0
 10
5.922462
 20
0.557415
 30
0.0
 10
5.933311
 20
0.411377
 30
0.0
 10
6.065704
 20
0.347716
 30
0.0
  0
LWPOLYLINE
  5
197
100
AcDbEntity
  8
0
 62
1
100
AcDbPolyline
 90
6
 70
1
 10
7.430740
 20
0.427489
 30
0.0
 10
7.419891
 20
0.573527
 30
0.0
 10
7.287497
 20
0.637187
 30
0.0
 10
7.165952
 20
0.554810
 30
0.0
 10
7.176800
 20
0.408772
 30
0.0
 10
7.309194
 20
0.345112
 30
0.0
  0
LWPOLYLINE
  5
198
100
AcDbEntity
  8
0
 62
1
100
AcDbPolyline
 90
6
 70
1
 10
7.985427
 20
1.251708
 30
0.0
 10
7.974578
 20
1.397746
 30
0.0
 10
7.842185
 20
1.461406
 30
0.0
 10
7.720639
 20
1.379029
 30
0.0
 10
7.731488
 20
1.232991
 30
0.0
 10
7.863881
 20
1.169331
 30
0.0
  0
LWPOLYLINE
  5
199
100
AcDbEntity
  8
0
 62
1
100
AcDbPolyline
 90
6
 70
1
 10
7.977615
 20
2.025145
 30
0.0
 10
7.966766
 20
2.171183
 30
0.0
 10
7.834372
 20
2.234844
 30
0.0
 10
7.712826
 20
2.152467
 30
0.0
 10
7.723675
 20
2.006429
 30
0.0
 10
7.856069
 20
1.942768
 30
0.0
  0
LWPOLYLINE
  5
19a
100
AcDbEntity
  8
0
 62
1
100
AcDbPolyline
 90
6
 70
1
 10
7.980219
 20
2.672281
 30
0.0
 10
7.969370
 20
2.818319
 30
0.0
 10
7.836976
 20
2.881979
 30
0.0
 10
7.715431
 20
2.799602
 30
0.0
 10
7.726280
 20
2.653564
 30
0.0
 10
7.858673
 20
2.589904
 30
0.0
  0
LWPOLYLINE
  5
19b
100
AcDbEntity
  8
0
 62
1
100
AcDbPolyline
 90
6
 70
1
 10
7.981702
 20
3.436073
 30
0.0
 10
7.970853
 20
3.582111
 30
0.0
 10
7.838459
 20
3.645772
 30
0.0
 10
7.716914
 20
3.563394
 30
0.0
 10
7.727763
 20
3.417357
 30
0.0
 10
7.860156
 20
3.353696
 30
0.0
  0
LWPOLYLINE
  5
19c
100
AcDbEntity
  8
0
 62
1
100
AcDbPolyline
 90
6
 70
1
 10
7.976168
 20
4.035683
 30
0.0
 10
7.965319
 20
4.181720
 30
0.0
 10
7.832926
 20
4.245381
 30
0.0
 10
7.711380
 20
4.163004
 30
0.0
 10
7.722229
 20
4.016966
 30
0.0
 10
7.854622
 20
3.953306
 30
0.0
  0
LWPOLYLINE
  5
19d
100
AcDbEntity
  8
0
 62
1
100
AcDbPolyline
 90
6
 70
1
 10
7.971342
 20
4.835532
 30
0.0
 10
7.960493
 20
4.981570
 30
0.0
 10
7.828099
 20
5.045231
 30
0.0
 10
7.706554
 20
4.962854
 30
0.0
 10
7.717402
 20
4.816816
 30
0.0
 10
7.849796
 20
4.753155
 30
0.0
  0
LWPOLYLINE
  5
19e
100
AcDbEntity
  8
0
 62
1
100
AcDbPolyline
 90
6
 70
1
 10
7.986073
 20
5.426629
 30
0.0
 10
7.975224
 20
5.572667
 30
0.0
 10
7.842831
 20
5.636328
 30
0.0
 10
7.721285
 20
5.553951
 30
0.0
 10
7.732134
 20
5.407913
 30
0.0
 10
7.864528
 20
5.344252
 30
0.0
  0
LWPOLYLINE
  5
19f
100
AcDbEntity
  8
0
 62
1
100
AcDbPolyline
 90
6
 70
1
 10
7.991175
 20
6.191555
 30
0.0
 10
7.980326
 20
6.337593
 30
0.0
 10
7.847933
 20
6.401254
 30
0.0
 10
7.726387
 20
6.318877
 30
0.0
 10
7.737236
 20
6.172839
 30
0.0
 10
7.869630
 20
6.109178
 30
0.0
  0
LWPOLYLINE
  5
1a0
100
AcDbEntity
  8
0
 62
1
100
AcDbPolyline
 90
6
 70
1
 10
7.990713
 20
6.815608
 30
0.0
 10
7.979865
 20
6.961645
 30
0.0
 10
7.847471
 20
7.025306
 30
0.0
 10
7.725925
 20
6.942929
 30
0.0
 10
7.736774
 20
6.796891
 30
0.0
 10
7.869168
 20
6.733231
 30
0.0
  0
LWPOLYLINE
  5
1a1
100
AcDbEntity
  8
0
 62
1
100
AcDbPolyline
 90
6
 70
1
 10
0.591500
 20
1.870677
 30
0.0
 10
0.580652
 20
2.016715
 30
0.0
 10
0.448258
 20
2.080375
 30
0.0
 10
0.326713
 20
1.997998
 30
0.0
 10
0.337561
 20
1.851960
 30
0.0
 10
0.469955
 20
1.788300
 30
0.0
  0
ENDSEC
  0
SECTION
  2
OBJECTS
  0
DICTIONARY
  5
C
330
0
100
AcDbDictionary
  3
ACAD_GROUP
350
D
  3
ACAD_MLINESTYLE
350
17
  0
DICTIONARY
  5
D
330
C
100
AcDbDictionary
  0
DICTIONARY
  5
1A
330
C
100
AcDbDictionary
  0
DICTIONARY
  5
17
330
C
100
AcDbDictionary
  3
STANDARD
350
18
  0
DICTIONARY
  5
19
330
C
100
AcDbDictionary
  0
ENDSEC
  0
EOF
