  0
SECTION
  2
HEADER
  9
$ACADVER
  1
AC1014
  9
$HANDSEED
  5
FFFF
  9
$MEASUREMENT
 70
     1
  0
ENDSEC
  0
SECTION
  2
TABLES
  0
TABLE
  2
VPORT
  5
8
330
0
100
AcDbSymbolTable
 70
     4
  0
VPORT
  5
2E
330
8
100
AcDbSymbolTableRecord
100
AcDbViewportTableRecord
  2
*ACTIVE
 70
     0
 10
0.0
 20
0.0
 11
1.0
 21
1.0
 12
210.0
 22
148.5
 13
0.0
 23
0.0
 14
10.0
 24
10.0
 15
10.0
 25
10.0
 16
0.0
 26
0.0
 36
1.0
 17
0.0
 27
0.0
 37
0.0
 40
341.0
 41
1.24
 42
50.0
 43
0.0
 44
0.0
 50
0.0
 51
0.0
 71
     0
 72
   100
 73
     1
 74
     3
 75
     0
 76
     0
 77
     0
 78
     0
  0
ENDTAB
  0
TABLE
  2
LTYPE
  5
5
330
0
100
AcDbSymbolTable
 70
     1
  0
LTYPE
  5
14
330
5
100
AcDbSymbolTableRecord
100
AcDbLinetypeTableRecord
  2
BYBLOCK
 70
     0
  3

 72
    65
 73
     0
 40
0.0
  0
LTYPE
  5
15
330
5
100
AcDbSymbolTableRecord
100
AcDbLinetypeTableRecord
  2
BYLAYER
 70
     0
  3

 72
    65
 73
     0
 40
0.0
  0
LTYPE
  5
16
330
5
100
AcDbSymbolTableRecord
100
AcDbLinetypeTableRecord
  2
CONTINUOUS
 70
     0
  3
Solid line
 72
    65
 73
     0
 40
0.0
  0
ENDTAB
  0
TABLE
  2
LAYER
  5
2
100
AcDbSymbolTable
 70
1
  0
LAYER
  5
50
100
AcDbSymbolTableRecord
100
AcDbLayerTableRecord
  2
0
 70
0
  6
CONTINUOUS
  0
ENDTAB
  0
TABLE
  2
STYLE
  5
3
330
0
100
AcDbSymbolTable
 70
     1
  0
STYLE
  5
11
330
3
100
AcDbSymbolTableRecord
100
AcDbTextStyleTableRecord
  2
STANDARD
 70
     0
 40
0.0
 41
1.0
 50
0.0
 71
     0
 42
2.5
  3
txt
  4

  0
ENDTAB
  0
TABLE
  2
VIEW
  5
6
330
0
100
AcDbSymbolTable
 70
     0
  0
ENDTAB
  0
TABLE
  2
UCS
  5
7
330
0
100
AcDbSymbolTable
 70
     0
  0
ENDTAB
  0
TABLE
  2
APPID
  5
9
330
0
100
AcDbSymbolTable
 70
     2
  0
APPID
  5
12
330
9
100
AcDbSymbolTableRecord
100
AcDbRegAppTableRecord
  2
ACAD
 70
     0
  0
ENDTAB
  0
TABLE
  2
DIMSTYLE
  5
A
330
0
100
AcDbSymbolTable
 70
     1
  0
DIMSTYLE
105
27
330
A
100
AcDbSymbolTableRecord
100
AcDbDimStyleTableRecord
  2
ISO-25
 70
     0
  3

  4

  5

  6

  7

 40
1.0
 41
2.5
 42
0.625
 43
3.75
 44
1.25
 45
0.0
 46
0.0
 47
0.0
 48
0.0
140
2.5
141
2.5
142
0.0
143
0.03937007874016
144
1.0
145
0.0
146
1.0
147
0.625
 71
     0
 72
     0
 73
     0
 74
     0
 75
     0
 76
     0
 77
     1
 78
     8
170
     0
171
     3
172
     1
173
     0
174
     0
175
     0
176
     0
177
     0
178
     0
270
     2
271
     2
272
     2
273
     2
274
     3
340
11
275
     0
280
     0
281
     0
282
     0
283
     0
284
     8
285
     0
286
     0
287
     3
288
     0
  0
ENDTAB
  0
TABLE
  2
BLOCK_RECORD
  5
1
330
0
100
AcDbSymbolTable
 70
     1
  0
BLOCK_RECORD
  5
1F
330
1
100
AcDbSymbolTableRecord
100
AcDbBlockTableRecord
  2
*MODEL_SPACE
  0
BLOCK_RECORD
  5
1B
330
1
100
AcDbSymbolTableRecord
100
AcDbBlockTableRecord
  2
*PAPER_SPACE
  0
ENDTAB
  0
ENDSEC
  0
SECTION
  2
BLOCKS
  0
BLOCK
  5
20
330
1F
100
AcDbEntity
  8
0
100
AcDbBlockBegin
  2
*MODEL_SPACE
 70
     0
 10
0.0
 20
0.0
 30
0.0
  3
*MODEL_SPACE
  1

  0
ENDBLK
  5
21
330
1F
100
AcDbEntity
  8
0
100
AcDbBlockEnd
  0
BLOCK
  5
1C
330
1B
100
AcDbEntity
 67
     1
  8
0
100
AcDbBlockBegin
  2
*PAPER_SPACE
  1

  0
ENDBLK
  5
1D
330
1B
100
AcDbEntity
 67
     1
  8
0
100
AcDbBlockEnd
  0
ENDSEC
  0
SECTION
  2
ENTITIES
  0
SPLINE
  5
100
100
AcDbEntity
  8
0
 62
1
100
AcDbSpline
 70
8
 71
3
 72
8
 73
4
 74
0
 40
0
 40
0
 40
0
 40
0
 40
1
 40
1
 40
1
 40
1
 10
0.386471
 20
5.484096
 30
0.0
 10
0.386464
 20
5.456907
 30
0.0
 10
0.401023
 20
5.431781
 30
0.0
 10
0.424661
 20
5.418185
 30
0.0
  0
SPLINE
  5
101
100
AcDbEntity
  8
0
 62
1
100
AcDbSpline
 70
8
 71
3
 72
8
 73
4
 74
0
 40
0
 40
0
 40
0
 40
0
 40
1
 40
1
 40
1
 40
1
 10
0.424661
 20
5.418185
 30
0.0
 10
0.448298
 20
5.404589
 30
0.0
 10
0.477423
 20
5.404589
 30
0.0
 10
0.501061
 20
5.418185
 30
0.0
  0
SPLINE
  5
102
100
AcDbEntity
  8
0
 62
1
100
AcDbSpline
 70
8
 71
3
 72
8
 73
4
 74
0
 40
0
 40
0
 40
0
 40
0
 40
1
 40
1
 40
1
 40
1
 10
0.501061
 20
5.418185
 30
0.0
 10
0.524698
 20
5.431781
 30
0.0
 10
0.539257
 20
5.456907
 30
0.0
 10
0.539251
 20
5.484096
 30
0.0
  0
SPLINE
  5
103
100
AcDbEntity
  8
0
 62
1
100
AcDbSpline
 70
8
 71
3
 72
8
 73
4
 74
0
 40
0
 40
0
 40
0
 40
0
 40
1
 40
1
 40
1
 40
1
 10
0.539251
 20
5.484096
 30
0.0
 10
0.539257
 20
5.511284
 30
0.0
 10
0.524698
 20
5.536411
 30
0.0
 10
0.501061
 20
5.550007
 30
0.0
  0
SPLINE
  5
104
100
AcDbEntity
  8
0
 62
1
100
AcDbSpline
 70
8
 71
3
 72
8
 73
4
 74
0
 40
0
 40
0
 40
0
 40
0
 40
1
 40
1
 40
1
 40
1
 10
0.501061
 20
5.550007
 30
0.0
 10
0.477423
 20
5.563603
 30
0.0
 10
0.448298
 20
5.563603
 30
0.0
 10
0.424661
 20
5.550007
 30
0.0
  0
SPLINE
  5
105
100
AcDbEntity
  8
0
 62
1
100
AcDbSpline
 70
8
 71
3
 72
8
 73
4
 74
0
 40
0
 40
0
 40
0
 40
0
 40
1
 40
1
 40
1
 40
1
 10
0.424661
 20
5.550007
 30
0.0
 10
0.401023
 20
5.536411
 30
0.0
 10
0.386464
 20
5.511284
 30
0.0
 10
0.386471
 20
5.484096
 30
0.0
  0
LWPOLYLINE
  5
106
100
AcDbEntity
  8
0
 62
1
100
AcDbPolyline
 90
4
 70
1
 10
0.764108
 20
8.255767
 30
0.0
 10
3.908648
 20
8.255767
 30
0.0
 10
3.908648
 20
7.505668
 30
0.0
 10
0.764108
 20
7.505668
 30
0.0
  0
SPLINE
  5
107
100
AcDbEntity
  8
0
 62
1
100
AcDbSpline
 70
8
 71
3
 72
8
 73
4
 74
0
 40
0
 40
0
 40
0
 40
0
 40
1
 40
1
 40
1
 40
1
 10
0.391074
 20
6.113863
 30
0.0
 10
0.391068
 20
6.086674
 30
0.0
 10
0.405626
 20
6.061548
 30
0.0
 10
0.429264
 20
6.047952
 30
0.0
  0
SPLINE
  5
108
100
AcDbEntity
  8
0
 62
1
100
AcDbSpline
 70
8
 71
3
 72
8
 73
4
 74
0
 40
0
 40
0
 40
0
 40
0
 40
1
 40
1
 40
1
 40
1
 10
0.429264
 20
6.047952
 30
0.0
 10
0.452902
 20
6.034356
 30
0.0
 10
0.482027
 20
6.034356
 30
0.0
 10
0.505664
 20
6.047952
 30
0.0
  0
SPLINE
  5
109
100
AcDbEntity
  8
0
 62
1
100
AcDbSpline
 70
8
 71
3
 72
8
 73
4
 74
0
 40
0
 40
0
 40
0
 40
0
 40
1
 40
1
 40
1
 40
1
 10
0.505664
 20
6.047952
 30
0.0
 10
0.529302
 20
6.061548
 30
0.0
 10
0.543860
 20
6.086674
 30
0.0
 10
0.543854
 20
6.113863
 30
0.0
  0
SPLINE
  5
10a
100
AcDbEntity
  8
0
 62
1
100
AcDbSpline
 70
8
 71
3
 72
8
 73
4
 74
0
 40
0
 40
0
 40
0
 40
0
 40
1
 40
1
 40
1
 40
1
 10
0.543854
 20
6.113863
 30
0.0
 10
0.543860
 20
6.141051
 30
0.0
 10
0.529302
 20
6.166178
 30
0.0
 10
0.505664
 20
6.179774
 30
0.0
  0
SPLINE
  5
10b
100
AcDbEntity
  8
0
 62
1
100
AcDbSpline
 70
8
 71
3
 72
8
 73
4
 74
0
 40
0
 40
0
 40
0
 40
0
 40
1
 40
1
 40
1
 40
1
 10
0.505664
 20
6.179774
 30
0.0
 10
0.482027
 20
6.193370
 30
0.0
 10
0.452902
 20
6.193370
 30
0.0
 10
0.429264
 20
6.179774
 30
0.0
  0
SPLINE
  5
10c
100
AcDbEntity
  8
0
 62
1
100
AcDbSpline
 70
8
 71
3
 72
8
 73
4
 74
0
 40
0
 40
0
 40
0
 40
0
 40
1
 40
1
 40
1
 40
1
 10
0.429264
 20
6.179774
 30
0.0
 10
0.405626
 20
6.166178
 30
0.0
 10
0.391068
 20
6.141051
 30
0.0
 10
0.391074
 20
6.113863
 30
0.0
  0
LWPOLYLINE
  5
10d
100
AcDbEntity
  8
0
 62
1
100
AcDbPolyline
 90
1
 70
1
 10
0.386471
 20
5.484096
 30
0.0
  0
SPLINE
  5
10e
100
AcDbEntity
  8
0
 62
1
100
AcDbSpline
 70
8
 71
3
 72
8
 73
4
 74
0
 40
0
 40
0
 40
0
 40
0
 40
1
 40
1
 40
1
 40
1
 10
0.386733
 20
6.875151
 30
0.0
 10
0.386727
 20
6.847962
 30
0.0
 10
0.401285
 20
6.822836
 30
0.0
 10
0.424923
 20
6.809240
 30
0.0
  0
SPLINE
  5
10f
100
AcDbEntity
  8
0
 62
1
100
AcDbSpline
 70
8
 71
3
 72
8
 73
4
 74
0
 40
0
 40
0
 40
0
 40
0
 40
1
 40
1
 40
1
 40
1
 10
0.424923
 20
6.809240
 30
0.0
 10
0.448561
 20
6.795644
 30
0.0
 10
0.477685
 20
6.795644
 30
0.0
 10
0.501323
 20
6.809240
 30
0.0
  0
SPLINE
  5
110
100
AcDbEntity
  8
0
 62
1
100
AcDbSpline
 70
8
 71
3
 72
8
 73
4
 74
0
 40
0
 40
0
 40
0
 40
0
 40
1
 40
1
 40
1
 40
1
 10
0.501323
 20
6.809240
 30
0.0
 10
0.524961
 20
6.822836
 30
0.0
 10
0.539519
 20
6.847962
 30
0.0
 10
0.539513
 20
6.875151
 30
0.0
  0
SPLINE
  5
111
100
AcDbEntity
  8
0
 62
1
100
AcDbSpline
 70
8
 71
3
 72
8
 73
4
 74
0
 40
0
 40
0
 40
0
 40
0
 40
1
 40
1
 40
1
 40
1
 10
0.539513
 20
6.875151
 30
0.0
 10
0.539519
 20
6.902339
 30
0.0
 10
0.524961
 20
6.927466
 30
0.0
 10
0.501323
 20
6.941062
 30
0.0
  0
SPLINE
  5
112
100
AcDbEntity
  8
0
 62
1
100
AcDbSpline
 70
8
 71
3
 72
8
 73
4
 74
0
 40
0
 40
0
 40
0
 40
0
 40
1
 40
1
 40
1
 40
1
 10
0.501323
 20
6.941062
 30
0.0
 10
0.477685
 20
6.954658
 30
0.0
 10
0.448561
 20
6.954658
 30
0.0
 10
0.424923
 20
6.941062
 30
0.0
  0
SPLINE
  5
113
100
AcDbEntity
  8
0
 62
1
100
AcDbSpline
 70
8
 71
3
 72
8
 73
4
 74
0
 40
0
 40
0
 40
0
 40
0
 40
1
 40
1
 40
1
 40
1
 10
0.424923
 20
6.941062
 30
0.0
 10
0.401285
 20
6.927466
 30
0.0
 10
0.386727
 20
6.902339
 30
0.0
 10
0.386733
 20
6.875151
 30
0.0
  0
LWPOLYLINE
  5
114
100
AcDbEntity
  8
0
 62
1
100
AcDbPolyline
 90
1
 70
1
 10
0.391074
 20
6.113863
 30
0.0
  0
SPLINE
  5
115
100
AcDbEntity
  8
0
 62
1
100
AcDbSpline
 70
8
 71
3
 72
8
 73
4
 74
0
 40
0
 40
0
 40
0
 40
0
 40
1
 40
1
 40
1
 40
1
 10
0.392176
 20
4.747615
 30
0.0
 10
0.392169
 20
4.720427
 30
0.0
 10
0.406728
 20
4.695300
 30
0.0
 10
0.430366
 20
4.681704
 30
0.0
  0
SPLINE
  5
116
100
AcDbEntity
  8
0
 62
1
100
AcDbSpline
 70
8
 71
3
 72
8
 73
4
 74
0
 40
0
 40
0
 40
0
 40
0
 40
1
 40
1
 40
1
 40
1
 10
0.430366
 20
4.681704
 30
0.0
 10
0.454003
 20
4.668108
 30
0.0
 10
0.483128
 20
4.668108
 30
0.0
 10
0.506766
 20
4.681704
 30
0.0
  0
SPLINE
  5
117
100
AcDbEntity
  8
0
 62
1
100
AcDbSpline
 70
8
 71
3
 72
8
 73
4
 74
0
 40
0
 40
0
 40
0
 40
0
 40
1
 40
1
 40
1
 40
1
 10
0.506766
 20
4.681704
 30
0.0
 10
0.530403
 20
4.695300
 30
0.0
 10
0.544962
 20
4.720427
 30
0.0
 10
0.544956
 20
4.747615
 30
0.0
  0
SPLINE
  5
118
100
AcDbEntity
  8
0
 62
1
100
AcDbSpline
 70
8
 71
3
 72
8
 73
4
 74
0
 40
0
 40
0
 40
0
 40
0
 40
1
 40
1
 40
1
 40
1
 10
0.544956
 20
4.747615
 30
0.0
 10
0.544962
 20
4.774804
 30
0.0
 10
0.530403
 20
4.799930
 30
0.0
 10
0.506766
 20
4.813526
 30
0.0
  0
SPLINE
  5
119
100
AcDbEntity
  8
0
 62
1
100
AcDbSpline
 70
8
 71
3
 72
8
 73
4
 74
0
 40
0
 40
0
 40
0
 40
0
 40
1
 40
1
 40
1
 40
1
 10
0.506766
 20
4.813526
 30
0.0
 10
0.483128
 20
4.827122
 30
0.0
 10
0.454003
 20
4.827122
 30
0.0
 10
0.430366
 20
4.813526
 30
0.0
  0
SPLINE
  5
11a
100
AcDbEntity
  8
0
 62
1
100
AcDbSpline
 70
8
 71
3
 72
8
 73
4
 74
0
 40
0
 40
0
 40
0
 40
0
 40
1
 40
1
 40
1
 40
1
 10
0.430366
 20
4.813526
 30
0.0
 10
0.406728
 20
4.799930
 30
0.0
 10
0.392169
 20
4.774804
 30
0.0
 10
0.392176
 20
4.747615
 30
0.0
  0
LWPOLYLINE
  5
11b
100
AcDbEntity
  8
0
 62
1
100
AcDbPolyline
 90
1
 70
1
 10
0.386733
 20
6.875151
 30
0.0
  0
SPLINE
  5
11c
100
AcDbEntity
  8
0
 62
1
100
AcDbSpline
 70
8
 71
3
 72
8
 73
4
 74
0
 40
0
 40
0
 40
0
 40
0
 40
1
 40
1
 40
1
 40
1
 10
0.386747
 20
4.097970
 30
0.0
 10
0.386740
 20
4.070782
 30
0.0
 10
0.401299
 20
4.045656
 30
0.0
 10
0.424937
 20
4.032059
 30
0.0
  0
SPLINE
  5
11d
100
AcDbEntity
  8
0
 62
1
100
AcDbSpline
 70
8
 71
3
 72
8
 73
4
 74
0
 40
0
 40
0
 40
0
 40
0
 40
1
 40
1
 40
1
 40
1
 10
0.424937
 20
4.032059
 30
0.0
 10
0.448574
 20
4.018463
 30
0.0
 10
0.477699
 20
4.018463
 30
0.0
 10
0.501337
 20
4.032059
 30
0.0
  0
SPLINE
  5
11e
100
AcDbEntity
  8
0
 62
1
100
AcDbSpline
 70
8
 71
3
 72
8
 73
4
 74
0
 40
0
 40
0
 40
0
 40
0
 40
1
 40
1
 40
1
 40
1
 10
0.501337
 20
4.032059
 30
0.0
 10
0.524974
 20
4.045656
 30
0.0
 10
0.539533
 20
4.070782
 30
0.0
 10
0.539527
 20
4.097970
 30
0.0
  0
SPLINE
  5
11f
100
AcDbEntity
  8
0
 62
1
100
AcDbSpline
 70
8
 71
3
 72
8
 73
4
 74
0
 40
0
 40
0
 40
0
 40
0
 40
1
 40
1
 40
1
 40
1
 10
0.539527
 20
4.097970
 30
0.0
 10
0.539533
 20
4.125159
 30
0.0
 10
0.524974
 20
4.150285
 30
0.0
 10
0.501337
 20
4.163881
 30
0.0
  0
SPLINE
  5
120
100
AcDbEntity
  8
0
 62
1
100
AcDbSpline
 70
8
 71
3
 72
8
 73
4
 74
0
 40
0
 40
0
 40
0
 40
0
 40
1
 40
1
 40
1
 40
1
 10
0.501337
 20
4.163881
 30
0.0
 10
0.477699
 20
4.177478
 30
0.0
 10
0.448574
 20
4.177478
 30
0.0
 10
0.424937
 20
4.163881
 30
0.0
  0
SPLINE
  5
121
100
AcDbEntity
  8
0
 62
1
100
AcDbSpline
 70
8
 71
3
 72
8
 73
4
 74
0
 40
0
 40
0
 40
0
 40
0
 40
1
 40
1
 40
1
 40
1
 10
0.424937
 20
4.163881
 30
0.0
 10
0.401299
 20
4.150285
 30
0.0
 10
0.386740
 20
4.125159
 30
0.0
 10
0.386747
 20
4.097970
 30
0.0
  0
LWPOLYLINE
  5
122
100
AcDbEntity
  8
0
 62
1
100
AcDbPolyline
 90
1
 70
1
 10
0.392176
 20
4.747615
 30
0.0
  0
SPLINE
  5
123
100
AcDbEntity
  8
0
 62
1
100
AcDbSpline
 70
8
 71
3
 72
8
 73
4
 74
0
 40
0
 40
0
 40
0
 40
0
 40
1
 40
1
 40
1
 40
1
 10
0.387058
 20
3.314790
 30
0.0
 10
0.387052
 20
3.287601
 30
0.0
 10
0.401611
 20
3.262475
 30
0.0
 10
0.425248
 20
3.248879
 30
0.0
  0
SPLINE
  5
124
100
AcDbEntity
  8
0
 62
1
100
AcDbSpline
 70
8
 71
3
 72
8
 73
4
 74
0
 40
0
 40
0
 40
0
 40
0
 40
1
 40
1
 40
1
 40
1
 10
0.425248
 20
3.248879
 30
0.0
 10
0.448886
 20
3.235283
 30
0.0
 10
0.478011
 20
3.235283
 30
0.0
 10
0.501649
 20
3.248879
 30
0.0
  0
SPLINE
  5
125
100
AcDbEntity
  8
0
 62
1
100
AcDbSpline
 70
8
 71
3
 72
8
 73
4
 74
0
 40
0
 40
0
 40
0
 40
0
 40
1
 40
1
 40
1
 40
1
 10
0.501649
 20
3.248879
 30
0.0
 10
0.525286
 20
3.262475
 30
0.0
 10
0.539845
 20
3.287601
 30
0.0
 10
0.539839
 20
3.314790
 30
0.0
  0
SPLINE
  5
126
100
AcDbEntity
  8
0
 62
1
100
AcDbSpline
 70
8
 71
3
 72
8
 73
4
 74
0
 40
0
 40
0
 40
0
 40
0
 40
1
 40
1
 40
1
 40
1
 10
0.539839
 20
3.314790
 30
0.0
 10
0.539845
 20
3.341979
 30
0.0
 10
0.525286
 20
3.367105
 30
0.0
 10
0.501649
 20
3.380701
 30
0.0
  0
SPLINE
  5
127
100
AcDbEntity
  8
0
 62
1
100
AcDbSpline
 70
8
 71
3
 72
8
 73
4
 74
0
 40
0
 40
0
 40
0
 40
0
 40
1
 40
1
 40
1
 40
1
 10
0.501649
 20
3.380701
 30
0.0
 10
0.478011
 20
3.394297
 30
0.0
 10
0.448886
 20
3.394297
 30
0.0
 10
0.425248
 20
3.380701
 30
0.0
  0
SPLINE
  5
128
100
AcDbEntity
  8
0
 62
1
100
AcDbSpline
 70
8
 71
3
 72
8
 73
4
 74
0
 40
0
 40
0
 40
0
 40
0
 40
1
 40
1
 40
1
 40
1
 10
0.425248
 20
3.380701
 30
0.0
 10
0.401611
 20
3.367105
 30
0.0
 10
0.387052
 20
3.341979
 30
0.0
 10
0.387058
 20
3.314790
 30
0.0
  0
LWPOLYLINE
  5
129
100
AcDbEntity
  8
0
 62
1
100
AcDbPolyline
 90
1
 70
1
 10
0.386747
 20
4.097970
 30
0.0
  0
SPLINE
  5
12a
100
AcDbEntity
  8
0
 62
1
100
AcDbSpline
 70
8
 71
3
 72
8
 73
4
 74
0
 40
0
 40
0
 40
0
 40
0
 40
1
 40
1
 40
1
 40
1
 10
0.387486
 20
2.723152
 30
0.0
 10
0.387480
 20
2.695963
 30
0.0
 10
0.402038
 20
2.670837
 30
0.0
 10
0.425676
 20
2.657241
 30
0.0
  0
SPLINE
  5
12b
100
AcDbEntity
  8
0
 62
1
100
AcDbSpline
 70
8
 71
3
 72
8
 73
4
 74
0
 40
0
 40
0
 40
0
 40
0
 40
1
 40
1
 40
1
 40
1
 10
0.425676
 20
2.657241
 30
0.0
 10
0.449314
 20
2.643645
 30
0.0
 10
0.478438
 20
2.643645
 30
0.0
 10
0.502076
 20
2.657241
 30
0.0
  0
SPLINE
  5
12c
100
AcDbEntity
  8
0
 62
1
100
AcDbSpline
 70
8
 71
3
 72
8
 73
4
 74
0
 40
0
 40
0
 40
0
 40
0
 40
1
 40
1
 40
1
 40
1
 10
0.502076
 20
2.657241
 30
0.0
 10
0.525714
 20
2.670837
 30
0.0
 10
0.540272
 20
2.695963
 30
0.0
 10
0.540266
 20
2.723152
 30
0.0
  0
SPLINE
  5
12d
100
AcDbEntity
  8
0
 62
1
100
AcDbSpline
 70
8
 71
3
 72
8
 73
4
 74
0
 40
0
 40
0
 40
0
 40
0
 40
1
 40
1
 40
1
 40
1
 10
0.540266
 20
2.723152
 30
0.0
 10
0.540272
 20
2.750341
 30
0.0
 10
0.525714
 20
2.775467
 30
0.0
 10
0.502076
 20
2.789063
 30
0.0
  0
SPLINE
  5
12e
100
AcDbEntity
  8
0
 62
1
100
AcDbSpline
 70
8
 71
3
 72
8
 73
4
 74
0
 40
0
 40
0
 40
0
 40
0
 40
1
 40
1
 40
1
 40
1
 10
0.502076
 20
2.789063
 30
0.0
 10
0.478438
 20
2.802659
 30
0.0
 10
0.449314
 20
2.802659
 30
0.0
 10
0.425676
 20
2.789063
 30
0.0
  0
SPLINE
  5
12f
100
AcDbEntity
  8
0
 62
1
100
AcDbSpline
 70
8
 71
3
 72
8
 73
4
 74
0
 40
0
 40
0
 40
0
 40
0
 40
1
 40
1
 40
1
 40
1
 10
0.425676
 20
2.789063
 30
0.0
 10
0.402038
 20
2.775467
 30
0.0
 10
0.387480
 20
2.750341
 30
0.0
 10
0.387486
 20
2.723152
 30
0.0
  0
LWPOLYLINE
  5
130
100
AcDbEntity
  8
0
 62
1
100
AcDbPolyline
 90
1
 70
1
 10
0.387058
 20
3.314790
 30
0.0
  0
SPLINE
  5
131
100
AcDbEntity
  8
0
 62
1
100
AcDbSpline
 70
8
 71
3
 72
8
 73
4
 74
0
 40
0
 40
0
 40
0
 40
0
 40
1
 40
1
 40
1
 40
1
 10
0.387320
 20
1.303650
 30
0.0
 10
0.387314
 20
1.276461
 30
0.0
 10
0.401872
 20
1.251335
 30
0.0
 10
0.425510
 20
1.237739
 30
0.0
  0
SPLINE
  5
132
100
AcDbEntity
  8
0
 62
1
100
AcDbSpline
 70
8
 71
3
 72
8
 73
4
 74
0
 40
0
 40
0
 40
0
 40
0
 40
1
 40
1
 40
1
 40
1
 10
0.425510
 20
1.237739
 30
0.0
 10
0.449148
 20
1.224142
 30
0.0
 10
0.478272
 20
1.224142
 30
0.0
 10
0.501910
 20
1.237739
 30
0.0
  0
SPLINE
  5
133
100
AcDbEntity
  8
0
 62
1
100
AcDbSpline
 70
8
 71
3
 72
8
 73
4
 74
0
 40
0
 40
0
 40
0
 40
0
 40
1
 40
1
 40
1
 40
1
 10
0.501910
 20
1.237739
 30
0.0
 10
0.525548
 20
1.251335
 30
0.0
 10
0.540106
 20
1.276461
 30
0.0
 10
0.540100
 20
1.303650
 30
0.0
  0
SPLINE
  5
134
100
AcDbEntity
  8
0
 62
1
100
AcDbSpline
 70
8
 71
3
 72
8
 73
4
 74
0
 40
0
 40
0
 40
0
 40
0
 40
1
 40
1
 40
1
 40
1
 10
0.540100
 20
1.303650
 30
0.0
 10
0.540106
 20
1.330838
 30
0.0
 10
0.525548
 20
1.355964
 30
0.0
 10
0.501910
 20
1.369561
 30
0.0
  0
SPLINE
  5
135
100
AcDbEntity
  8
0
 62
1
100
AcDbSpline
 70
8
 71
3
 72
8
 73
4
 74
0
 40
0
 40
0
 40
0
 40
0
 40
1
 40
1
 40
1
 40
1
 10
0.501910
 20
1.369561
 30
0.0
 10
0.478272
 20
1.383157
 30
0.0
 10
0.449148
 20
1.383157
 30
0.0
 10
0.425510
 20
1.369561
 30
0.0
  0
SPLINE
  5
136
100
AcDbEntity
  8
0
 62
1
100
AcDbSpline
 70
8
 71
3
 72
8
 73
4
 74
0
 40
0
 40
0
 40
0
 40
0
 40
1
 40
1
 40
1
 40
1
 10
0.425510
 20
1.369561
 30
0.0
 10
0.401872
 20
1.355964
 30
0.0
 10
0.387314
 20
1.330838
 30
0.0
 10
0.387320
 20
1.303650
 30
0.0
  0
LWPOLYLINE
  5
137
100
AcDbEntity
  8
0
 62
1
100
AcDbPolyline
 90
1
 70
1
 10
0.387486
 20
2.723152
 30
0.0
  0
SPLINE
  5
138
100
AcDbEntity
  8
0
 62
1
100
AcDbSpline
 70
8
 71
3
 72
8
 73
4
 74
0
 40
0
 40
0
 40
0
 40
0
 40
1
 40
1
 40
1
 40
1
 10
0.913362
 20
0.475525
 30
0.0
 10
0.913353
 20
0.448334
 30
0.0
 10
0.927911
 20
0.423206
 30
0.0
 10
0.951550
 20
0.409608
 30
0.0
  0
SPLINE
  5
139
100
AcDbEntity
  8
0
 62
1
100
AcDbSpline
 70
8
 71
3
 72
8
 73
4
 74
0
 40
0
 40
0
 40
0
 40
0
 40
1
 40
1
 40
1
 40
1
 10
0.951550
 20
0.409608
 30
0.0
 10
0.975188
 20
0.396010
 30
0.0
 10
1.004315
 20
0.396010
 30
0.0
 10
1.027954
 20
0.409608
 30
0.0
  0
SPLINE
  5
13a
100
AcDbEntity
  8
0
 62
1
100
AcDbSpline
 70
8
 71
3
 72
8
 73
4
 74
0
 40
0
 40
0
 40
0
 40
0
 40
1
 40
1
 40
1
 40
1
 10
1.027954
 20
0.409608
 30
0.0
 10
1.051593
 20
0.423206
 30
0.0
 10
1.066151
 20
0.448334
 30
0.0
 10
1.066142
 20
0.475525
 30
0.0
  0
SPLINE
  5
13b
100
AcDbEntity
  8
0
 62
1
100
AcDbSpline
 70
8
 71
3
 72
8
 73
4
 74
0
 40
0
 40
0
 40
0
 40
0
 40
1
 40
1
 40
1
 40
1
 10
1.066142
 20
0.475525
 30
0.0
 10
1.066151
 20
0.502715
 30
0.0
 10
1.051593
 20
0.527844
 30
0.0
 10
1.027954
 20
0.541442
 30
0.0
  0
SPLINE
  5
13c
100
AcDbEntity
  8
0
 62
1
100
AcDbSpline
 70
8
 71
3
 72
8
 73
4
 74
0
 40
0
 40
0
 40
0
 40
0
 40
1
 40
1
 40
1
 40
1
 10
1.027954
 20
0.541442
 30
0.0
 10
1.004315
 20
0.555040
 30
0.0
 10
0.975188
 20
0.555040
 30
0.0
 10
0.951550
 20
0.541442
 30
0.0
  0
SPLINE
  5
13d
100
AcDbEntity
  8
0
 62
1
100
AcDbSpline
 70
8
 71
3
 72
8
 73
4
 74
0
 40
0
 40
0
 40
0
 40
0
 40
1
 40
1
 40
1
 40
1
 10
0.951550
 20
0.541442
 30
0.0
 10
0.927911
 20
0.527844
 30
0.0
 10
0.913353
 20
0.502715
 30
0.0
 10
0.913362
 20
0.475525
 30
0.0
  0
LWPOLYLINE
  5
13e
100
AcDbEntity
  8
0
 62
1
100
AcDbPolyline
 90
1
 70
1
 10
0.387320
 20
1.303650
 30
0.0
  0
SPLINE
  5
13f
100
AcDbEntity
  8
0
 62
1
100
AcDbSpline
 70
8
 71
3
 72
8
 73
4
 74
0
 40
0
 40
0
 40
0
 40
0
 40
1
 40
1
 40
1
 40
1
 10
2.152945
 20
0.478129
 30
0.0
 10
2.152936
 20
0.450939
 30
0.0
 10
2.167494
 20
0.425810
 30
0.0
 10
2.191133
 20
0.412212
 30
0.0
  0
SPLINE
  5
140
100
AcDbEntity
  8
0
 62
1
100
AcDbSpline
 70
8
 71
3
 72
8
 73
4
 74
0
 40
0
 40
0
 40
0
 40
0
 40
1
 40
1
 40
1
 40
1
 10
2.191133
 20
0.412212
 30
0.0
 10
2.214772
 20
0.398614
 30
0.0
 10
2.243898
 20
0.398614
 30
0.0
 10
2.267537
 20
0.412212
 30
0.0
  0
SPLINE
  5
141
100
AcDbEntity
  8
0
 62
1
100
AcDbSpline
 70
8
 71
3
 72
8
 73
4
 74
0
 40
0
 40
0
 40
0
 40
0
 40
1
 40
1
 40
1
 40
1
 10
2.267537
 20
0.412212
 30
0.0
 10
2.291176
 20
0.425810
 30
0.0
 10
2.305734
 20
0.450939
 30
0.0
 10
2.305725
 20
0.478129
 30
0.0
  0
SPLINE
  5
142
100
AcDbEntity
  8
0
 62
1
100
AcDbSpline
 70
8
 71
3
 72
8
 73
4
 74
0
 40
0
 40
0
 40
0
 40
0
 40
1
 40
1
 40
1
 40
1
 10
2.305725
 20
0.478129
 30
0.0
 10
2.305734
 20
0.505320
 30
0.0
 10
2.291176
 20
0.530448
 30
0.0
 10
2.267537
 20
0.544046
 30
0.0
  0
SPLINE
  5
143
100
AcDbEntity
  8
0
 62
1
100
AcDbSpline
 70
8
 71
3
 72
8
 73
4
 74
0
 40
0
 40
0
 40
0
 40
0
 40
1
 40
1
 40
1
 40
1
 10
2.267537
 20
0.544046
 30
0.0
 10
2.243898
 20
0.557644
 30
0.0
 10
2.214772
 20
0.557644
 30
0.0
 10
2.191133
 20
0.544046
 30
0.0
  0
SPLINE
  5
144
100
AcDbEntity
  8
0
 62
1
100
AcDbSpline
 70
8
 71
3
 72
8
 73
4
 74
0
 40
0
 40
0
 40
0
 40
0
 40
1
 40
1
 40
1
 40
1
 10
2.191133
 20
0.544046
 30
0.0
 10
2.167494
 20
0.530448
 30
0.0
 10
2.152936
 20
0.505320
 30
0.0
 10
2.152945
 20
0.478129
 30
0.0
  0
LWPOLYLINE
  5
145
100
AcDbEntity
  8
0
 62
1
100
AcDbPolyline
 90
1
 70
1
 10
0.913362
 20
0.475525
 30
0.0
  0
SPLINE
  5
146
100
AcDbEntity
  8
0
 62
1
100
AcDbSpline
 70
8
 71
3
 72
8
 73
4
 74
0
 40
0
 40
0
 40
0
 40
0
 40
1
 40
1
 40
1
 40
1
 10
3.431591
 20
0.487244
 30
0.0
 10
3.431582
 20
0.460053
 30
0.0
 10
3.446140
 20
0.434924
 30
0.0
 10
3.469779
 20
0.421327
 30
0.0
  0
SPLINE
  5
147
100
AcDbEntity
  8
0
 62
1
100
AcDbSpline
 70
8
 71
3
 72
8
 73
4
 74
0
 40
0
 40
0
 40
0
 40
0
 40
1
 40
1
 40
1
 40
1
 10
3.469779
 20
0.421327
 30
0.0
 10
3.493418
 20
0.407729
 30
0.0
 10
3.522544
 20
0.407729
 30
0.0
 10
3.546183
 20
0.421327
 30
0.0
  0
SPLINE
  5
148
100
AcDbEntity
  8
0
 62
1
100
AcDbSpline
 70
8
 71
3
 72
8
 73
4
 74
0
 40
0
 40
0
 40
0
 40
0
 40
1
 40
1
 40
1
 40
1
 10
3.546183
 20
0.421327
 30
0.0
 10
3.569822
 20
0.434924
 30
0.0
 10
3.584380
 20
0.460053
 30
0.0
 10
3.584371
 20
0.487244
 30
0.0
  0
SPLINE
  5
149
100
AcDbEntity
  8
0
 62
1
100
AcDbSpline
 70
8
 71
3
 72
8
 73
4
 74
0
 40
0
 40
0
 40
0
 40
0
 40
1
 40
1
 40
1
 40
1
 10
3.584371
 20
0.487244
 30
0.0
 10
3.584380
 20
0.514434
 30
0.0
 10
3.569822
 20
0.539563
 30
0.0
 10
3.546183
 20
0.553161
 30
0.0
  0
SPLINE
  5
14a
100
AcDbEntity
  8
0
 62
1
100
AcDbSpline
 70
8
 71
3
 72
8
 73
4
 74
0
 40
0
 40
0
 40
0
 40
0
 40
1
 40
1
 40
1
 40
1
 10
3.546183
 20
0.553161
 30
0.0
 10
3.522544
 20
0.566758
 30
0.0
 10
3.493418
 20
0.566758
 30
0.0
 10
3.469779
 20
0.553161
 30
0.0
  0
SPLINE
  5
14b
100
AcDbEntity
  8
0
 62
1
100
AcDbSpline
 70
8
 71
3
 72
8
 73
4
 74
0
 40
0
 40
0
 40
0
 40
0
 40
1
 40
1
 40
1
 40
1
 10
3.469779
 20
0.553161
 30
0.0
 10
3.446140
 20
0.539563
 30
0.0
 10
3.431582
 20
0.514434
 30
0.0
 10
3.431591
 20
0.487244
 30
0.0
  0
LWPOLYLINE
  5
14c
100
AcDbEntity
  8
0
 62
1
100
AcDbPolyline
 90
1
 70
1
 10
2.152945
 20
0.478129
 30
0.0
  0
SPLINE
  5
14d
100
AcDbEntity
  8
0
 62
1
100
AcDbSpline
 70
8
 71
3
 72
8
 73
4
 74
0
 40
0
 40
0
 40
0
 40
0
 40
1
 40
1
 40
1
 40
1
 10
4.668570
 20
0.493754
 30
0.0
 10
4.668570
 20
0.466569
 30
0.0
 10
4.683130
 20
0.441450
 30
0.0
 10
4.706765
 20
0.427857
 30
0.0
  0
SPLINE
  5
14e
100
AcDbEntity
  8
0
 62
1
100
AcDbSpline
 70
8
 71
3
 72
8
 73
4
 74
0
 40
0
 40
0
 40
0
 40
0
 40
1
 40
1
 40
1
 40
1
 10
4.706765
 20
0.427857
 30
0.0
 10
4.730400
 20
0.414265
 30
0.0
 10
4.759520
 20
0.414265
 30
0.0
 10
4.783155
 20
0.427857
 30
0.0
  0
SPLINE
  5
14f
100
AcDbEntity
  8
0
 62
1
100
AcDbSpline
 70
8
 71
3
 72
8
 73
4
 74
0
 40
0
 40
0
 40
0
 40
0
 40
1
 40
1
 40
1
 40
1
 10
4.783155
 20
0.427857
 30
0.0
 10
4.806791
 20
0.441450
 30
0.0
 10
4.821350
 20
0.466569
 30
0.0
 10
4.821350
 20
0.493754
 30
0.0
  0
SPLINE
  5
150
100
AcDbEntity
  8
0
 62
1
100
AcDbSpline
 70
8
 71
3
 72
8
 73
4
 74
0
 40
0
 40
0
 40
0
 40
0
 40
1
 40
1
 40
1
 40
1
 10
4.821350
 20
0.493754
 30
0.0
 10
4.821350
 20
0.520939
 30
0.0
 10
4.806791
 20
0.546058
 30
0.0
 10
4.783155
 20
0.559651
 30
0.0
  0
SPLINE
  5
151
100
AcDbEntity
  8
0
 62
1
100
AcDbSpline
 70
8
 71
3
 72
8
 73
4
 74
0
 40
0
 40
0
 40
0
 40
0
 40
1
 40
1
 40
1
 40
1
 10
4.783155
 20
0.559651
 30
0.0
 10
4.759520
 20
0.573243
 30
0.0
 10
4.730400
 20
0.573243
 30
0.0
 10
4.706765
 20
0.559651
 30
0.0
  0
SPLINE
  5
152
100
AcDbEntity
  8
0
 62
1
100
AcDbSpline
 70
8
 71
3
 72
8
 73
4
 74
0
 40
0
 40
0
 40
0
 40
0
 40
1
 40
1
 40
1
 40
1
 10
4.706765
 20
0.559651
 30
0.0
 10
4.683130
 20
0.546058
 30
0.0
 10
4.668570
 20
0.520939
 30
0.0
 10
4.668570
 20
0.493754
 30
0.0
  0
LWPOLYLINE
  5
153
100
AcDbEntity
  8
0
 62
1
100
AcDbPolyline
 90
1
 70
1
 10
3.431591
 20
0.487244
 30
0.0
  0
SPLINE
  5
154
100
AcDbEntity
  8
0
 62
1
100
AcDbSpline
 70
8
 71
3
 72
8
 73
4
 74
0
 40
0
 40
0
 40
0
 40
0
 40
1
 40
1
 40
1
 40
1
 10
5.978466
 20
0.493754
 30
0.0
 10
5.978466
 20
0.466569
 30
0.0
 10
5.993026
 20
0.441450
 30
0.0
 10
6.016661
 20
0.427857
 30
0.0
  0
SPLINE
  5
155
100
AcDbEntity
  8
0
 62
1
100
AcDbSpline
 70
8
 71
3
 72
8
 73
4
 74
0
 40
0
 40
0
 40
0
 40
0
 40
1
 40
1
 40
1
 40
1
 10
6.016661
 20
0.427857
 30
0.0
 10
6.040296
 20
0.414265
 30
0.0
 10
6.069416
 20
0.414265
 30
0.0
 10
6.093051
 20
0.427857
 30
0.0
  0
SPLINE
  5
156
100
AcDbEntity
  8
0
 62
1
100
AcDbSpline
 70
8
 71
3
 72
8
 73
4
 74
0
 40
0
 40
0
 40
0
 40
0
 40
1
 40
1
 40
1
 40
1
 10
6.093051
 20
0.427857
 30
0.0
 10
6.116686
 20
0.441450
 30
0.0
 10
6.131246
 20
0.466569
 30
0.0
 10
6.131246
 20
0.493754
 30
0.0
  0
SPLINE
  5
157
100
AcDbEntity
  8
0
 62
1
100
AcDbSpline
 70
8
 71
3
 72
8
 73
4
 74
0
 40
0
 40
0
 40
0
 40
0
 40
1
 40
1
 40
1
 40
1
 10
6.131246
 20
0.493754
 30
0.0
 10
6.131246
 20
0.520939
 30
0.0
 10
6.116686
 20
0.546058
 30
0.0
 10
6.093051
 20
0.559651
 30
0.0
  0
SPLINE
  5
158
100
AcDbEntity
  8
0
 62
1
100
AcDbSpline
 70
8
 71
3
 72
8
 73
4
 74
0
 40
0
 40
0
 40
0
 40
0
 40
1
 40
1
 40
1
 40
1
 10
6.093051
 20
0.559651
 30
0.0
 10
6.069416
 20
0.573243
 30
0.0
 10
6.040296
 20
0.573243
 30
0.0
 10
6.016661
 20
0.559651
 30
0.0
  0
SPLINE
  5
159
100
AcDbEntity
  8
0
 62
1
100
AcDbSpline
 70
8
 71
3
 72
8
 73
4
 74
0
 40
0
 40
0
 40
0
 40
0
 40
1
 40
1
 40
1
 40
1
 10
6.016661
 20
0.559651
 30
0.0
 10
5.993026
 20
0.546058
 30
0.0
 10
5.978466
 20
0.520939
 30
0.0
 10
5.978466
 20
0.493754
 30
0.0
  0
LWPOLYLINE
  5
15a
100
AcDbEntity
  8
0
 62
1
100
AcDbPolyline
 90
1
 70
1
 10
4.668570
 20
0.493754
 30
0.0
  0
SPLINE
  5
15b
100
AcDbEntity
  8
0
 62
1
100
AcDbSpline
 70
8
 71
3
 72
8
 73
4
 74
0
 40
0
 40
0
 40
0
 40
0
 40
1
 40
1
 40
1
 40
1
 10
7.221956
 20
0.491150
 30
0.0
 10
7.221956
 20
0.463965
 30
0.0
 10
7.236515
 20
0.438845
 30
0.0
 10
7.260151
 20
0.425253
 30
0.0
  0
SPLINE
  5
15c
100
AcDbEntity
  8
0
 62
1
100
AcDbSpline
 70
8
 71
3
 72
8
 73
4
 74
0
 40
0
 40
0
 40
0
 40
0
 40
1
 40
1
 40
1
 40
1
 10
7.260151
 20
0.425253
 30
0.0
 10
7.283786
 20
0.411661
 30
0.0
 10
7.312906
 20
0.411661
 30
0.0
 10
7.336541
 20
0.425253
 30
0.0
  0
SPLINE
  5
15d
100
AcDbEntity
  8
0
 62
1
100
AcDbSpline
 70
8
 71
3
 72
8
 73
4
 74
0
 40
0
 40
0
 40
0
 40
0
 40
1
 40
1
 40
1
 40
1
 10
7.336541
 20
0.425253
 30
0.0
 10
7.360176
 20
0.438845
 30
0.0
 10
7.374736
 20
0.463965
 30
0.0
 10
7.374736
 20
0.491150
 30
0.0
  0
SPLINE
  5
15e
100
AcDbEntity
  8
0
 62
1
100
AcDbSpline
 70
8
 71
3
 72
8
 73
4
 74
0
 40
0
 40
0
 40
0
 40
0
 40
1
 40
1
 40
1
 40
1
 10
7.374736
 20
0.491150
 30
0.0
 10
7.374736
 20
0.518334
 30
0.0
 10
7.360176
 20
0.543454
 30
0.0
 10
7.336541
 20
0.557046
 30
0.0
  0
SPLINE
  5
15f
100
AcDbEntity
  8
0
 62
1
100
AcDbSpline
 70
8
 71
3
 72
8
 73
4
 74
0
 40
0
 40
0
 40
0
 40
0
 40
1
 40
1
 40
1
 40
1
 10
7.336541
 20
0.557046
 30
0.0
 10
7.312906
 20
0.570639
 30
0.0
 10
7.283786
 20
0.570639
 30
0.0
 10
7.260151
 20
0.557046
 30
0.0
  0
SPLINE
  5
160
100
AcDbEntity
  8
0
 62
1
100
AcDbSpline
 70
8
 71
3
 72
8
 73
4
 74
0
 40
0
 40
0
 40
0
 40
0
 40
1
 40
1
 40
1
 40
1
 10
7.260151
 20
0.557046
 30
0.0
 10
7.236515
 20
0.543454
 30
0.0
 10
7.221956
 20
0.518334
 30
0.0
 10
7.221956
 20
0.491150
 30
0.0
  0
LWPOLYLINE
  5
161
100
AcDbEntity
  8
0
 62
1
100
AcDbPolyline
 90
1
 70
1
 10
5.978466
 20
0.493754
 30
0.0
  0
SPLINE
  5
162
100
AcDbEntity
  8
0
 62
1
100
AcDbSpline
 70
8
 71
3
 72
8
 73
4
 74
0
 40
0
 40
0
 40
0
 40
0
 40
1
 40
1
 40
1
 40
1
 10
7.776643
 20
1.315369
 30
0.0
 10
7.776643
 20
1.288184
 30
0.0
 10
7.791203
 20
1.263064
 30
0.0
 10
7.814838
 20
1.249472
 30
0.0
  0
SPLINE
  5
163
100
AcDbEntity
  8
0
 62
1
100
AcDbSpline
 70
8
 71
3
 72
8
 73
4
 74
0
 40
0
 40
0
 40
0
 40
0
 40
1
 40
1
 40
1
 40
1
 10
7.814838
 20
1.249472
 30
0.0
 10
7.838473
 20
1.235880
 30
0.0
 10
7.867593
 20
1.235880
 30
0.0
 10
7.891228
 20
1.249472
 30
0.0
  0
SPLINE
  5
164
100
AcDbEntity
  8
0
 62
1
100
AcDbSpline
 70
8
 71
3
 72
8
 73
4
 74
0
 40
0
 40
0
 40
0
 40
0
 40
1
 40
1
 40
1
 40
1
 10
7.891228
 20
1.249472
 30
0.0
 10
7.914863
 20
1.263064
 30
0.0
 10
7.929423
 20
1.288184
 30
0.0
 10
7.929423
 20
1.315369
 30
0.0
  0
SPLINE
  5
165
100
AcDbEntity
  8
0
 62
1
100
AcDbSpline
 70
8
 71
3
 72
8
 73
4
 74
0
 40
0
 40
0
 40
0
 40
0
 40
1
 40
1
 40
1
 40
1
 10
7.929423
 20
1.315369
 30
0.0
 10
7.929423
 20
1.342553
 30
0.0
 10
7.914863
 20
1.367673
 30
0.0
 10
7.891228
 20
1.381265
 30
0.0
  0
SPLINE
  5
166
100
AcDbEntity
  8
0
 62
1
100
AcDbSpline
 70
8
 71
3
 72
8
 73
4
 74
0
 40
0
 40
0
 40
0
 40
0
 40
1
 40
1
 40
1
 40
1
 10
7.891228
 20
1.381265
 30
0.0
 10
7.867593
 20
1.394857
 30
0.0
 10
7.838473
 20
1.394857
 30
0.0
 10
7.814838
 20
1.381265
 30
0.0
  0
SPLINE
  5
167
100
AcDbEntity
  8
0
 62
1
100
AcDbSpline
 70
8
 71
3
 72
8
 73
4
 74
0
 40
0
 40
0
 40
0
 40
0
 40
1
 40
1
 40
1
 40
1
 10
7.814838
 20
1.381265
 30
0.0
 10
7.791203
 20
1.367673
 30
0.0
 10
7.776643
 20
1.342553
 30
0.0
 10
7.776643
 20
1.315369
 30
0.0
  0
LWPOLYLINE
  5
168
100
AcDbEntity
  8
0
 62
1
100
AcDbPolyline
 90
1
 70
1
 10
7.221956
 20
0.491150
 30
0.0
  0
SPLINE
  5
169
100
AcDbEntity
  8
0
 62
1
100
AcDbSpline
 70
8
 71
3
 72
8
 73
4
 74
0
 40
0
 40
0
 40
0
 40
0
 40
1
 40
1
 40
1
 40
1
 10
7.768830
 20
2.088806
 30
0.0
 10
7.768830
 20
2.061621
 30
0.0
 10
7.783390
 20
2.036502
 30
0.0
 10
7.807025
 20
2.022909
 30
0.0
  0
SPLINE
  5
16a
100
AcDbEntity
  8
0
 62
1
100
AcDbSpline
 70
8
 71
3
 72
8
 73
4
 74
0
 40
0
 40
0
 40
0
 40
0
 40
1
 40
1
 40
1
 40
1
 10
7.807025
 20
2.022909
 30
0.0
 10
7.830661
 20
2.009317
 30
0.0
 10
7.859780
 20
2.009317
 30
0.0
 10
7.883416
 20
2.022909
 30
0.0
  0
SPLINE
  5
16b
100
AcDbEntity
  8
0
 62
1
100
AcDbSpline
 70
8
 71
3
 72
8
 73
4
 74
0
 40
0
 40
0
 40
0
 40
0
 40
1
 40
1
 40
1
 40
1
 10
7.883416
 20
2.022909
 30
0.0
 10
7.907051
 20
2.036502
 30
0.0
 10
7.921611
 20
2.061621
 30
0.0
 10
7.921611
 20
2.088806
 30
0.0
  0
SPLINE
  5
16c
100
AcDbEntity
  8
0
 62
1
100
AcDbSpline
 70
8
 71
3
 72
8
 73
4
 74
0
 40
0
 40
0
 40
0
 40
0
 40
1
 40
1
 40
1
 40
1
 10
7.921611
 20
2.088806
 30
0.0
 10
7.921611
 20
2.115991
 30
0.0
 10
7.907051
 20
2.141110
 30
0.0
 10
7.883416
 20
2.154703
 30
0.0
  0
SPLINE
  5
16d
100
AcDbEntity
  8
0
 62
1
100
AcDbSpline
 70
8
 71
3
 72
8
 73
4
 74
0
 40
0
 40
0
 40
0
 40
0
 40
1
 40
1
 40
1
 40
1
 10
7.883416
 20
2.154703
 30
0.0
 10
7.859780
 20
2.168295
 30
0.0
 10
7.830661
 20
2.168295
 30
0.0
 10
7.807025
 20
2.154703
 30
0.0
  0
SPLINE
  5
16e
100
AcDbEntity
  8
0
 62
1
100
AcDbSpline
 70
8
 71
3
 72
8
 73
4
 74
0
 40
0
 40
0
 40
0
 40
0
 40
1
 40
1
 40
1
 40
1
 10
7.807025
 20
2.154703
 30
0.0
 10
7.783390
 20
2.141110
 30
0.0
 10
7.768830
 20
2.115991
 30
0.0
 10
7.768830
 20
2.088806
 30
0.0
  0
LWPOLYLINE
  5
16f
100
AcDbEntity
  8
0
 62
1
100
AcDbPolyline
 90
1
 70
1
 10
7.776643
 20
1.315369
 30
0.0
  0
SPLINE
  5
170
100
AcDbEntity
  8
0
 62
1
100
AcDbSpline
 70
8
 71
3
 72
8
 73
4
 74
0
 40
0
 40
0
 40
0
 40
0
 40
1
 40
1
 40
1
 40
1
 10
7.771435
 20
2.735941
 30
0.0
 10
7.771435
 20
2.708757
 30
0.0
 10
7.785995
 20
2.683637
 30
0.0
 10
7.809630
 20
2.670045
 30
0.0
  0
SPLINE
  5
171
100
AcDbEntity
  8
0
 62
1
100
AcDbSpline
 70
8
 71
3
 72
8
 73
4
 74
0
 40
0
 40
0
 40
0
 40
0
 40
1
 40
1
 40
1
 40
1
 10
7.809630
 20
2.670045
 30
0.0
 10
7.833265
 20
2.656452
 30
0.0
 10
7.862385
 20
2.656452
 30
0.0
 10
7.886020
 20
2.670045
 30
0.0
  0
SPLINE
  5
172
100
AcDbEntity
  8
0
 62
1
100
AcDbSpline
 70
8
 71
3
 72
8
 73
4
 74
0
 40
0
 40
0
 40
0
 40
0
 40
1
 40
1
 40
1
 40
1
 10
7.886020
 20
2.670045
 30
0.0
 10
7.909655
 20
2.683637
 30
0.0
 10
7.924215
 20
2.708757
 30
0.0
 10
7.924215
 20
2.735941
 30
0.0
  0
SPLINE
  5
173
100
AcDbEntity
  8
0
 62
1
100
AcDbSpline
 70
8
 71
3
 72
8
 73
4
 74
0
 40
0
 40
0
 40
0
 40
0
 40
1
 40
1
 40
1
 40
1
 10
7.924215
 20
2.735941
 30
0.0
 10
7.924215
 20
2.763126
 30
0.0
 10
7.909655
 20
2.788246
 30
0.0
 10
7.886020
 20
2.801838
 30
0.0
  0
SPLINE
  5
174
100
AcDbEntity
  8
0
 62
1
100
AcDbSpline
 70
8
 71
3
 72
8
 73
4
 74
0
 40
0
 40
0
 40
0
 40
0
 40
1
 40
1
 40
1
 40
1
 10
7.886020
 20
2.801838
 30
0.0
 10
7.862385
 20
2.815430
 30
0.0
 10
7.833265
 20
2.815430
 30
0.0
 10
7.809630
 20
2.801838
 30
0.0
  0
SPLINE
  5
175
100
AcDbEntity
  8
0
 62
1
100
AcDbSpline
 70
8
 71
3
 72
8
 73
4
 74
0
 40
0
 40
0
 40
0
 40
0
 40
1
 40
1
 40
1
 40
1
 10
7.809630
 20
2.801838
 30
0.0
 10
7.785995
 20
2.788246
 30
0.0
 10
7.771435
 20
2.763126
 30
0.0
 10
7.771435
 20
2.735941
 30
0.0
  0
LWPOLYLINE
  5
176
100
AcDbEntity
  8
0
 62
1
100
AcDbPolyline
 90
1
 70
1
 10
7.768830
 20
2.088806
 30
0.0
  0
SPLINE
  5
177
100
AcDbEntity
  8
0
 62
1
100
AcDbSpline
 70
8
 71
3
 72
8
 73
4
 74
0
 40
0
 40
0
 40
0
 40
0
 40
1
 40
1
 40
1
 40
1
 10
7.772918
 20
3.499734
 30
0.0
 10
7.772918
 20
3.472549
 30
0.0
 10
7.787478
 20
3.447430
 30
0.0
 10
7.811113
 20
3.433837
 30
0.0
  0
SPLINE
  5
178
100
AcDbEntity
  8
0
 62
1
100
AcDbSpline
 70
8
 71
3
 72
8
 73
4
 74
0
 40
0
 40
0
 40
0
 40
0
 40
1
 40
1
 40
1
 40
1
 10
7.811113
 20
3.433837
 30
0.0
 10
7.834748
 20
3.420245
 30
0.0
 10
7.863868
 20
3.420245
 30
0.0
 10
7.887503
 20
3.433837
 30
0.0
  0
SPLINE
  5
179
100
AcDbEntity
  8
0
 62
1
100
AcDbSpline
 70
8
 71
3
 72
8
 73
4
 74
0
 40
0
 40
0
 40
0
 40
0
 40
1
 40
1
 40
1
 40
1
 10
7.887503
 20
3.433837
 30
0.0
 10
7.911138
 20
3.447430
 30
0.0
 10
7.925698
 20
3.472549
 30
0.0
 10
7.925698
 20
3.499734
 30
0.0
  0
SPLINE
  5
17a
100
AcDbEntity
  8
0
 62
1
100
AcDbSpline
 70
8
 71
3
 72
8
 73
4
 74
0
 40
0
 40
0
 40
0
 40
0
 40
1
 40
1
 40
1
 40
1
 10
7.925698
 20
3.499734
 30
0.0
 10
7.925698
 20
3.526919
 30
0.0
 10
7.911138
 20
3.552038
 30
0.0
 10
7.887503
 20
3.565631
 30
0.0
  0
SPLINE
  5
17b
100
AcDbEntity
  8
0
 62
1
100
AcDbSpline
 70
8
 71
3
 72
8
 73
4
 74
0
 40
0
 40
0
 40
0
 40
0
 40
1
 40
1
 40
1
 40
1
 10
7.887503
 20
3.565631
 30
0.0
 10
7.863868
 20
3.579223
 30
0.0
 10
7.834748
 20
3.579223
 30
0.0
 10
7.811113
 20
3.565631
 30
0.0
  0
SPLINE
  5
17c
100
AcDbEntity
  8
0
 62
1
100
AcDbSpline
 70
8
 71
3
 72
8
 73
4
 74
0
 40
0
 40
0
 40
0
 40
0
 40
1
 40
1
 40
1
 40
1
 10
7.811113
 20
3.565631
 30
0.0
 10
7.787478
 20
3.552038
 30
0.0
 10
7.772918
 20
3.526919
 30
0.0
 10
7.772918
 20
3.499734
 30
0.0
  0
LWPOLYLINE
  5
17d
100
AcDbEntity
  8
0
 62
1
100
AcDbPolyline
 90
1
 70
1
 10
7.771435
 20
2.735941
 30
0.0
  0
SPLINE
  5
17e
100
AcDbEntity
  8
0
 62
1
100
AcDbSpline
 70
8
 71
3
 72
8
 73
4
 74
0
 40
0
 40
0
 40
0
 40
0
 40
1
 40
1
 40
1
 40
1
 10
7.767384
 20
4.099343
 30
0.0
 10
7.767384
 20
4.072159
 30
0.0
 10
7.781944
 20
4.047039
 30
0.0
 10
7.805579
 20
4.033447
 30
0.0
  0
SPLINE
  5
17f
100
AcDbEntity
  8
0
 62
1
100
AcDbSpline
 70
8
 71
3
 72
8
 73
4
 74
0
 40
0
 40
0
 40
0
 40
0
 40
1
 40
1
 40
1
 40
1
 10
7.805579
 20
4.033447
 30
0.0
 10
7.829214
 20
4.019854
 30
0.0
 10
7.858334
 20
4.019854
 30
0.0
 10
7.881969
 20
4.033447
 30
0.0
  0
SPLINE
  5
180
100
AcDbEntity
  8
0
 62
1
100
AcDbSpline
 70
8
 71
3
 72
8
 73
4
 74
0
 40
0
 40
0
 40
0
 40
0
 40
1
 40
1
 40
1
 40
1
 10
7.881969
 20
4.033447
 30
0.0
 10
7.905604
 20
4.047039
 30
0.0
 10
7.920164
 20
4.072159
 30
0.0
 10
7.920164
 20
4.099343
 30
0.0
  0
SPLINE
  5
181
100
AcDbEntity
  8
0
 62
1
100
AcDbSpline
 70
8
 71
3
 72
8
 73
4
 74
0
 40
0
 40
0
 40
0
 40
0
 40
1
 40
1
 40
1
 40
1
 10
7.920164
 20
4.099343
 30
0.0
 10
7.920164
 20
4.126528
 30
0.0
 10
7.905604
 20
4.151648
 30
0.0
 10
7.881969
 20
4.165240
 30
0.0
  0
SPLINE
  5
182
100
AcDbEntity
  8
0
 62
1
100
AcDbSpline
 70
8
 71
3
 72
8
 73
4
 74
0
 40
0
 40
0
 40
0
 40
0
 40
1
 40
1
 40
1
 40
1
 10
7.881969
 20
4.165240
 30
0.0
 10
7.858334
 20
4.178832
 30
0.0
 10
7.829214
 20
4.178832
 30
0.0
 10
7.805579
 20
4.165240
 30
0.0
  0
SPLINE
  5
183
100
AcDbEntity
  8
0
 62
1
100
AcDbSpline
 70
8
 71
3
 72
8
 73
4
 74
0
 40
0
 40
0
 40
0
 40
0
 40
1
 40
1
 40
1
 40
1
 10
7.805579
 20
4.165240
 30
0.0
 10
7.781944
 20
4.151648
 30
0.0
 10
7.767384
 20
4.126528
 30
0.0
 10
7.767384
 20
4.099343
 30
0.0
  0
LWPOLYLINE
  5
184
100
AcDbEntity
  8
0
 62
1
100
AcDbPolyline
 90
1
 70
1
 10
7.772918
 20
3.499734
 30
0.0
  0
SPLINE
  5
185
100
AcDbEntity
  8
0
 62
1
100
AcDbSpline
 70
8
 71
3
 72
8
 73
4
 74
0
 40
0
 40
0
 40
0
 40
0
 40
1
 40
1
 40
1
 40
1
 10
7.762557
 20
4.899193
 30
0.0
 10
7.762557
 20
4.872008
 30
0.0
 10
7.777117
 20
4.846889
 30
0.0
 10
7.800753
 20
4.833296
 30
0.0
  0
SPLINE
  5
186
100
AcDbEntity
  8
0
 62
1
100
AcDbSpline
 70
8
 71
3
 72
8
 73
4
 74
0
 40
0
 40
0
 40
0
 40
0
 40
1
 40
1
 40
1
 40
1
 10
7.800753
 20
4.833296
 30
0.0
 10
7.824388
 20
4.819704
 30
0.0
 10
7.853508
 20
4.819704
 30
0.0
 10
7.877143
 20
4.833296
 30
0.0
  0
SPLINE
  5
187
100
AcDbEntity
  8
0
 62
1
100
AcDbSpline
 70
8
 71
3
 72
8
 73
4
 74
0
 40
0
 40
0
 40
0
 40
0
 40
1
 40
1
 40
1
 40
1
 10
7.877143
 20
4.833296
 30
0.0
 10
7.900778
 20
4.846889
 30
0.0
 10
7.915338
 20
4.872008
 30
0.0
 10
7.915338
 20
4.899193
 30
0.0
  0
SPLINE
  5
188
100
AcDbEntity
  8
0
 62
1
100
AcDbSpline
 70
8
 71
3
 72
8
 73
4
 74
0
 40
0
 40
0
 40
0
 40
0
 40
1
 40
1
 40
1
 40
1
 10
7.915338
 20
4.899193
 30
0.0
 10
7.915338
 20
4.926378
 30
0.0
 10
7.900778
 20
4.951497
 30
0.0
 10
7.877143
 20
4.965090
 30
0.0
  0
SPLINE
  5
189
100
AcDbEntity
  8
0
 62
1
100
AcDbSpline
 70
8
 71
3
 72
8
 73
4
 74
0
 40
0
 40
0
 40
0
 40
0
 40
1
 40
1
 40
1
 40
1
 10
7.877143
 20
4.965090
 30
0.0
 10
7.853508
 20
4.978682
 30
0.0
 10
7.824388
 20
4.978682
 30
0.0
 10
7.800753
 20
4.965090
 30
0.0
  0
SPLINE
  5
18a
100
AcDbEntity
  8
0
 62
1
100
AcDbSpline
 70
8
 71
3
 72
8
 73
4
 74
0
 40
0
 40
0
 40
0
 40
0
 40
1
 40
1
 40
1
 40
1
 10
7.800753
 20
4.965090
 30
0.0
 10
7.777117
 20
4.951497
 30
0.0
 10
7.762557
 20
4.926378
 30
0.0
 10
7.762557
 20
4.899193
 30
0.0
  0
LWPOLYLINE
  5
18b
100
AcDbEntity
  8
0
 62
1
100
AcDbPolyline
 90
1
 70
1
 10
7.767384
 20
4.099343
 30
0.0
  0
SPLINE
  5
18c
100
AcDbEntity
  8
0
 62
1
100
AcDbSpline
 70
8
 71
3
 72
8
 73
4
 74
0
 40
0
 40
0
 40
0
 40
0
 40
1
 40
1
 40
1
 40
1
 10
7.777289
 20
5.490290
 30
0.0
 10
7.777289
 20
5.463105
 30
0.0
 10
7.791849
 20
5.437986
 30
0.0
 10
7.815484
 20
5.424393
 30
0.0
  0
SPLINE
  5
18d
100
AcDbEntity
  8
0
 62
1
100
AcDbSpline
 70
8
 71
3
 72
8
 73
4
 74
0
 40
0
 40
0
 40
0
 40
0
 40
1
 40
1
 40
1
 40
1
 10
7.815484
 20
5.424393
 30
0.0
 10
7.839119
 20
5.410801
 30
0.0
 10
7.868239
 20
5.410801
 30
0.0
 10
7.891874
 20
5.424393
 30
0.0
  0
SPLINE
  5
18e
100
AcDbEntity
  8
0
 62
1
100
AcDbSpline
 70
8
 71
3
 72
8
 73
4
 74
0
 40
0
 40
0
 40
0
 40
0
 40
1
 40
1
 40
1
 40
1
 10
7.891874
 20
5.424393
 30
0.0
 10
7.915509
 20
5.437986
 30
0.0
 10
7.930069
 20
5.463105
 30
0.0
 10
7.930069
 20
5.490290
 30
0.0
  0
SPLINE
  5
18f
100
AcDbEntity
  8
0
 62
1
100
AcDbSpline
 70
8
 71
3
 72
8
 73
4
 74
0
 40
0
 40
0
 40
0
 40
0
 40
1
 40
1
 40
1
 40
1
 10
7.930069
 20
5.490290
 30
0.0
 10
7.930069
 20
5.517475
 30
0.0
 10
7.915509
 20
5.542594
 30
0.0
 10
7.891874
 20
5.556187
 30
0.0
  0
SPLINE
  5
190
100
AcDbEntity
  8
0
 62
1
100
AcDbSpline
 70
8
 71
3
 72
8
 73
4
 74
0
 40
0
 40
0
 40
0
 40
0
 40
1
 40
1
 40
1
 40
1
 10
7.891874
 20
5.556187
 30
0.0
 10
7.868239
 20
5.569779
 30
0.0
 10
7.839119
 20
5.569779
 30
0.0
 10
7.815484
 20
5.556187
 30
0.0
  0
SPLINE
  5
191
100
AcDbEntity
  8
0
 62
1
100
AcDbSpline
 70
8
 71
3
 72
8
 73
4
 74
0
 40
0
 40
0
 40
0
 40
0
 40
1
 40
1
 40
1
 40
1
 10
7.815484
 20
5.556187
 30
0.0
 10
7.791849
 20
5.542594
 30
0.0
 10
7.777289
 20
5.517475
 30
0.0
 10
7.777289
 20
5.490290
 30
0.0
  0
LWPOLYLINE
  5
192
100
AcDbEntity
  8
0
 62
1
100
AcDbPolyline
 90
1
 70
1
 10
7.762557
 20
4.899193
 30
0.0
  0
SPLINE
  5
193
100
AcDbEntity
  8
0
 62
1
100
AcDbSpline
 70
8
 71
3
 72
8
 73
4
 74
0
 40
0
 40
0
 40
0
 40
0
 40
1
 40
1
 40
1
 40
1
 10
7.782391
 20
6.255216
 30
0.0
 10
7.782391
 20
6.228031
 30
0.0
 10
7.796951
 20
6.202912
 30
0.0
 10
7.820586
 20
6.189319
 30
0.0
  0
SPLINE
  5
194
100
AcDbEntity
  8
0
 62
1
100
AcDbSpline
 70
8
 71
3
 72
8
 73
4
 74
0
 40
0
 40
0
 40
0
 40
0
 40
1
 40
1
 40
1
 40
1
 10
7.820586
 20
6.189319
 30
0.0
 10
7.844221
 20
6.175727
 30
0.0
 10
7.873341
 20
6.175727
 30
0.0
 10
7.896976
 20
6.189319
 30
0.0
  0
SPLINE
  5
195
100
AcDbEntity
  8
0
 62
1
100
AcDbSpline
 70
8
 71
3
 72
8
 73
4
 74
0
 40
0
 40
0
 40
0
 40
0
 40
1
 40
1
 40
1
 40
1
 10
7.896976
 20
6.189319
 30
0.0
 10
7.920611
 20
6.202912
 30
0.0
 10
7.935171
 20
6.228031
 30
0.0
 10
7.935171
 20
6.255216
 30
0.0
  0
SPLINE
  5
196
100
AcDbEntity
  8
0
 62
1
100
AcDbSpline
 70
8
 71
3
 72
8
 73
4
 74
0
 40
0
 40
0
 40
0
 40
0
 40
1
 40
1
 40
1
 40
1
 10
7.935171
 20
6.255216
 30
0.0
 10
7.935171
 20
6.282401
 30
0.0
 10
7.920611
 20
6.307520
 30
0.0
 10
7.896976
 20
6.321113
 30
0.0
  0
SPLINE
  5
197
100
AcDbEntity
  8
0
 62
1
100
AcDbSpline
 70
8
 71
3
 72
8
 73
4
 74
0
 40
0
 40
0
 40
0
 40
0
 40
1
 40
1
 40
1
 40
1
 10
7.896976
 20
6.321113
 30
0.0
 10
7.873341
 20
6.334705
 30
0.0
 10
7.844221
 20
6.334705
 30
0.0
 10
7.820586
 20
6.321113
 30
0.0
  0
SPLINE
  5
198
100
AcDbEntity
  8
0
 62
1
100
AcDbSpline
 70
8
 71
3
 72
8
 73
4
 74
0
 40
0
 40
0
 40
0
 40
0
 40
1
 40
1
 40
1
 40
1
 10
7.820586
 20
6.321113
 30
0.0
 10
7.796951
 20
6.307520
 30
0.0
 10
7.782391
 20
6.282401
 30
0.0
 10
7.782391
 20
6.255216
 30
0.0
  0
LWPOLYLINE
  5
199
100
AcDbEntity
  8
0
 62
1
100
AcDbPolyline
 90
1
 70
1
 10
7.777289
 20
5.490290
 30
0.0
  0
SPLINE
  5
19a
100
AcDbEntity
  8
0
 62
1
100
AcDbSpline
 70
8
 71
3
 72
8
 73
4
 74
0
 40
0
 40
0
 40
0
 40
0
 40
1
 40
1
 40
1
 40
1
 10
7.781929
 20
6.879268
 30
0.0
 10
7.781929
 20
6.852084
 30
0.0
 10
7.796489
 20
6.826964
 30
0.0
 10
7.820124
 20
6.813372
 30
0.0
  0
SPLINE
  5
19b
100
AcDbEntity
  8
0
 62
1
100
AcDbSpline
 70
8
 71
3
 72
8
 73
4
 74
0
 40
0
 40
0
 40
0
 40
0
 40
1
 40
1
 40
1
 40
1
 10
7.820124
 20
6.813372
 30
0.0
 10
7.843759
 20
6.799779
 30
0.0
 10
7.872879
 20
6.799779
 30
0.0
 10
7.896514
 20
6.813372
 30
0.0
  0
SPLINE
  5
19c
100
AcDbEntity
  8
0
 62
1
100
AcDbSpline
 70
8
 71
3
 72
8
 73
4
 74
0
 40
0
 40
0
 40
0
 40
0
 40
1
 40
1
 40
1
 40
1
 10
7.896514
 20
6.813372
 30
0.0
 10
7.920150
 20
6.826964
 30
0.0
 10
7.934709
 20
6.852084
 30
0.0
 10
7.934709
 20
6.879268
 30
0.0
  0
SPLINE
  5
19d
100
AcDbEntity
  8
0
 62
1
100
AcDbSpline
 70
8
 71
3
 72
8
 73
4
 74
0
 40
0
 40
0
 40
0
 40
0
 40
1
 40
1
 40
1
 40
1
 10
7.934709
 20
6.879268
 30
0.0
 10
7.934709
 20
6.906453
 30
0.0
 10
7.920150
 20
6.931573
 30
0.0
 10
7.896514
 20
6.945165
 30
0.0
  0
SPLINE
  5
19e
100
AcDbEntity
  8
0
 62
1
100
AcDbSpline
 70
8
 71
3
 72
8
 73
4
 74
0
 40
0
 40
0
 40
0
 40
0
 40
1
 40
1
 40
1
 40
1
 10
7.896514
 20
6.945165
 30
0.0
 10
7.872879
 20
6.958757
 30
0.0
 10
7.843759
 20
6.958757
 30
0.0
 10
7.820124
 20
6.945165
 30
0.0
  0
SPLINE
  5
19f
100
AcDbEntity
  8
0
 62
1
100
AcDbSpline
 70
8
 71
3
 72
8
 73
4
 74
0
 40
0
 40
0
 40
0
 40
0
 40
1
 40
1
 40
1
 40
1
 10
7.820124
 20
6.945165
 30
0.0
 10
7.796489
 20
6.931573
 30
0.0
 10
7.781929
 20
6.906453
 30
0.0
 10
7.781929
 20
6.879268
 30
0.0
  0
LWPOLYLINE
  5
1a0
100
AcDbEntity
  8
0
 62
1
100
AcDbPolyline
 90
1
 70
1
 10
7.782391
 20
6.255216
 30
0.0
  0
SPLINE
  5
1a1
100
AcDbEntity
  8
0
 62
1
100
AcDbSpline
 70
8
 71
3
 72
8
 73
4
 74
0
 40
0
 40
0
 40
0
 40
0
 40
1
 40
1
 40
1
 40
1
 10
0.382716
 20
1.934337
 30
0.0
 10
0.382710
 20
1.907149
 30
0.0
 10
0.397269
 20
1.882023
 30
0.0
 10
0.420906
 20
1.868426
 30
0.0
  0
SPLINE
  5
1a2
100
AcDbEntity
  8
0
 62
1
100
AcDbSpline
 70
8
 71
3
 72
8
 73
4
 74
0
 40
0
 40
0
 40
0
 40
0
 40
1
 40
1
 40
1
 40
1
 10
0.420906
 20
1.868426
 30
0.0
 10
0.444544
 20
1.854830
 30
0.0
 10
0.473669
 20
1.854830
 30
0.0
 10
0.497307
 20
1.868426
 30
0.0
  0
SPLINE
  5
1a3
100
AcDbEntity
  8
0
 62
1
100
AcDbSpline
 70
8
 71
3
 72
8
 73
4
 74
0
 40
0
 40
0
 40
0
 40
0
 40
1
 40
1
 40
1
 40
1
 10
0.497307
 20
1.868426
 30
0.0
 10
0.520944
 20
1.882023
 30
0.0
 10
0.535503
 20
1.907149
 30
0.0
 10
0.535497
 20
1.934337
 30
0.0
  0
SPLINE
  5
1a4
100
AcDbEntity
  8
0
 62
1
100
AcDbSpline
 70
8
 71
3
 72
8
 73
4
 74
0
 40
0
 40
0
 40
0
 40
0
 40
1
 40
1
 40
1
 40
1
 10
0.535497
 20
1.934337
 30
0.0
 10
0.535503
 20
1.961526
 30
0.0
 10
0.520944
 20
1.986652
 30
0.0
 10
0.497307
 20
2.000248
 30
0.0
  0
SPLINE
  5
1a5
100
AcDbEntity
  8
0
 62
1
100
AcDbSpline
 70
8
 71
3
 72
8
 73
4
 74
0
 40
0
 40
0
 40
0
 40
0
 40
1
 40
1
 40
1
 40
1
 10
0.497307
 20
2.000248
 30
0.0
 10
0.473669
 20
2.013845
 30
0.0
 10
0.444544
 20
2.013845
 30
0.0
 10
0.420906
 20
2.000248
 30
0.0
  0
SPLINE
  5
1a6
100
AcDbEntity
  8
0
 62
1
100
AcDbSpline
 70
8
 71
3
 72
8
 73
4
 74
0
 40
0
 40
0
 40
0
 40
0
 40
1
 40
1
 40
1
 40
1
 10
0.420906
 20
2.000248
 30
0.0
 10
0.397269
 20
1.986652
 30
0.0
 10
0.382710
 20
1.961526
 30
0.0
 10
0.382716
 20
1.934337
 30
0.0
  0
LWPOLYLINE
  5
1a7
100
AcDbEntity
  8
0
 62
1
100
AcDbPolyline
 90
1
 70
1
 10
7.781929
 20
6.879268
 30
0.0
  0
LWPOLYLINE
  5
1a8
100
AcDbEntity
  8
0
 62
1
100
AcDbPolyline
 90
1
 70
1
 10
0.382716
 20
1.934337
 30
0.0
  0
ENDSEC
  0
SECTION
  2
OBJECTS
  0
DICTIONARY
  5
C
330
0
100
AcDbDictionary
  3
ACAD_GROUP
350
D
  3
ACAD_MLINESTYLE
350
17
  0
DICTIONARY
  5
D
330
C
100
AcDbDictionary
  0
DICTIONARY
  5
1A
330
C
100
AcDbDictionary
  0
DICTIONARY
  5
17
330
C
100
AcDbDictionary
  3
STANDARD
350
18
  0
DICTIONARY
  5
19
330
C
100
AcDbDictionary
  0
ENDSEC
  0
EOF
