0
SECTION
2
HEADER
9
$INSUNITS
70
4
9
$ACADVER
1
AC1014
9
$HANDSEED
5
FFFF
0
ENDSEC
0
SECTION
2
TABLES
0
TABLE
2
VPORT
5
8
100
AcDbSymbolTable
0
ENDTAB
0
TABLE
2
LTYPE
5
5
100
AcDbSymbolTable
0
LTYPE
5
14
100
AcDbSymbolTableRecord
100
AcDbLinetypeTableRecord
2
BYBLOCK
70
0
0
LTYPE
5
15
100
AcDbSymbolTableRecord
100
AcDbLinetypeTableRecord
2
BYLAYER
70
0
0
ENDTAB
0
TABLE
2
LAYER
5
2
100
AcDbSymbolTable
70
2
0
LAYER
5
50
100
AcDbSymbolTableRecord
100
AcDbLayerTableRecord
2
0
70
0
6
CONTINUOUS
0
ENDTAB
0
TABLE
2
STYLE
5
3
100
AcDbSymbolTable
70
1
0
STYLE
5
11
100
AcDbSymbolTableRecord
100
AcDbTextStyleTableRecord
2
STANDARD
70
0
0
ENDTAB
0
TABLE
2
VIEW
5
6
100
AcDbSymbolTable
70
0
0
ENDTAB
0
TABLE
2
UCS
5
7
100
AcDbSymbolTable
70
0
0
ENDTAB
0
TABLE
2
APPID
5
9
100
AcDbSymbolTable
70
2
0
APPID
5
12
100
AcDbSymbolTableRecord
100
AcDbRegAppTableRecord
2
ACAD
70
0
0
ENDTAB
0
TABLE
2
DIMSTYLE
5
A
100
AcDbSymbolTable
70
1
0
ENDTAB
0
TABLE
2
BLOCK_RECORD
5
1
100
AcDbSymbolTable
70
1
0
BLOCK_RECORD
5
1F
100
AcDbSymbolTableRecord
100
AcDbBlockTableRecord
2
*MODEL_SPACE
0
BLOCK_RECORD
5
1B
100
AcDbSymbolTableRecord
100
AcDbBlockTableRecord
2
*PAPER_SPACE
0
ENDTAB
0
ENDSEC
0
SECTION
2
BLOCKS
0
BLOCK
5
20
100
AcDbEntity
100
AcDbBlockBegin
2
*MODEL_SPACE
0
ENDBLK
5
21
100
AcDbEntity
100
AcDbBlockEnd
0
BLOCK
5
1C
100
AcDbEntity
100
AcDbBlockBegin
2
*PAPER_SPACE
0
ENDBLK
5
1D
100
AcDbEntity
100
AcDbBlockEnd
0
ENDSEC
0
SECTION
2
ENTITIES
0
LWPOLYLINE
5
100
100
AcDbEntity
8
0
100
AcDbPolyline
90
4
70
1
43
0.0
10
0.55611513489772335
20
-0.71898385802538112
10
210.55526128445626
20
-0.71898385802538112
10
210.55526128445626
20
-210.71813000758394
10
0.55611513489772335
20
-210.71813000758394
0
LWPOLYLINE
5
101
100
AcDbEntity
8
0
100
AcDbPolyline
90
4
70
1
43
0.0
10
17.555005992187397
20
-0.87037677109339651
10
192.32178699259742
20
-0.87037677109339651
10
192.32178699259742
20
-17.043869286949548
10
17.555005992187382
20
-17.043869286949548
0
LWPOLYLINE
5
102
100
AcDbEntity
8
0
100
AcDbPolyline
90
4
70
1
43
0.0
10
115.59549456330043
20
-109.62886695274855
10
127.32194404783074
20
-109.62886695274855
10
127.32194404783074
20
-121.35531643727887
10
115.59549456330043
20
-121.35531643727887
0
LWPOLYLINE
5
103
100
AcDbEntity
8
0
100
AcDbPolyline
90
4
70
1
43
0.0
10
50.878601587311692
20
-109.65462551375354
10
62.605051071842013
20
-109.65462551375354
10
62.605051071842013
20
-121.38107499828386
10
50.878601587311692
20
-121.38107499828386
0
LWPOLYLINE
5
104
100
AcDbEntity
8
0
100
AcDbPolyline
90
4
70
1
43
0.0
10
18.948660497428481
20
-21.218806212181526
10
30.675109981958791
20
-21.218806212181526
10
30.675109981958791
20
-32.94525569671184
10
18.948660497428481
20
-32.94525569671184
0
LWPOLYLINE
5
105
100
AcDbEntity
8
0
100
AcDbPolyline
90
4
70
1
43
0.0
10
34.891552705676901
20
-21.267555893778251
10
46.618002190207207
20
-21.267555893778251
10
46.618002190207207
20
-32.994005378308565
10
34.891552705676894
20
-32.994005378308565
0
LWPOLYLINE
5
106
100
AcDbEntity
8
0
100
AcDbPolyline
90
4
70
1
43
0.0
10
50.453418822897149
20
-21.209077540717836
10
62.179868307427462
20
-21.209077540717836
10
62.179868307427462
20
-32.935527025248149
10
50.453418822897149
20
-32.935527025248149
0
LWPOLYLINE
5
107
100
AcDbEntity
8
0
100
AcDbPolyline
90
4
70
1
43
0.0
10
67.08928152102996
20
-21.404455423493374
10
78.815731005560281
20
-21.404455423493374
10
78.815731005560281
20
-33.130904908023695
10
67.08928152102996
20
-33.130904908023695
0
LWPOLYLINE
5
108
100
AcDbEntity
8
0
100
AcDbPolyline
90
4
70
1
43
0.0
10
84.082752889426814
20
-21.672676470550233
10
95.809202373957135
20
-21.672676470550233
10
95.809202373957135
20
-33.399125955080549
10
84.082752889426814
20
-33.399125955080549
0
LWPOLYLINE
5
109
100
AcDbEntity
8
0
100
AcDbPolyline
90
4
70
1
43
0.0
10
99.435707848751619
20
-21.491955289231271
10
111.16215733328193
20
-21.491955289231271
10
111.16215733328193
20
-33.218404773761584
10
99.435707848751619
20
-33.218404773761584
0
LWPOLYLINE
5
110
100
AcDbEntity
8
0
100
AcDbPolyline
90
4
70
1
43
0.0
10
115.49158765775104
20
-21.422698061694234
10
127.21803714228136
20
-21.422698061694234
10
127.21803714228136
20
-33.149147546224548
10
115.49158765775104
20
-33.149147546224548
0
LWPOLYLINE
5
111
100
AcDbEntity
8
0
100
AcDbPolyline
90
4
70
1
43
0.0
10
131.41785115009836
20
-21.473703623497361
10
143.14430063462868
20
-21.473703623497361
10
143.14430063462868
20
-33.200153108027678
10
131.41785115009836
20
-33.200153108027671
0
LWPOLYLINE
5
112
100
AcDbEntity
8
0
100
AcDbPolyline
90
4
70
1
43
0.0
10
148.71362149980376
20
-21.410541986895957
10
160.44007098433411
20
-21.410541986895957
10
160.44007098433408
20
-33.136991471426278
10
148.71362149980376
20
-33.136991471426278
0
LWPOLYLINE
5
113
100
AcDbEntity
8
0
100
AcDbPolyline
90
4
70
1
43
0.0
10
163.61426696092047
20
-21.275205223459878
10
175.34071644545079
20
-21.275205223459878
10
175.34071644545077
20
-33.001654707990198
10
163.61426696092047
20
-33.001654707990198
0
LWPOLYLINE
5
114
100
AcDbEntity
8
0
100
AcDbPolyline
90
4
70
1
43
0.0
10
179.62344332915066
20
-21.467688277300041
10
191.34989281368098
20
-21.467688277300041
10
191.34989281368095
20
-33.194137761830362
10
179.62344332915066
20
-33.194137761830362
0
LWPOLYLINE
5
115
100
AcDbEntity
8
0
100
AcDbPolyline
90
4
70
1
43
0.0
10
19.131852213628878
20
-38.880349131217166
10
30.858301698159192
20
-38.880349131217166
10
30.858301698159192
20
-50.606798615747479
10
19.131852213628878
20
-50.606798615747486
0
LWPOLYLINE
5
116
100
AcDbEntity
8
0
100
AcDbPolyline
90
4
70
1
43
0.0
10
67.320784581943954
20
-38.865293212187375
10
79.04723406647426
20
-38.865293212187375
10
79.04723406647426
20
-50.591742696717702
10
67.320784581943954
20
-50.591742696717702
0
LWPOLYLINE
5
117
100
AcDbEntity
8
0
100
AcDbPolyline
90
4
70
1
43
0.0
10
84.170851581524531
20
-38.792568408895114
10
95.897301066054851
20
-38.792568408895114
10
95.897301066054851
20
-50.519017893425428
10
84.170851581524531
20
-50.519017893425428
0
LWPOLYLINE
5
118
100
AcDbEntity
8
0
100
AcDbPolyline
90
4
70
1
43
0.0
10
99.697331775258249
20
-38.732166188233151
10
111.42378125978857
20
-38.732166188233151
10
111.42378125978854
20
-50.458615672763472
10
99.697331775258235
20
-50.458615672763472
0
LWPOLYLINE
5
119
100
AcDbEntity
8
0
100
AcDbPolyline
90
4
70
1
43
0.0
10
115.82239659153021
20
-38.778318949485566
10
127.54884607606053
20
-38.778318949485566
10
127.54884607606053
20
-50.504768434015887
10
115.82239659153021
20
-50.504768434015887
0
LWPOLYLINE
5
120
100
AcDbEntity
8
0
100
AcDbPolyline
90
4
70
1
43
0.0
10
131.56815957558896
20
-38.722358275090357
10
143.29460906011929
20
-38.722358275090357
10
143.29460906011929
20
-50.448807759620671
10
131.56815957558896
20
-50.448807759620671
0
LWPOLYLINE
5
121
100
AcDbEntity
8
0
100
AcDbPolyline
90
4
70
1
43
0.0
10
148.74699328035814
20
-38.754955693919818
10
160.47344276488843
20
-38.754955693919818
10
160.47344276488846
20
-50.481405178450132
10
148.74699328035814
20
-50.481405178450132
0
LWPOLYLINE
5
122
100
AcDbEntity
8
0
100
AcDbPolyline
90
4
70
1
43
0.0
10
163.68171266348958
20
-38.769572273007228
10
175.40816214801993
20
-38.769572273007228
10
175.40816214801993
20
-50.496021757537548
10
163.68171266348958
20
-50.496021757537548
0
LWPOLYLINE
5
123
100
AcDbEntity
8
0
100
AcDbPolyline
90
4
70
1
43
0.0
10
179.73815318259813
20
-38.908350532658588
10
191.46460266712842
20
-38.908350532658588
10
191.46460266712847
20
-50.634800017188901
10
179.73815318259818
20
-50.634800017188901
0
LWPOLYLINE
5
124
100
AcDbEntity
8
0
100
AcDbPolyline
90
4
70
1
43
0.0
10
50.712908239364111
20
-38.750761903282672
10
62.439357723894425
20
-38.750761903282672
10
62.439357723894425
20
-50.477211387812986
10
50.712908239364111
20
-50.477211387812986
0
LWPOLYLINE
5
125
100
AcDbEntity
8
0
100
AcDbPolyline
90
4
70
1
43
0.0
10
35.014887865436009
20
-39.085691404375254
10
46.741337349966315
20
-39.085691404375254
10
46.741337349966315
20
-50.812140888905574
10
35.014887865436002
20
-50.812140888905574
0
LWPOLYLINE
5
126
100
AcDbEntity
8
0
100
AcDbPolyline
90
4
70
1
43
0.0
10
18.724402533326771
20
-56.698482635695711
10
30.450852017857084
20
-56.698482635695711
10
30.450852017857084
20
-68.424932120226018
10
18.724402533326771
20
-68.424932120226018
0
LWPOLYLINE
5
127
100
AcDbEntity
8
0
100
AcDbPolyline
90
4
70
1
43
0.0
10
67.444123753939976
20
-56.683426716665927
10
79.170573238470297
20
-56.683426716665927
10
79.170573238470297
20
-68.409876201196241
10
67.444123753939976
20
-68.409876201196241
0
LWPOLYLINE
5
128
100
AcDbEntity
8
0
100
AcDbPolyline
90
4
70
1
43
0.0
10
84.294190753520567
20
-56.610702916432878
10
96.020640238050873
20
-56.610702916432878
10
96.020640238050873
20
-68.337152400963191
10
84.294190753520567
20
-68.337152400963191
0
LWPOLYLINE
5
129
100
AcDbEntity
8
0
100
AcDbPolyline
90
4
70
1
43
0.0
10
99.820670947254257
20
-56.550299692711697
10
111.54712043178458
20
-56.550299692711697
10
111.54712043178458
20
-68.27674917724201
10
99.820670947254257
20
-68.27674917724201
0
LWPOLYLINE
5
130
100
AcDbEntity
8
0
100
AcDbPolyline
90
4
70
1
43
0.0
10
115.94573275434855
20
-56.596453457023337
10
127.67218223887888
20
-56.596453457023337
10
127.67218223887888
20
-68.32290294155365
10
115.94573275434855
20
-68.32290294155365
0
LWPOLYLINE
5
131
100
AcDbEntity
8
0
100
AcDbPolyline
90
4
70
1
43
0.0
10
131.69148570781502
20
-56.540492782628121
10
143.41793519234534
20
-56.540492782628121
10
143.41793519234534
20
-68.266942267158441
10
131.69148570781502
20
-68.266942267158441
0
LWPOLYLINE
5
132
100
AcDbEntity
8
0
100
AcDbPolyline
90
4
70
1
43
0.0
10
148.87032944317647
20
-56.573089198398364
10
160.59677892770679
20
-56.573089198398364
10
160.59677892770679
20
-68.299538682928684
10
148.87032944317647
20
-68.299538682928684
0
LWPOLYLINE
5
133
100
AcDbEntity
8
0
100
AcDbPolyline
90
4
70
1
43
0.0
10
163.80503879571566
20
-56.587705777485773
10
175.53148828024598
20
-56.587705777485773
10
175.53148828024598
20
-68.314155262016087
10
163.80503879571563
20
-68.314155262016087
0
LWPOLYLINE
5
134
100
AcDbEntity
8
0
100
AcDbPolyline
90
4
70
1
43
0.0
10
179.86148934541646
20
-56.726484037137141
10
191.58793882994678
20
-56.726484037137141
10
191.58793882994678
20
-68.452933521667447
10
179.86148934541646
20
-68.452933521667447
0
LWPOLYLINE
5
135
100
AcDbEntity
8
0
100
AcDbPolyline
90
4
70
1
43
0.0
10
50.836243399123219
20
-56.568895407761211
10
62.562692883653533
20
-56.568895407761211
10
62.562692883653533
20
-68.295344892291524
10
50.836243399123219
20
-68.295344892291524
0
LWPOLYLINE
5
136
100
AcDbEntity
8
0
100
AcDbPolyline
90
4
70
1
43
0.0
10
34.954220837137548
20
-56.560481746946962
10
46.680670321667861
20
-56.560481746946962
10
46.680670321667861
20
-68.286931231477269
10
34.954220837137548
20
-68.286931231477269
0
LWPOLYLINE
5
137
100
AcDbEntity
8
0
100
AcDbPolyline
90
4
70
1
43
0.0
10
19.118532590124772
20
-74.615478660860148
10
30.844982074655086
20
-74.615478660860148
10
30.844982074655093
20
-86.341928145390469
10
19.118532590124776
20
-86.341928145390469
0
LWPOLYLINE
5
138
100
AcDbEntity
8
0
100
AcDbPolyline
90
4
70
1
43
0.0
10
67.307460946202923
20
-74.600417726534218
10
79.033910430733243
20
-74.600417726534218
10
79.033910430733243
20
-86.326867211064524
10
67.307460946202923
20
-86.326867211064538
0
LWPOLYLINE
5
139
100
AcDbEntity
8
0
100
AcDbPolyline
90
4
70
1
43
0.0
10
84.157527945783514
20
-74.527693926301183
10
95.88397743031382
20
-74.527693926301183
10
95.88397743031382
20
-86.254143410831503
10
84.157527945783514
20
-86.254143410831489
0
LWPOLYLINE
5
140
100
AcDbEntity
8
0
100
AcDbPolyline
90
4
70
1
43
0.0
10
99.684008139517204
20
-74.467290702579987
10
111.41045762404752
20
-74.467290702579987
10
111.41045762404752
20
-86.193740187110308
10
99.684008139517204
20
-86.193740187110294
0
LWPOLYLINE
5
141
100
AcDbEntity
8
0
100
AcDbPolyline
90
4
70
1
43
0.0
10
115.59549456330043
20
-74.456776635739871
10
127.32194404783074
20
-74.456776635739871
10
127.32194404783074
20
-86.183226120270177
10
115.59549456330043
20
-86.183226120270177
0
LWPOLYLINE
5
142
100
AcDbEntity
8
0
100
AcDbPolyline
90
4
70
1
43
0.0
10
131.55483894902562
20
-74.457487804733347
10
143.28128843355594
20
-74.457487804733347
10
143.28128843355594
20
-86.183937289263667
10
131.55483894902562
20
-86.183937289263653
0
LWPOLYLINE
5
143
100
AcDbEntity
8
0
100
AcDbPolyline
90
4
70
1
43
0.0
10
148.73368268438708
20
-74.490081211325887
10
160.4601321689174
20
-74.490081211325887
10
160.4601321689174
20
-86.216530695856193
10
148.73368268438708
20
-86.216530695856207
0
LWPOLYLINE
5
144
100
AcDbEntity
8
0
100
AcDbPolyline
90
4
70
1
43
0.0
10
163.66839203692626
20
-74.504697790413303
10
175.39484152145661
20
-74.504697790413303
10
175.39484152145658
20
-86.231147274943609
10
163.66839203692626
20
-86.231147274943623
0
LWPOLYLINE
5
145
100
AcDbEntity
8
0
100
AcDbPolyline
90
4
70
1
43
0.0
10
179.72484258662712
20
-74.643480062301563
10
191.45129207115744
20
-74.643480062301563
10
191.45129207115744
20
-86.369929546831884
10
179.72484258662712
20
-86.369929546831884
0
LWPOLYLINE
5
146
100
AcDbEntity
8
0
100
AcDbPolyline
90
4
70
1
43
0.0
10
34.935219886159445
20
-74.469670962130806
10
46.661669370689758
20
-74.469670962130806
10
46.661669370689758
20
-86.196120446661126
10
34.935219886159445
20
-86.196120446661126
0
LWPOLYLINE
5
147
100
AcDbEntity
8
0
100
AcDbPolyline
90
4
70
1
43
0.0
10
50.699588615860009
20
-74.485887420688741
10
62.426038100390322
20
-74.485887420688741
10
62.426038100390322
20
-86.212336905219047
10
50.699588615860009
20
-86.212336905219047
0
LWPOLYLINE
5
148
100
AcDbEntity
8
0
100
AcDbPolyline
90
4
70
1
43
0.0
10
19.03360456825046
20
-92.280002671924876
10
30.760054052780774
20
-92.280002671924876
10
30.760054052780774
20
-104.0064521564552
10
19.03360456825046
20
-104.0064521564552
0
LWPOLYLINE
5
149
100
AcDbEntity
8
0
100
AcDbPolyline
90
4
70
1
43
0.0
10
67.222538942683983
20
-92.264941737598946
10
78.948988427214303
20
-92.264941737598946
10
78.948988427214303
20
-103.99139122212927
10
67.222538942683983
20
-103.99139122212927
0
LWPOLYLINE
5
150
100
AcDbEntity
8
0
100
AcDbPolyline
90
4
70
1
43
0.0
10
84.072605942264573
20
-92.192210915951307
10
95.799055426794894
20
-92.192210915951307
10
95.799055426794894
20
-103.91866040048163
10
84.072605942264573
20
-103.91866040048163
0
LWPOLYLINE
5
151
100
AcDbEntity
8
0
100
AcDbPolyline
90
4
70
1
43
0.0
10
99.599086135998292
20
-92.131822738118544
10
111.32553562052861
20
-92.131822738118544
10
111.32553562052861
20
-103.85827222264886
10
99.599086135998292
20
-103.85827222264886
0
LWPOLYLINE
5
152
100
AcDbEntity
8
0
100
AcDbPolyline
90
4
70
1
43
0.0
10
115.72413690944104
20
-92.177968477956369
10
127.45058639397136
20
-92.177968477956369
10
127.45058639397136
20
-103.90441796248668
10
115.72413690944104
20
-103.90441796248668
0
LWPOLYLINE
5
153
100
AcDbEntity
8
0
100
AcDbPolyline
90
4
70
1
43
0.0
10
131.46994001586899
20
-92.122011815798075
10
143.19638950039931
20
-92.122011815798075
10
143.19638950039931
20
-103.8484613003284
10
131.46994001586899
20
-103.8484613003284
0
LWPOLYLINE
5
154
100
AcDbEntity
8
0
100
AcDbPolyline
90
4
70
1
43
0.0
10
148.55459648961167
20
-92.154612243805204
10
160.28104597414199
20
-92.154612243805204
10
160.28104597414199
20
-103.88106172833552
10
148.55459648961167
20
-103.88106172833552
0
LWPOLYLINE
5
155
100
AcDbEntity
8
0
100
AcDbPolyline
90
4
70
1
43
0.0
10
163.58349310376957
20
-92.169221801478031
10
175.30994258829992
20
-92.169221801478031
10
175.30994258829992
20
-103.89567128600834
10
163.58349310376957
20
-103.89567128600834
0
LWPOLYLINE
5
156
100
AcDbEntity
8
0
100
AcDbPolyline
90
4
70
1
43
0.0
10
179.63994365347045
20
-92.308004073366291
10
191.36639313800075
20
-92.308004073366291
10
191.36639313800075
20
-104.0344535578966
10
179.63994365347043
20
-104.0344535578966
0
LWPOLYLINE
5
157
100
AcDbEntity
8
0
100
AcDbPolyline
90
4
70
1
43
0.0
10
35.381075701287109
20
-92.13419497319552
10
47.107525185817423
20
-92.13419497319552
10
47.107525185817423
20
-103.86064445772584
10
35.381075701287102
20
-103.86064445772584
0
LWPOLYLINE
5
158
100
AcDbEntity
8
0
100
AcDbPolyline
90
4
70
1
43
0.0
10
50.61465858786724
20
-92.15040340727964
10
62.341108072397553
20
-92.15040340727964
10
62.341108072397553
20
-103.87685289180995
10
50.61465858786724
20
-103.87685289180995
0
LWPOLYLINE
5
159
100
AcDbEntity
8
0
100
AcDbPolyline
90
4
70
1
43
0.0
10
18.948685573909209
20
-109.77467164230022
10
30.675135058439523
20
-109.77467164230022
10
30.675135058439523
20
-121.50112112683054
10
18.948685573909213
20
-121.50112112683054
0
LWPOLYLINE
5
160
100
AcDbEntity
8
0
100
AcDbPolyline
90
4
70
1
43
0.0
10
67.137616939165056
20
-109.75961572327043
10
78.864066423695377
20
-109.75961572327043
10
78.864066423695377
20
-121.48606520780075
10
67.137616939165056
20
-121.48606520780075
0
LWPOLYLINE
5
161
100
AcDbEntity
8
0
100
AcDbPolyline
90
4
70
1
43
0.0
10
83.987682935686394
20
-109.68687386797127
10
95.714132420216714
20
-109.68687386797127
10
95.714132420216714
20
-121.41332335250158
10
83.987682935686394
20
-121.41332335250158
0
LWPOLYLINE
5
162
100
AcDbEntity
8
0
100
AcDbPolyline
90
4
70
1
43
0.0
10
99.514163129420126
20
-109.62650976356001
10
111.24061261395043
20
-109.62650976356001
10
111.24061261395043
20
-121.35295924809031
10
99.514163129420126
20
-121.35295924809031
0
LWPOLYLINE
5
163
100
AcDbEntity
8
0
100
AcDbPolyline
90
4
70
1
43
0.0
10
131.38499092975087
20
-109.61667978311418
10
143.11144041428119
20
-109.61667978311418
10
143.11144041428119
20
-121.3431292676445
10
131.38499092975087
20
-121.3431292676445
0
LWPOLYLINE
5
164
100
AcDbEntity
8
0
100
AcDbPolyline
90
4
70
1
43
0.0
10
148.5638346651123
20
-109.64928923865438
10
160.29028414964262
20
-109.64928923865438
10
160.29028414964262
20
-121.3757387231847
10
148.5638346651123
20
-121.3757387231847
0
LWPOLYLINE
5
165
100
AcDbEntity
8
0
100
AcDbPolyline
90
4
70
1
43
0.0
10
163.49854401765145
20
-109.66390381162336
10
175.22499350218175
20
-109.66390381162336
10
175.2249935021818
20
-121.39035329615368
10
163.49854401765151
20
-121.39035329615366
0
LWPOLYLINE
5
166
100
AcDbEntity
8
0
100
AcDbPolyline
90
4
70
1
43
0.0
10
179.55499456735231
20
-109.80265699479398
10
191.28144405188266
20
-109.80265699479398
10
191.28144405188263
20
-121.5291064793243
10
179.55499456735231
20
-121.52910647932428
0
LWPOLYLINE
5
167
100
AcDbEntity
8
0
100
AcDbPolyline
90
4
70
1
43
0.0
10
34.765370863825417
20
-109.62886695274855
10
46.491820348355745
20
-109.62886695274855
10
46.491820348355745
20
-121.35531643727887
10
34.765370863825424
20
-121.35531643727887
0
LWPOLYLINE
5
168
100
AcDbEntity
8
0
100
AcDbPolyline
90
4
70
1
43
0.0
10
51.060526439705654
20
-109.64508642048418
10
62.786975924235975
20
-109.64508642048418
10
62.786975924235968
20
-121.3715359050145
10
51.060526439705647
20
-121.3715359050145
0
LWPOLYLINE
5
169
100
AcDbEntity
8
0
100
AcDbPolyline
90
4
70
1
43
0.0
10
19.026248131863749
20
-127.32587102471292
10
30.752697616394062
20
-127.32587102471292
10
30.752697616394062
20
-139.05232050924323
10
19.026248131863749
20
-139.05232050924323
0
LWPOLYLINE
5
170
100
AcDbEntity
8
0
100
AcDbPolyline
90
4
70
1
43
0.0
10
67.215184512415746
20
-127.31080507509085
10
78.941633996946067
20
-127.31080507509085
10
78.941633996946067
20
-139.03725455962115
10
67.215184512415746
20
-139.03725455962115
0
LWPOLYLINE
5
171
100
AcDbEntity
8
0
100
AcDbPolyline
90
4
70
1
43
0.0
10
84.065251511996308
20
-127.23807325038396
10
95.791700996526629
20
-127.23807325038396
10
95.791700996526629
20
-138.96452273491428
10
84.065251511996308
20
-138.96452273491428
0
LWPOLYLINE
5
172
100
AcDbEntity
8
0
100
AcDbPolyline
90
4
70
1
43
0.0
10
99.591731705730027
20
-127.17769911538043
10
111.31818119026035
20
-127.17769911538043
10
111.31818119026035
20
-138.90414859991074
10
99.591731705730027
20
-138.90414859991074
0
LWPOLYLINE
5
173
100
AcDbEntity
8
0
100
AcDbPolyline
90
4
70
1
43
0.0
10
115.71677445469896
20
-127.2238498705144
10
127.44322393922928
20
-127.2238498705144
10
127.44322393922928
20
-138.95029935504471
10
115.71677445469896
20
-138.95029935504471
0
LWPOLYLINE
5
174
100
AcDbEntity
8
0
100
AcDbPolyline
90
4
70
1
43
0.0
10
131.46257756112689
20
-127.16788919611918
10
143.18902704565721
20
-127.16788919611918
10
143.18902704565721
20
-138.89433868064947
10
131.46257756112689
20
-138.89433868064947
0
LWPOLYLINE
5
175
100
AcDbEntity
8
0
100
AcDbPolyline
90
4
70
1
43
0.0
10
148.64142129648837
20
-127.20048862106709
10
160.36787078101867
20
-127.20048862106709
10
160.36787078101867
20
-138.9269381055974
10
148.64142129648835
20
-138.9269381055974
0
LWPOLYLINE
5
176
100
AcDbEntity
8
0
100
AcDbPolyline
90
4
70
1
43
0.0
10
163.5761306490275
20
-127.21510319403606
10
175.30258013355785
20
-127.21510319403606
10
175.30258013355785
20
-138.94155267856638
10
163.5761306490275
20
-138.94155267856638
0
LWPOLYLINE
5
177
100
AcDbEntity
8
0
100
AcDbPolyline
90
4
70
1
43
0.0
10
179.63258119872836
20
-127.35386640779899
10
191.35903068325865
20
-127.35386640779899
10
191.35903068325865
20
-139.08031589232931
10
179.63258119872833
20
-139.08031589232931
0
LWPOLYLINE
5
178
100
AcDbEntity
8
0
100
AcDbPolyline
90
4
70
1
43
0.0
10
50.607304157598982
20
-127.19626574171231
10
62.333753642129295
20
-127.19626574171231
10
62.333753642129295
20
-138.92271522624262
10
50.607304157598982
20
-138.92271522624262
0
LWPOLYLINE
5
179
100
AcDbEntity
8
0
100
AcDbPolyline
90
4
70
1
43
0.0
10
35.056488743906463
20
-127.22681892583273
10
46.782938228436777
20
-127.22681892583273
10
46.782938228436777
20
-138.95326841036302
10
35.056488743906456
20
-138.95326841036302
0
LWPOLYLINE
5
180
100
AcDbEntity
8
0
100
AcDbPolyline
90
4
70
1
43
0.0
10
19.071997663306043
20
-144.70867682373313
10
30.79844714783636
20
-144.70867682373313
10
30.79844714783636
20
-156.43512630826345
10
19.071997663306043
20
-156.43512630826345
0
LWPOLYLINE
5
181
100
AcDbEntity
8
0
100
AcDbPolyline
90
4
70
1
43
0.0
10
67.485716607936595
20
-144.82454019529416
10
79.212166092466916
20
-144.82454019529416
10
79.212166092466902
20
-156.55098967982448
10
67.485716607936595
20
-156.55098967982448
0
LWPOLYLINE
5
182
100
AcDbEntity
8
0
100
AcDbPolyline
90
4
70
1
43
0.0
10
84.335783607517186
20
-144.7518083705873
10
96.062233092047506
20
-144.7518083705873
10
96.062233092047492
20
-156.47825785511762
10
84.335783607517172
20
-156.47825785511762
0
LWPOLYLINE
5
183
100
AcDbEntity
8
0
100
AcDbPolyline
90
4
70
1
43
0.0
10
99.862262798191651
20
-144.6914141743992
10
111.58871228272197
20
-144.6914141743992
10
111.58871228272197
20
-156.41786365892952
10
99.862262798191651
20
-156.41786365892952
0
LWPOLYLINE
5
184
100
AcDbEntity
8
0
100
AcDbPolyline
90
4
70
1
43
0.0
10
115.98730955939752
20
-144.73756492953316
10
127.71375904392784
20
-144.73756492953316
10
127.71375904392784
20
-156.46401441406346
10
115.98730955939752
20
-156.46401441406346
0
LWPOLYLINE
5
185
100
AcDbEntity
8
0
100
AcDbPolyline
90
4
70
1
43
0.0
10
131.73311266582544
20
-144.68160425513793
10
143.45956215035577
20
-144.68160425513793
10
143.45956215035577
20
-156.40805373966825
10
131.73311266582544
20
-156.40805373966825
0
LWPOLYLINE
5
186
100
AcDbEntity
8
0
100
AcDbPolyline
90
4
70
1
43
0.0
10
148.9119564011869
20
-144.71420368008586
10
160.63840588571722
20
-144.71420368008586
10
160.63840588571719
20
-156.44065316461618
10
148.91195640118687
20
-156.44065316461618
0
LWPOLYLINE
5
187
100
AcDbEntity
8
0
100
AcDbPolyline
90
4
70
1
43
0.0
10
163.84666575372606
20
-144.72881825305481
10
175.57311523825638
20
-144.72881825305481
10
175.57311523825635
20
-156.45526773758513
10
163.84666575372606
20
-156.45526773758513
0
LWPOLYLINE
5
188
100
AcDbEntity
8
0
100
AcDbPolyline
90
4
70
1
43
0.0
10
179.90311630342691
20
-144.86760152800233
10
191.62956578795723
20
-144.86760152800233
10
191.62956578795723
20
-156.59405101253265
10
179.90311630342688
20
-156.59405101253265
0
LWPOLYLINE
5
189
100
AcDbEntity
8
0
100
AcDbPolyline
90
4
70
1
43
0.0
10
35.113474544833878
20
-144.69379142477231
10
46.839924029364198
20
-144.69379142477231
10
46.839924029364198
20
-156.42024090930261
10
35.113474544833885
20
-156.42024090930261
0
LWPOLYLINE
5
190
100
AcDbEntity
8
0
100
AcDbPolyline
90
4
70
1
43
0.0
10
50.877844277593674
20
-144.71000086191563
10
62.604293762123994
20
-144.71000086191563
10
62.604293762123994
20
-156.43645034644595
10
50.877844277593674
20
-156.43645034644595
0
LWPOLYLINE
5
191
100
AcDbEntity
8
0
100
AcDbPolyline
90
4
70
1
43
0.0
10
67.326470924714087
20
-162.54356141733876
10
79.052920409244408
20
-162.54356141733876
10
79.052920409244408
20
-174.27001090186906
10
67.326470924714087
20
-174.27001090186909
0
LWPOLYLINE
5
192
100
AcDbEntity
8
0
100
AcDbPolyline
90
4
70
1
43
0.0
10
99.703017114969157
20
-162.41043539644377
10
111.42946659949948
20
-162.41043539644377
10
111.42946659949948
20
-174.13688488097407
10
99.703017114969157
20
-174.13688488097407
0
LWPOLYLINE
5
193
100
AcDbEntity
8
0
100
AcDbPolyline
90
4
70
1
43
0.0
10
115.82805384558272
20
-162.45658615157771
10
127.55450333011304
20
-162.45658615157771
10
127.55450333011304
20
-174.18303563610806
10
115.82805384558272
20
-174.18303563610803
0
LWPOLYLINE
5
194
100
AcDbEntity
8
0
100
AcDbPolyline
90
4
70
1
43
0.0
10
131.57387701319524
20
-162.4006254771825
10
143.30032649772556
20
-162.4006254771825
10
143.30032649772556
20
-174.12707496171279
10
131.57387701319524
20
-174.12707496171282
0
LWPOLYLINE
5
195
100
AcDbEntity
8
0
100
AcDbPolyline
90
4
70
1
43
0.0
10
148.75272074855667
20
-162.43322490213043
10
160.47917023308699
20
-162.43322490213043
10
160.47917023308699
20
-174.15967438666073
10
148.75272074855667
20
-174.15967438666073
0
LWPOLYLINE
5
196
100
AcDbEntity
8
0
100
AcDbPolyline
90
4
70
1
43
0.0
10
163.68742007050355
20
-162.44783947509941
10
175.41386955503384
20
-162.44783947509941
10
175.41386955503387
20
-174.17428895962971
10
163.68742007050358
20
-174.17428895962971
0
LWPOLYLINE
5
197
100
AcDbEntity
8
0
100
AcDbPolyline
90
4
70
1
43
0.0
10
34.954220837137548
20
-162.41281264681689
10
46.680670321667861
20
-162.41281264681689
10
46.680670321667861
20
-174.13926213134721
10
34.954220837137548
20
-174.13926213134721
0
LWPOLYLINE
5
198
100
AcDbEntity
8
0
100
AcDbPolyline
90
4
70
1
43
0.0
10
50.718590569897337
20
-162.42901205336793
10
62.44504005442765
20
-162.42901205336793
10
62.44504005442765
20
-174.15546153789825
10
50.718590569897337
20
-174.15546153789822
0
LWPOLYLINE
5
199
100
AcDbEntity
8
0
100
AcDbPolyline
90
4
70
1
43
0.0
10
19.083394422267837
20
-162.60301273785149
10
30.809843906798147
20
-162.60301273785149
10
30.809843906798147
20
-174.32946222238178
10
19.083394422267833
20
-174.32946222238178
0
LWPOLYLINE
5
200
100
AcDbEntity
8
0
100
AcDbPolyline
90
4
70
1
43
0.0
10
84.217486814266181
20
-163.05687697786482
10
95.943936298796487
20
-163.05687697786482
10
95.943936298796487
20
-174.78332646239517
10
84.217486814266181
20
-174.78332646239517
0
LWPOLYLINE
5
201
100
AcDbEntity
8
0
100
AcDbPolyline
90
4
70
1
43
0.0
10
179.75820433658919
20
-162.8518917937923
10
191.48465382111951
20
-162.8518917937923
10
191.48465382111951
20
-174.57834127832263
10
179.75820433658919
20
-174.57834127832263
0
LWPOLYLINE
5
202
100
AcDbEntity
8
0
100
AcDbPolyline
90
4
70
1
43
0.0
10
19.266586138468231
20
-180.2645586660648
10
30.993035622998548
20
-180.2645586660648
10
30.993035622998548
20
-191.99100815059509
10
19.266586138468227
20
-191.99100815059512
0
LWPOLYLINE
5
203
100
AcDbEntity
8
0
100
AcDbPolyline
90
4
70
1
43
0.0
10
67.455518506783307
20
-180.24949271644272
10
79.181967991313627
20
-180.24949271644272
10
79.181967991313627
20
-191.97594220097301
10
67.455518506783307
20
-191.97594220097304
0
LWPOLYLINE
5
204
100
AcDbEntity
8
0
100
AcDbPolyline
90
4
70
1
43
0.0
10
84.305585506363897
20
-180.17676089173585
10
96.032034990894203
20
-180.17676089173585
10
96.032034990894203
20
-191.90321037626617
10
84.305585506363897
20
-191.90321037626617
0
LWPOLYLINE
5
205
100
AcDbEntity
8
0
100
AcDbPolyline
90
4
70
1
43
0.0
10
99.83207372457143
20
-180.11636669554773
10
111.55852320910174
20
-180.11636669554773
10
111.55852320910174
20
-191.84281618007802
10
99.83207372457143
20
-191.84281618007802
0
LWPOLYLINE
5
206
100
AcDbEntity
8
0
100
AcDbPolyline
90
4
70
1
43
0.0
10
115.95711747659961
20
-180.16251745068172
10
127.68356696112991
20
-180.16251745068172
10
127.68356696112991
20
-191.88896693521201
10
115.95711747659961
20
-191.88896693521201
0
LWPOLYLINE
5
207
100
AcDbEntity
8
0
100
AcDbPolyline
90
4
70
1
43
0.0
10
131.7029306136198
20
-180.10655677628648
10
143.42938009815012
20
-180.10655677628648
10
143.42938009815012
20
-191.83300626081683
10
131.7029306136198
20
-191.83300626081683
0
LWPOLYLINE
5
208
100
AcDbEntity
8
0
100
AcDbPolyline
90
4
70
1
43
0.0
10
148.88177434898125
20
-180.13915620123441
10
160.6082238335116
20
-180.13915620123441
10
160.6082238335116
20
-191.86560568576476
10
148.88177434898128
20
-191.86560568576471
0
LWPOLYLINE
5
209
100
AcDbEntity
8
0
100
AcDbPolyline
90
4
70
1
43
0.0
10
163.81647367092813
20
-180.15377077420337
10
175.54292315545842
20
-180.15377077420337
10
175.54292315545842
20
-191.88022025873366
10
163.8164736709281
20
-191.88022025873366
0
LWPOLYLINE
5
210
100
AcDbEntity
8
0
100
AcDbPolyline
90
4
70
1
43
0.0
10
179.87292422062896
20
-180.29255404915088
10
191.59937370515928
20
-180.29255404915088
10
191.59937370515931
20
-192.01900353368117
10
179.87292422062899
20
-192.01900353368117
0
LWPOLYLINE
5
211
100
AcDbEntity
8
0
100
AcDbPolyline
90
4
70
1
43
0.0
10
35.0832734345029
20
-180.11874394592084
10
46.80972291903322
20
-180.11874394592084
10
46.80972291903322
20
-191.84519343045116
10
35.0832734345029
20
-191.84519343045116
0
LWPOLYLINE
5
212
100
AcDbEntity
8
0
100
AcDbPolyline
90
4
70
1
43
0.0
10
50.847642164203464
20
-180.13495338306416
10
62.574091648733784
20
-180.13495338306416
10
62.574091648733784
20
-191.86140286759445
10
50.847642164203464
20
-191.86140286759451
0
CIRCLE
5
213
100
AcDbEntity
8
0
100
AcDbCircle
10
-11.924297902187293
20
-10.542574786477147
30
0
40
4.949814533540799
210
0
220
0
230
-1
0
CIRCLE
5
214
100
AcDbEntity
8
0
100
AcDbCircle
10
-200.2306030815117
20
-10.427622192696189
30
0
40
4.949814533540799
210
0
220
0
230
-1
0
CIRCLE
5
215
100
AcDbEntity
8
0
100
AcDbCircle
10
-200.1650832526625
20
-200.61184583333335
30
0
40
4.949814533540799
210
0
220
0
230
-1
0
CIRCLE
5
216
100
AcDbEntity
8
0
100
AcDbCircle
10
-11.910850890161084
20
-200.61184583333335
30
0
40
4.949814533540799
210
0
220
0
230
-1
0
ELLIPSE
5
217
100
AcDbEntity
8
0
100
AcDbEllipse
10
11.853026531718085
20
-36.188768081329755
30
0
11
0
21
-1.9418942810904816
31
0.0
40
0.99999953511717143
41
-1.5707963267948966
42
4.7123889803846897
0
ELLIPSE
5
218
100
AcDbEntity
8
0
100
AcDbEllipse
10
5.9046352400939197
20
-4.9985428499759461
30
0
11
0
21
-1.9418942810904816
31
0.0
40
0.99999953511717143
41
-1.5707963267948966
42
4.7123889803846897
0
ELLIPSE
5
219
100
AcDbEntity
8
0
100
AcDbEllipse
10
200.30665503226712
20
-51.149871934425221
30
0
11
0
21
-1.9418942810904816
31
0.0
40
0.99999953511717143
41
-1.5707963267948966
42
4.7123889803846897
0
ELLIPSE
5
220
100
AcDbEntity
8
0
100
AcDbEllipse
10
25.182708713772335
20
-199.87194922353086
30
0
11
0
21
-1.9418942810904816
31
0.0
40
0.99999953511717143
41
-1.5707963267948966
42
4.7123889803846897
0
ELLIPSE
5
221
100
AcDbEntity
8
0
100
AcDbEllipse
10
185.74285692148919
20
-200.17063017019979
30
0
11
0
21
-1.9418942810904816
31
0.0
40
0.99999953511717143
41
-1.5707963267948966
42
4.7123889803846897
0
ELLIPSE
5
222
100
AcDbEntity
8
0
100
AcDbEllipse
10
206.22648992977838
20
-4.1940998803061866
30
0
11
0
21
-1.9418942810904816
31
0.0
40
0.99999953511717143
41
-1.5707963267948966
42
4.7123889803846897
0
ELLIPSE
5
223
100
AcDbEntity
8
0
100
AcDbEllipse
10
-103.77987812859334
20
-6.6843236107411528
30
0
11
0
21
-0.38991645574107825
31
0.0
40
0.54189635534941272
41
-1.5707963267948966
42
4.7123889803846897
0
ELLIPSE
5
224
100
AcDbEntity
8
0
100
AcDbEllipse
10
141.93963151569565
20
-200.39743189250669
30
0
11
0
21
-1.9418942810904816
31
0.0
40
0.99999953511717143
41
-1.5707963267948966
42
4.7123889803846897
0
ELLIPSE
5
225
100
AcDbEntity
8
0
100
AcDbEllipse
10
112.0953895972694
20
-200.19232634132669
30
0
11
0
21
-1.9418942810904816
31
0.0
40
0.99999953511717143
41
-1.5707963267948966
42
4.7123889803846897
0
ELLIPSE
5
226
100
AcDbEntity
8
0
100
AcDbEllipse
10
72.508175599725405
20
-200.08976353514441
30
0
11
0
21
-1.9418942810904816
31
0.0
40
0.99999953511717143
41
-1.5707963267948966
42
4.7123889803846897
0
ELLIPSE
5
227
100
AcDbEntity
8
0
100
AcDbEllipse
10
199.88463792277983
20
-157.42581280183836
30
0
11
0
21
-1.9418942810904816
31
0.0
40
0.99999953511717143
41
-1.5707963267948966
42
4.7123889803846897
0
ELLIPSE
5
228
100
AcDbEntity
8
0
100
AcDbEllipse
10
200.08976353514441
20
-121.53068629761023
30
0
11
0
21
-1.9418942810904816
31
0.0
40
0.99999953511717143
41
-1.5707963267948966
42
4.7123889803846897
0
ELLIPSE
5
229
100
AcDbEntity
8
0
100
AcDbEllipse
10
11.178770117872252
20
-141.22173199478877
30
0
11
0
21
-1.9418942810904816
31
0.0
40
0.99999953511717143
41
-1.5707963267948966
42
4.7123889803846897
0
ELLIPSE
5
230
100
AcDbEntity
8
0
100
AcDbEllipse
10
11.178775133168397
20
-177.52709969315376
30
0
11
0
21
-1.9418942810904816
31
0.0
40
0.99999953511717143
41
-1.5707963267948966
42
4.7123889803846897
0
ELLIPSE
5
231
100
AcDbEntity
8
0
100
AcDbEllipse
10
11.896677663252959
20
-106.24961056264752
30
0
11
0
21
-1.9418942810904816
31
0.0
40
0.99999953511717143
41
-1.5707963267948966
42
4.7123889803846897
0
ELLIPSE
5
232
100
AcDbEntity
8
0
100
AcDbEllipse
10
11.486442487471461
20
-70.969822779262429
30
0
11
0
21
-1.9418942810904816
31
0.0
40
0.99999953511717143
41
-1.5707963267948966
42
4.7123889803846897
0
ELLIPSE
5
233
100
AcDbEntity
8
0
100
AcDbEllipse
10
199.78207511659753
20
-85.943209092619028
30
0
11
0
21
-1.9418942810904816
31
0.0
40
0.99999953511717143
41
-1.5707963267948966
42
4.7123889803846897
0
ENDSEC
0
SECTION
2
OBJECTS
0
DICTIONARY
5
C
100
AcDbDictionary
3
ACAD_GROUP
350
D
3
ACAD_MLINESTYLE
350
17
0
DICTIONARY
5
D
100
AcDbDictionary
0
DICTIONARY
5
1A
330
C
100
AcDbDictionary
0
DICTIONARY
5
17
100
AcDbDictionary
0
ENDSEC
0
EOF
